G04 DipTrace 4.3.0.1*
G04 BottomMask.gbr*
%MOIN*%
G04 #@! TF.FileFunction,Soldermask,Bot*
G04 #@! TF.Part,Single*
%AMOUTLINE7*
4,1,28,
-0.021063,-0.008594,
-0.021063,0.008594,
-0.020717,0.01122,
-0.019654,0.013788,
-0.017962,0.015993,
-0.015757,0.017685,
-0.013189,0.018749,
-0.010562,0.019094,
0.010562,0.019094,
0.013189,0.018749,
0.015757,0.017685,
0.017962,0.015993,
0.019654,0.013788,
0.020717,0.01122,
0.021063,0.008594,
0.021063,-0.008594,
0.020717,-0.01122,
0.019654,-0.013788,
0.017962,-0.015993,
0.015757,-0.017685,
0.013189,-0.018749,
0.010562,-0.019094,
-0.010562,-0.019094,
-0.013189,-0.018749,
-0.015757,-0.017685,
-0.017962,-0.015993,
-0.019654,-0.013788,
-0.020717,-0.01122,
-0.021063,-0.008594,
0*%
%AMOUTLINE10*
4,1,28,
0.021063,0.008594,
0.021063,-0.008594,
0.020717,-0.01122,
0.019654,-0.013788,
0.017962,-0.015993,
0.015757,-0.017685,
0.013189,-0.018749,
0.010562,-0.019094,
-0.010562,-0.019094,
-0.013189,-0.018749,
-0.015757,-0.017685,
-0.017962,-0.015993,
-0.019654,-0.013788,
-0.020717,-0.01122,
-0.021063,-0.008594,
-0.021063,0.008594,
-0.020717,0.01122,
-0.019654,0.013788,
-0.017962,0.015993,
-0.015757,0.017685,
-0.013189,0.018749,
-0.010562,0.019094,
0.010562,0.019094,
0.013189,0.018749,
0.015757,0.017685,
0.017962,0.015993,
0.019654,0.013788,
0.020717,0.01122,
0.021063,0.008594,
0*%
%AMOUTLINE13*
4,1,28,
0.023031,0.008594,
0.023031,-0.008594,
0.022699,-0.011118,
0.021675,-0.013591,
0.020045,-0.015715,
0.017922,-0.017344,
0.015449,-0.018368,
0.012924,-0.018701,
-0.012924,-0.018701,
-0.015449,-0.018368,
-0.017922,-0.017344,
-0.020045,-0.015715,
-0.021675,-0.013591,
-0.022699,-0.011118,
-0.023031,-0.008594,
-0.023031,0.008594,
-0.022699,0.011118,
-0.021675,0.013591,
-0.020045,0.015715,
-0.017922,0.017344,
-0.015449,0.018368,
-0.012924,0.018701,
0.012924,0.018701,
0.015449,0.018368,
0.017922,0.017344,
0.020045,0.015715,
0.021675,0.013591,
0.022699,0.011118,
0.023031,0.008594,
0*%
%AMOUTLINE16*
4,1,28,
-0.023031,-0.008594,
-0.023031,0.008594,
-0.022699,0.011118,
-0.021675,0.013591,
-0.020045,0.015715,
-0.017922,0.017344,
-0.015449,0.018368,
-0.012924,0.018701,
0.012924,0.018701,
0.015449,0.018368,
0.017922,0.017344,
0.020045,0.015715,
0.021675,0.013591,
0.022699,0.011118,
0.023031,0.008594,
0.023031,-0.008594,
0.022699,-0.011118,
0.021675,-0.013591,
0.020045,-0.015715,
0.017922,-0.017344,
0.015449,-0.018368,
0.012924,-0.018701,
-0.012924,-0.018701,
-0.015449,-0.018368,
-0.017922,-0.017344,
-0.020045,-0.015715,
-0.021675,-0.013591,
-0.022699,-0.011118,
-0.023031,-0.008594,
0*%
%AMOUTLINE25*
4,1,28,
-0.033003,0.01378,
0.033003,0.01378,
0.034916,0.013528,
0.03682,0.012739,
0.038454,0.011485,
0.039708,0.009851,
0.040496,0.007948,
0.040748,0.006035,
0.040748,-0.006035,
0.040496,-0.007948,
0.039708,-0.009851,
0.038454,-0.011485,
0.03682,-0.012739,
0.034916,-0.013528,
0.033003,-0.01378,
-0.033003,-0.01378,
-0.034916,-0.013528,
-0.03682,-0.012739,
-0.038454,-0.011485,
-0.039708,-0.009851,
-0.040496,-0.007948,
-0.040748,-0.006035,
-0.040748,0.006035,
-0.040496,0.007948,
-0.039708,0.009851,
-0.038454,0.011485,
-0.03682,0.012739,
-0.034916,0.013528,
-0.033003,0.01378,
0*%
%ADD20C,0.06*%
%ADD44C,0.055433*%
%ADD50C,0.1*%
%ADD51C,0.086614*%
%ADD64C,0.142362*%
%ADD66R,0.05937X0.05937*%
%ADD68C,0.05937*%
%ADD72R,0.043307X0.019291*%
%ADD74R,0.043307X0.027165*%
%ADD76C,0.079528*%
%ADD78R,0.079528X0.079528*%
%ADD80C,0.043307*%
%ADD82C,0.077756*%
%ADD108C,0.063937*%
%ADD120OUTLINE7*%
%ADD123OUTLINE10*%
%ADD126OUTLINE13*%
%ADD129OUTLINE16*%
%ADD138OUTLINE25*%
%FSLAX26Y26*%
G04*
G70*
G90*
G75*
G01*
G04 BotMask*
%LPD*%
D20*
X493700Y918700D3*
X2081200Y1118700D3*
D120*
X3193700Y2260728D3*
D123*
Y2201672D3*
D120*
Y2073228D3*
D123*
Y2014172D3*
D120*
Y1923228D3*
D123*
Y1864172D3*
G36*
X3100938Y2863438D2*
D1*
X3061462D1*
D1*
X3100938D1*
G37*
G36*
X3041856Y2843700D2*
X3041772Y2842412D1*
X3041520Y2841146D1*
X3041105Y2839923D1*
X3040534Y2838766D1*
X3039817Y2837692D1*
X3038966Y2836722D1*
X3037995Y2835871D1*
X3036922Y2835153D1*
X3035764Y2834582D1*
X3034542Y2834168D1*
X3033276Y2833916D1*
X3031987Y2833831D1*
X3030699Y2833916D1*
X3029433Y2834168D1*
X3028211Y2834582D1*
X3027053Y2835153D1*
X3025980Y2835871D1*
X3025009Y2836722D1*
X3024158Y2837692D1*
X3023441Y2838766D1*
X3022870Y2839923D1*
X3022455Y2841146D1*
X3022203Y2842412D1*
X3022119Y2843700D1*
D1*
X3022203Y2844988D1*
X3022455Y2846254D1*
X3022870Y2847477D1*
X3023441Y2848634D1*
X3024158Y2849708D1*
X3025009Y2850678D1*
X3025980Y2851529D1*
X3027053Y2852247D1*
X3028211Y2852818D1*
X3029433Y2853232D1*
X3030699Y2853484D1*
X3031987Y2853569D1*
X3033276Y2853484D1*
X3034542Y2853232D1*
X3035764Y2852818D1*
X3036922Y2852247D1*
X3037995Y2851529D1*
X3038966Y2850678D1*
X3039817Y2849708D1*
X3040534Y2848634D1*
X3041105Y2847477D1*
X3041520Y2846254D1*
X3041772Y2844988D1*
X3041856Y2843700D1*
D1*
G37*
G36*
X2992644D2*
X2992559Y2842412D1*
X2992307Y2841146D1*
X2991892Y2839923D1*
X2991321Y2838766D1*
X2990604Y2837692D1*
X2989753Y2836722D1*
X2988783Y2835871D1*
X2987709Y2835153D1*
X2986551Y2834582D1*
X2985329Y2834168D1*
X2984063Y2833916D1*
X2982775Y2833831D1*
X2981487Y2833916D1*
X2980221Y2834168D1*
X2978998Y2834582D1*
X2977840Y2835153D1*
X2976767Y2835871D1*
X2975797Y2836722D1*
X2974945Y2837692D1*
X2974228Y2838766D1*
X2973657Y2839923D1*
X2973242Y2841146D1*
X2972990Y2842412D1*
X2972906Y2843700D1*
D1*
X2972990Y2844988D1*
X2973242Y2846254D1*
X2973657Y2847477D1*
X2974228Y2848634D1*
X2974945Y2849708D1*
X2975797Y2850678D1*
X2976767Y2851529D1*
X2977840Y2852247D1*
X2978998Y2852818D1*
X2980221Y2853232D1*
X2981487Y2853484D1*
X2982775Y2853569D1*
X2984063Y2853484D1*
X2985329Y2853232D1*
X2986551Y2852818D1*
X2987709Y2852247D1*
X2988783Y2851529D1*
X2989753Y2850678D1*
X2990604Y2849708D1*
X2991321Y2848634D1*
X2991892Y2847477D1*
X2992307Y2846254D1*
X2992559Y2844988D1*
X2992644Y2843700D1*
D1*
G37*
D108*
X3281200Y2643700D3*
D50*
X1043700Y618700D3*
X1843700D3*
X531200Y531200D3*
X3281200Y2881200D3*
X506200D3*
D20*
X2081200Y806200D3*
Y618700D3*
G36*
X2650938Y1448962D2*
D1*
Y1488438D1*
D1*
Y1448962D1*
G37*
G36*
X2631200Y1508044D2*
X2629912Y1508128D1*
X2628646Y1508380D1*
X2627423Y1508795D1*
X2626266Y1509366D1*
X2625192Y1510083D1*
X2624222Y1510934D1*
X2623371Y1511905D1*
X2622653Y1512978D1*
X2622082Y1514136D1*
X2621668Y1515358D1*
X2621416Y1516624D1*
X2621331Y1517913D1*
X2621416Y1519201D1*
X2621668Y1520467D1*
X2622082Y1521689D1*
X2622653Y1522847D1*
X2623371Y1523920D1*
X2624222Y1524891D1*
X2625192Y1525742D1*
X2626266Y1526459D1*
X2627423Y1527030D1*
X2628646Y1527445D1*
X2629912Y1527697D1*
X2631200Y1527781D1*
D1*
X2632488Y1527697D1*
X2633754Y1527445D1*
X2634977Y1527030D1*
X2636134Y1526459D1*
X2637208Y1525742D1*
X2638178Y1524891D1*
X2639029Y1523920D1*
X2639747Y1522847D1*
X2640318Y1521689D1*
X2640732Y1520467D1*
X2640984Y1519201D1*
X2641069Y1517913D1*
X2640984Y1516624D1*
X2640732Y1515358D1*
X2640318Y1514136D1*
X2639747Y1512978D1*
X2639029Y1511905D1*
X2638178Y1510934D1*
X2637208Y1510083D1*
X2636134Y1509366D1*
X2634977Y1508795D1*
X2633754Y1508380D1*
X2632488Y1508128D1*
X2631200Y1508044D1*
D1*
G37*
D82*
X2386712Y1056200D3*
X3075688D3*
G36*
X2725938Y2863438D2*
D1*
X2686462D1*
D1*
X2725938D1*
G37*
G36*
X2666856Y2843700D2*
X2666772Y2842412D1*
X2666520Y2841146D1*
X2666105Y2839923D1*
X2665534Y2838766D1*
X2664817Y2837692D1*
X2663966Y2836722D1*
X2662995Y2835871D1*
X2661922Y2835153D1*
X2660764Y2834582D1*
X2659542Y2834168D1*
X2658276Y2833916D1*
X2656987Y2833831D1*
X2655699Y2833916D1*
X2654433Y2834168D1*
X2653211Y2834582D1*
X2652053Y2835153D1*
X2650980Y2835871D1*
X2650009Y2836722D1*
X2649158Y2837692D1*
X2648441Y2838766D1*
X2647870Y2839923D1*
X2647455Y2841146D1*
X2647203Y2842412D1*
X2647119Y2843700D1*
D1*
X2647203Y2844988D1*
X2647455Y2846254D1*
X2647870Y2847477D1*
X2648441Y2848634D1*
X2649158Y2849708D1*
X2650009Y2850678D1*
X2650980Y2851529D1*
X2652053Y2852247D1*
X2653211Y2852818D1*
X2654433Y2853232D1*
X2655699Y2853484D1*
X2656987Y2853569D1*
X2658276Y2853484D1*
X2659542Y2853232D1*
X2660764Y2852818D1*
X2661922Y2852247D1*
X2662995Y2851529D1*
X2663966Y2850678D1*
X2664817Y2849708D1*
X2665534Y2848634D1*
X2666105Y2847477D1*
X2666520Y2846254D1*
X2666772Y2844988D1*
X2666856Y2843700D1*
D1*
G37*
D80*
X2655159Y1568700D3*
X2707415D3*
X2759672D3*
X2811930D3*
X2864187D3*
X2916443D3*
X2968700D3*
X2341617D3*
X2393875D3*
X2446132D3*
X2498388D3*
X2550645D3*
X2602902D3*
X2341617Y1518700D3*
Y1468700D3*
Y1418700D3*
Y1368700D3*
Y1318700D3*
Y1268700D3*
Y1218700D3*
X2993700Y1406200D3*
Y1356200D3*
Y1306200D3*
Y1256200D3*
Y1206200D3*
Y1156200D3*
Y1106200D3*
Y1056200D3*
X2630159Y1406200D3*
X2682415D3*
X2734672D3*
X2786930D3*
X2839187D3*
X2891443D3*
X2943700D3*
X3131200Y1481200D3*
Y1431200D3*
Y1381200D3*
Y1331200D3*
Y1281200D3*
Y1231200D3*
Y1181200D3*
Y1131200D3*
Y1881200D3*
Y1831200D3*
Y1781200D3*
Y1731200D3*
Y1681200D3*
Y1631200D3*
Y1581200D3*
Y1531200D3*
D126*
X1431200Y2635432D3*
D129*
Y2701968D3*
X2968700Y1851968D3*
D126*
Y1785432D3*
D78*
X731200Y2781200D3*
D76*
X831200D3*
X931200D3*
X1031200D3*
X1131200D3*
X1231200D3*
X1331200D3*
X1431200D3*
X1531200D3*
X1631200D3*
X1731200D3*
X1831200D3*
X1931200D3*
X2031200D3*
X2131200D3*
D74*
X1602361Y832381D3*
X1540550D3*
D72*
X1602361Y796948D3*
X1540550D3*
X1602361Y765452D3*
X1540550D3*
D74*
X1602361Y730019D3*
X1540550D3*
X1302361Y832381D3*
X1240550D3*
D72*
X1302361Y796948D3*
X1240550D3*
X1302361Y765452D3*
X1240550D3*
D74*
X1302361Y730019D3*
X1240550D3*
D44*
X493700Y1243700D3*
Y1443700D3*
Y1343700D3*
X693700Y1243700D3*
Y1443700D3*
D68*
X943700Y1743700D3*
X643700D3*
X1143700Y2543700D3*
X1343700D3*
X1443700D3*
X2043700D3*
X743700Y1743700D3*
X1943700Y2543700D3*
X843700Y1743700D3*
X1543700Y2543700D3*
X1643700D3*
X1743700D3*
X1843700D3*
X2143700D3*
X1043700Y1743700D3*
X1143700D3*
X1243700D3*
X1343700D3*
X1443700D3*
X1543700D3*
X1643700D3*
X1243700Y2543700D3*
X1043700D3*
X1743700Y1743700D3*
X1843700D3*
X1943700D3*
X2043700D3*
D66*
X2143700D3*
D64*
X493700Y1793700D3*
Y2493700D3*
D51*
X2293700Y2518700D3*
Y1766207D3*
D138*
X2753641Y2706200D3*
Y2756200D3*
Y2556200D3*
Y2606200D3*
X2558759Y2506200D3*
Y2556200D3*
Y2656200D3*
Y2706200D3*
Y2756200D3*
X2753641Y2656200D3*
Y2506200D3*
X2558759Y2456200D3*
Y2606200D3*
X2753641Y2456200D3*
M02*
