G04 DipTrace 4.3.0.1*
G04 TopAssembly.gbr*
%MOIN*%
G04 #@! TF.FileFunction,Drawing,Top*
G04 #@! TF.Part,Single*
%ADD10C,0.004724*%
%ADD22C,0.005*%
%ADD111C,0.003088*%
%FSLAX26Y26*%
G04*
G70*
G90*
G75*
G01*
G04 TopAssy*
%LPD*%
X2959054Y2237598D2*
D10*
Y2199802D1*
X3028346D1*
Y2237598D1*
X2959054D1*
X1809054Y1062598D2*
Y1024802D1*
X1878346D1*
Y1062598D1*
X1809054D1*
X2874507Y3018897D2*
D22*
X3140255D1*
Y2802361D1*
X2874507D1*
Y3018897D1*
X3171751Y2855511D2*
Y2831889D1*
X3152066Y2843700D1*
X3171751Y2855511D1*
X2497145Y2021554D2*
D10*
X2615255D1*
Y2290846D1*
X2497145D1*
Y2021554D1*
X1730806Y539861D2*
D22*
Y1114665D1*
X1181594D1*
Y539861D1*
X1575294D1*
Y476869D1*
X1730413Y539861D2*
X1646161D1*
Y476869D1*
X1575294D1*
X2806397Y1576968D2*
Y1409645D1*
X2589861D1*
Y1576968D1*
X2806397D1*
X2643011Y1378149D2*
X2619389D1*
X2631200Y1397834D1*
X2643011Y1378149D1*
X2105216Y1056200D2*
G02X2105216Y1056200I625984J0D01*
G01*
X2548720Y3018897D2*
X2765255D1*
Y2802361D1*
X2548720D1*
Y3018897D1*
X2796751Y2855511D2*
Y2831889D1*
X2777066Y2843700D1*
X2796751Y2855511D1*
X1214665Y2612302D2*
D10*
Y2650098D1*
X1147735D1*
Y2612302D1*
X1214665D1*
X699048Y2833562D2*
X2198129D1*
Y2728838D1*
X664271D1*
Y2798785D1*
X699048Y2833562D1*
X1612499Y1599606D2*
D22*
X1399901D1*
Y1237794D1*
X1612499D1*
Y1599606D1*
G36*
X1299507Y1570472D2*
X1299541Y1570986D1*
X1299641Y1571491D1*
X1299807Y1571978D1*
X1300035Y1572440D1*
X1300321Y1572868D1*
X1300660Y1573256D1*
X1301047Y1573595D1*
X1301476Y1573881D1*
X1301937Y1574109D1*
X1302425Y1574275D1*
X1302930Y1574375D1*
X1303444Y1574409D1*
X1303958Y1574375D1*
X1304463Y1574275D1*
X1304951Y1574109D1*
X1305413Y1573881D1*
X1305841Y1573595D1*
X1306228Y1573256D1*
X1306568Y1572868D1*
X1306854Y1572440D1*
X1307081Y1571978D1*
X1307247Y1571491D1*
X1307347Y1570986D1*
X1307381Y1570472D1*
D1*
X1307347Y1569958D1*
X1307247Y1569453D1*
X1307081Y1568965D1*
X1306854Y1568503D1*
X1306568Y1568075D1*
X1306228Y1567688D1*
X1305841Y1567348D1*
X1305413Y1567062D1*
X1304951Y1566834D1*
X1304463Y1566669D1*
X1303958Y1566568D1*
X1303444Y1566535D1*
X1302930Y1566568D1*
X1302425Y1566669D1*
X1301937Y1566834D1*
X1301476Y1567062D1*
X1301047Y1567348D1*
X1300660Y1567688D1*
X1300321Y1568075D1*
X1300035Y1568503D1*
X1299807Y1568965D1*
X1299641Y1569453D1*
X1299541Y1569958D1*
X1299507Y1570472D1*
D1*
G37*
X393700Y1693700D2*
D22*
Y2593700D1*
X2393700D1*
Y1693700D1*
X393700D1*
G36*
X2764172Y1742322D2*
X2763659Y1742356D1*
X2763153Y1742456D1*
X2762666Y1742622D1*
X2762204Y1742850D1*
X2761776Y1743136D1*
X2761389Y1743475D1*
X2761049Y1743862D1*
X2760763Y1744291D1*
X2760535Y1744752D1*
X2760370Y1745240D1*
X2760269Y1745745D1*
X2760235Y1746259D1*
X2760269Y1746773D1*
X2760370Y1747278D1*
X2760535Y1747766D1*
X2760763Y1748228D1*
X2761049Y1748656D1*
X2761389Y1749043D1*
X2761776Y1749382D1*
X2762204Y1749669D1*
X2762666Y1749896D1*
X2763153Y1750062D1*
X2763659Y1750162D1*
X2764172Y1750196D1*
D1*
X2764686Y1750162D1*
X2765191Y1750062D1*
X2765679Y1749896D1*
X2766141Y1749669D1*
X2766569Y1749382D1*
X2766956Y1749043D1*
X2767296Y1748656D1*
X2767582Y1748228D1*
X2767810Y1747766D1*
X2767975Y1747278D1*
X2768076Y1746773D1*
X2768109Y1746259D1*
X2768076Y1745745D1*
X2767975Y1745240D1*
X2767810Y1744752D1*
X2767582Y1744291D1*
X2767296Y1743862D1*
X2766956Y1743475D1*
X2766569Y1743136D1*
X2766141Y1742850D1*
X2765679Y1742622D1*
X2765191Y1742456D1*
X2764686Y1742356D1*
X2764172Y1742322D1*
D1*
G37*
X2852755Y1902755D2*
D22*
Y1784645D1*
X2734645Y1902755D2*
Y1784645D1*
X2852755Y1902755D2*
X2734645D1*
X2852755Y1784645D2*
X2734645D1*
X943700Y1418700D2*
D10*
X1943700D1*
Y518700D1*
X943700D1*
Y1418700D1*
X406200Y4226200D2*
X2306200D1*
Y2626200D1*
X406200D1*
Y4226200D1*
X3178081Y3198950D2*
D111*
X3169459D1*
X3166607Y3197999D1*
X3165635Y3197026D1*
X3164684Y3195125D1*
Y3192251D1*
X3165635Y3190350D1*
X3166607Y3189377D1*
X3169459Y3188427D1*
X3178081D1*
Y3208523D1*
X3151810Y3188427D2*
Y3208523D1*
X3158508Y3188427D2*
X3145111D1*
X3138935D2*
Y3208523D1*
X3125538Y3188427D2*
Y3208523D1*
X3138935Y3197999D2*
X3125538D1*
X3099922Y3188427D2*
Y3208523D1*
X3093223D1*
X3090349Y3207550D1*
X3088426Y3205649D1*
X3087475Y3203725D1*
X3086524Y3200873D1*
Y3196076D1*
X3087475Y3193202D1*
X3088426Y3191301D1*
X3090349Y3189377D1*
X3093223Y3188427D1*
X3099922D1*
X3074601Y3188449D2*
X3077475Y3189399D1*
X3079398Y3192273D1*
X3080349Y3197049D1*
Y3199923D1*
X3079398Y3204698D1*
X3077475Y3207572D1*
X3074601Y3208523D1*
X3072699D1*
X3069825Y3207572D1*
X3067924Y3204698D1*
X3066951Y3199923D1*
Y3197049D1*
X3067924Y3192273D1*
X3069825Y3189399D1*
X3072699Y3188449D1*
X3074601D1*
X3067924Y3192273D2*
X3079398Y3204698D1*
X3059825Y3206599D2*
X3060776Y3207572D1*
X3059825Y3208523D1*
X3058852Y3207572D1*
X3059825Y3206599D1*
X3041203Y3188449D2*
X3050753D1*
X3051704Y3197049D1*
X3050753Y3196098D1*
X3047879Y3195125D1*
X3045027D1*
X3042153Y3196098D1*
X3040230Y3197999D1*
X3039279Y3200873D1*
Y3202774D1*
X3040230Y3205649D1*
X3042153Y3207572D1*
X3045027Y3208523D1*
X3047879D1*
X3050753Y3207572D1*
X3051704Y3206599D1*
X3052677Y3204698D1*
X3005063Y3189875D2*
Y3207097D1*
X3013663Y3198497D2*
X2996441D1*
X2990266Y3208523D2*
X2976868Y3188449D1*
X2970693Y3198486D2*
X2959639D1*
X2928274Y3188449D2*
X2931148Y3189399D1*
X2933072Y3192273D1*
X2934023Y3197049D1*
Y3199923D1*
X2933072Y3204698D1*
X2931148Y3207572D1*
X2928274Y3208523D1*
X2926373D1*
X2923499Y3207572D1*
X2921598Y3204698D1*
X2920625Y3199923D1*
Y3197049D1*
X2921598Y3192273D1*
X2923499Y3189399D1*
X2926373Y3188449D1*
X2928274D1*
X2921598Y3192273D2*
X2933072Y3204698D1*
X2913499Y3206599D2*
X2914449Y3207572D1*
X2913499Y3208523D1*
X2912526Y3207572D1*
X2913499Y3206599D1*
X2900602Y3188449D2*
X2903476Y3189399D1*
X2905400Y3192273D1*
X2906350Y3197049D1*
Y3199923D1*
X2905400Y3204698D1*
X2903476Y3207572D1*
X2900602Y3208523D1*
X2898701D1*
X2895827Y3207572D1*
X2893926Y3204698D1*
X2892953Y3199923D1*
Y3197049D1*
X2893926Y3192273D1*
X2895827Y3189399D1*
X2898701Y3188449D1*
X2900602D1*
X2893926Y3192273D2*
X2905400Y3204698D1*
X2875303Y3188449D2*
X2884854D1*
X2885805Y3197049D1*
X2884854Y3196098D1*
X2881980Y3195125D1*
X2879128D1*
X2876254Y3196098D1*
X2874331Y3197999D1*
X2873380Y3200873D1*
Y3202774D1*
X2874331Y3205649D1*
X2876254Y3207572D1*
X2879128Y3208523D1*
X2881980D1*
X2884854Y3207572D1*
X2885805Y3206599D1*
X2886777Y3204698D1*
X2803081Y3198950D2*
X2794459D1*
X2791607Y3197999D1*
X2790635Y3197026D1*
X2789684Y3195125D1*
Y3192251D1*
X2790635Y3190350D1*
X2791607Y3189377D1*
X2794459Y3188427D1*
X2803081D1*
Y3208523D1*
X2776810Y3188427D2*
Y3208523D1*
X2783508Y3188427D2*
X2770111D1*
X2763935D2*
Y3208523D1*
X2750538Y3188427D2*
Y3208523D1*
X2763935Y3197999D2*
X2750538D1*
X2724922Y3188427D2*
Y3208523D1*
X2718223D1*
X2715349Y3207550D1*
X2713426Y3205649D1*
X2712475Y3203725D1*
X2711524Y3200873D1*
Y3196076D1*
X2712475Y3193202D1*
X2713426Y3191301D1*
X2715349Y3189377D1*
X2718223Y3188427D1*
X2724922D1*
X2699601Y3188449D2*
X2702475Y3189399D1*
X2704398Y3192273D1*
X2705349Y3197049D1*
Y3199923D1*
X2704398Y3204698D1*
X2702475Y3207572D1*
X2699601Y3208523D1*
X2697699D1*
X2694825Y3207572D1*
X2692924Y3204698D1*
X2691951Y3199923D1*
Y3197049D1*
X2692924Y3192273D1*
X2694825Y3189399D1*
X2697699Y3188449D1*
X2699601D1*
X2692924Y3192273D2*
X2704398Y3204698D1*
X2684825Y3206599D2*
X2685776Y3207572D1*
X2684825Y3208523D1*
X2683852Y3207572D1*
X2684825Y3206599D1*
X2666203Y3188449D2*
X2675753D1*
X2676704Y3197049D1*
X2675753Y3196098D1*
X2672879Y3195125D1*
X2670027D1*
X2667153Y3196098D1*
X2665230Y3197999D1*
X2664279Y3200873D1*
Y3202774D1*
X2665230Y3205649D1*
X2667153Y3207572D1*
X2670027Y3208523D1*
X2672879D1*
X2675753Y3207572D1*
X2676704Y3206599D1*
X2677677Y3204698D1*
X2630063Y3189875D2*
Y3207097D1*
X2638663Y3198497D2*
X2621441D1*
X2615266Y3208523D2*
X2601868Y3188449D1*
X2595693Y3198486D2*
X2584639D1*
X2553274Y3188449D2*
X2556148Y3189399D1*
X2558072Y3192273D1*
X2559023Y3197049D1*
Y3199923D1*
X2558072Y3204698D1*
X2556148Y3207572D1*
X2553274Y3208523D1*
X2551373D1*
X2548499Y3207572D1*
X2546598Y3204698D1*
X2545625Y3199923D1*
Y3197049D1*
X2546598Y3192273D1*
X2548499Y3189399D1*
X2551373Y3188449D1*
X2553274D1*
X2546598Y3192273D2*
X2558072Y3204698D1*
X2538499Y3206599D2*
X2539449Y3207572D1*
X2538499Y3208523D1*
X2537526Y3207572D1*
X2538499Y3206599D1*
X2525602Y3188449D2*
X2528476Y3189399D1*
X2530400Y3192273D1*
X2531350Y3197049D1*
Y3199923D1*
X2530400Y3204698D1*
X2528476Y3207572D1*
X2525602Y3208523D1*
X2523701D1*
X2520827Y3207572D1*
X2518926Y3204698D1*
X2517953Y3199923D1*
Y3197049D1*
X2518926Y3192273D1*
X2520827Y3189399D1*
X2523701Y3188449D1*
X2525602D1*
X2518926Y3192273D2*
X2530400Y3204698D1*
X2500303Y3188449D2*
X2509854D1*
X2510805Y3197049D1*
X2509854Y3196098D1*
X2506980Y3195125D1*
X2504128D1*
X2501254Y3196098D1*
X2499331Y3197999D1*
X2498380Y3200873D1*
Y3202774D1*
X2499331Y3205649D1*
X2501254Y3207572D1*
X2504128Y3208523D1*
X2506980D1*
X2509854Y3207572D1*
X2510805Y3206599D1*
X2511777Y3204698D1*
M02*
