G04 DipTrace 4.2.0.1*
G04 BottomSilk.gbr*
%MOIN*%
G04 #@! TF.FileFunction,Legend,Bot*
G04 #@! TF.Part,Single*
%ADD10C,0.004724*%
%ADD109C,0.00772*%
%FSLAX26Y26*%
G04*
G70*
G90*
G75*
G01*
G04 BotSilk*
%LPD*%
X1964626Y3197638D2*
D10*
Y3124803D1*
X1822776D1*
Y3197638D1*
X1964626Y3489764D2*
Y3562598D1*
X1822776D1*
Y3489764D1*
X1893701Y3050787D2*
Y3124803D1*
Y3562598D2*
Y3636614D1*
X939764Y4564626D2*
X1012598D1*
Y4422776D1*
X939764D1*
X647638Y4564626D2*
X574803D1*
Y4422776D1*
X647638D1*
X1086614Y4493701D2*
X1012598D1*
X574803D2*
X500787D1*
X939764Y4264626D2*
X1012598D1*
Y4122776D1*
X939764D1*
X647638Y4264626D2*
X574803D1*
Y4122776D1*
X647638D1*
X1086614Y4193701D2*
X1012598D1*
X574803D2*
X500787D1*
X939764Y3964626D2*
X1012598D1*
Y3822776D1*
X939764D1*
X647638Y3964626D2*
X574803D1*
Y3822776D1*
X647638D1*
X1086614Y3893701D2*
X1012598D1*
X574803D2*
X500787D1*
X939764Y3664626D2*
X1012598D1*
Y3522776D1*
X939764D1*
X647638Y3664626D2*
X574803D1*
Y3522776D1*
X647638D1*
X1086614Y3593701D2*
X1012598D1*
X574803D2*
X500787D1*
X939764Y3364626D2*
X1012598D1*
Y3222776D1*
X939764D1*
X647638Y3364626D2*
X574803D1*
Y3222776D1*
X647638D1*
X1086614Y3293701D2*
X1012598D1*
X574803D2*
X500787D1*
X939764Y3064626D2*
X1012598D1*
Y2922776D1*
X939764D1*
X647638Y3064626D2*
X574803D1*
Y2922776D1*
X647638D1*
X1086614Y2993701D2*
X1012598D1*
X574803D2*
X500787D1*
X939764Y2764626D2*
X1012598D1*
Y2622776D1*
X939764D1*
X647638Y2764626D2*
X574803D1*
Y2622776D1*
X647638D1*
X1086614Y2693701D2*
X1012598D1*
X574803D2*
X500787D1*
X939764Y2464626D2*
X1012598D1*
Y2322776D1*
X939764D1*
X647638Y2464626D2*
X574803D1*
Y2322776D1*
X647638D1*
X1086614Y2393701D2*
X1012598D1*
X574803D2*
X500787D1*
X939764Y2164626D2*
X1012598D1*
Y2022776D1*
X939764D1*
X647638Y2164626D2*
X574803D1*
Y2022776D1*
X647638D1*
X1086614Y2093701D2*
X1012598D1*
X574803D2*
X500787D1*
X939764Y1864626D2*
X1012598D1*
Y1722776D1*
X939764D1*
X647638Y1864626D2*
X574803D1*
Y1722776D1*
X647638D1*
X1086614Y1793701D2*
X1012598D1*
X574803D2*
X500787D1*
X3147638Y2722776D2*
X3074803D1*
Y2864626D1*
X3147638D1*
X3439764Y2722776D2*
X3512598D1*
Y2864626D1*
X3439764D1*
X3000787Y2793701D2*
X3074803D1*
X3512598D2*
X3586614D1*
X3147638Y3022776D2*
X3074803D1*
Y3164626D1*
X3147638D1*
X3439764Y3022776D2*
X3512598D1*
Y3164626D1*
X3439764D1*
X3000787Y3093701D2*
X3074803D1*
X3512598D2*
X3586614D1*
X3147638Y3322776D2*
X3074803D1*
Y3464626D1*
X3147638D1*
X3439764Y3322776D2*
X3512598D1*
Y3464626D1*
X3439764D1*
X3000787Y3393701D2*
X3074803D1*
X3512598D2*
X3586614D1*
X3147638Y3622776D2*
X3074803D1*
Y3764626D1*
X3147638D1*
X3439764Y3622776D2*
X3512598D1*
Y3764626D1*
X3439764D1*
X3000787Y3693701D2*
X3074803D1*
X3512598D2*
X3586614D1*
X3147638Y3922776D2*
X3074803D1*
Y4064626D1*
X3147638D1*
X3439764Y3922776D2*
X3512598D1*
Y4064626D1*
X3439764D1*
X3000787Y3993701D2*
X3074803D1*
X3512598D2*
X3586614D1*
X3147638Y4222776D2*
X3074803D1*
Y4364626D1*
X3147638D1*
X3439764Y4222776D2*
X3512598D1*
Y4364626D1*
X3439764D1*
X3000787Y4293701D2*
X3074803D1*
X3512598D2*
X3586614D1*
X1872776Y4289764D2*
Y4362598D1*
X2014626D1*
Y4289764D1*
X1872776Y3997638D2*
Y3924803D1*
X2014626D1*
Y3997638D1*
X1943701Y4436614D2*
Y4362598D1*
Y3924803D2*
Y3850787D1*
X1664626Y3997638D2*
Y3924803D1*
X1522776D1*
Y3997638D1*
X1664626Y4289764D2*
Y4362598D1*
X1522776D1*
Y4289764D1*
X1593701Y3850787D2*
Y3924803D1*
Y4362598D2*
Y4436614D1*
X1664626Y3197638D2*
Y3124803D1*
X1522776D1*
Y3197638D1*
X1664626Y3489764D2*
Y3562598D1*
X1522776D1*
Y3489764D1*
X1593701Y3050787D2*
Y3124803D1*
Y3562598D2*
Y3636614D1*
X2024095Y3302488D2*
D109*
Y3323988D1*
X2026526Y3331173D1*
X2028903Y3333605D1*
X2033656Y3335981D1*
X2038465D1*
X2043218Y3333605D1*
X2045650Y3331173D1*
X2048026Y3323988D1*
Y3302488D1*
X1997786D1*
X2024095Y3319234D2*
X1997786Y3335981D1*
X2036033Y3353852D2*
X2038409D1*
X2043218Y3356229D1*
X2045594Y3358605D1*
X2047971Y3363414D1*
Y3372976D1*
X2045594Y3377729D1*
X2043218Y3380105D1*
X2038409Y3382537D1*
X2033656D1*
X2028848Y3380105D1*
X2021718Y3375352D1*
X1997786Y3351420D1*
Y3384914D1*
X834914Y4497901D2*
X813414D1*
X806229Y4500333D1*
X803797Y4502710D1*
X801420Y4507463D1*
Y4512271D1*
X803797Y4517025D1*
X806229Y4519456D1*
X813414Y4521833D1*
X834914D1*
Y4471593D1*
X818167Y4497901D2*
X801420Y4471593D1*
X781173Y4521778D2*
X754920D1*
X769234Y4502654D1*
X762049D1*
X757296Y4500278D1*
X754920Y4497901D1*
X752488Y4490716D1*
Y4485963D1*
X754920Y4478778D1*
X759673Y4473970D1*
X766858Y4471593D1*
X774043D1*
X781173Y4473970D1*
X783549Y4476401D1*
X785981Y4481155D1*
X836102Y4197901D2*
X814602D1*
X807417Y4200333D1*
X804985Y4202710D1*
X802609Y4207463D1*
Y4212271D1*
X804985Y4217025D1*
X807417Y4219456D1*
X814602Y4221833D1*
X836102D1*
Y4171593D1*
X819355Y4197901D2*
X802609Y4171593D1*
X763238D2*
Y4221778D1*
X787169Y4188340D1*
X751300D1*
X834914Y3897901D2*
X813414D1*
X806229Y3900333D1*
X803797Y3902710D1*
X801420Y3907463D1*
Y3912271D1*
X803797Y3917025D1*
X806229Y3919456D1*
X813414Y3921833D1*
X834914D1*
Y3871593D1*
X818167Y3897901D2*
X801420Y3871593D1*
X757296Y3921778D2*
X781173D1*
X783549Y3900278D1*
X781173Y3902654D1*
X773988Y3905086D1*
X766858D1*
X759673Y3902654D1*
X754864Y3897901D1*
X752488Y3890716D1*
Y3885963D1*
X754864Y3878778D1*
X759673Y3873970D1*
X766858Y3871593D1*
X773988D1*
X781173Y3873970D1*
X783549Y3876401D1*
X785981Y3881155D1*
X833698Y3597901D2*
X812198D1*
X805013Y3600333D1*
X802581Y3602710D1*
X800204Y3607463D1*
Y3612271D1*
X802581Y3617025D1*
X805013Y3619456D1*
X812198Y3621833D1*
X833698D1*
Y3571593D1*
X816951Y3597901D2*
X800204Y3571593D1*
X756080Y3614648D2*
X758457Y3619401D1*
X765642Y3621778D1*
X770395D1*
X777580Y3619401D1*
X782389Y3612216D1*
X784765Y3600278D1*
Y3588340D1*
X782389Y3578778D1*
X777580Y3573970D1*
X770395Y3571593D1*
X768019D1*
X760889Y3573970D1*
X756080Y3578778D1*
X753704Y3585963D1*
Y3588340D1*
X756080Y3595525D1*
X760889Y3600278D1*
X768019Y3602654D1*
X770395D1*
X777580Y3600278D1*
X782389Y3595525D1*
X784765Y3588340D1*
X834914Y3297901D2*
X813414D1*
X806229Y3300333D1*
X803797Y3302710D1*
X801420Y3307463D1*
Y3312271D1*
X803797Y3317025D1*
X806229Y3319456D1*
X813414Y3321833D1*
X834914D1*
Y3271593D1*
X818167Y3297901D2*
X801420Y3271593D1*
X776420D2*
X752488Y3321778D1*
X785981D1*
X834886Y2997901D2*
X813386D1*
X806201Y3000333D1*
X803769Y3002710D1*
X801393Y3007463D1*
Y3012271D1*
X803769Y3017025D1*
X806201Y3019456D1*
X813386Y3021833D1*
X834886D1*
Y2971593D1*
X818139Y2997901D2*
X801393Y2971593D1*
X774015Y3021778D2*
X781145Y3019401D1*
X783577Y3014648D1*
Y3009839D1*
X781145Y3005086D1*
X776392Y3002654D1*
X766830Y3000278D1*
X759645Y2997901D1*
X754892Y2993093D1*
X752515Y2988340D1*
Y2981155D1*
X754892Y2976401D1*
X757269Y2973970D1*
X764454Y2971593D1*
X774015D1*
X781145Y2973970D1*
X783577Y2976401D1*
X785954Y2981155D1*
Y2988340D1*
X783577Y2993093D1*
X778768Y2997901D1*
X771639Y3000278D1*
X762077Y3002654D1*
X757269Y3005086D1*
X754892Y3009839D1*
Y3014648D1*
X757269Y3019401D1*
X764454Y3021778D1*
X774015D1*
X833725Y2697901D2*
X812226D1*
X805041Y2700333D1*
X802609Y2702710D1*
X800232Y2707463D1*
Y2712271D1*
X802609Y2717025D1*
X805041Y2719456D1*
X812226Y2721833D1*
X833725D1*
Y2671593D1*
X816979Y2697901D2*
X800232Y2671593D1*
X753676Y2705086D2*
X756108Y2697901D1*
X760861Y2693093D1*
X768046Y2690716D1*
X770423D1*
X777608Y2693093D1*
X782361Y2697901D1*
X784793Y2705086D1*
Y2707463D1*
X782361Y2714648D1*
X777608Y2719401D1*
X770423Y2721778D1*
X768046D1*
X760861Y2719401D1*
X756108Y2714648D1*
X753676Y2705086D1*
Y2693093D1*
X756108Y2681155D1*
X760861Y2673970D1*
X768046Y2671593D1*
X772799D1*
X779984Y2673970D1*
X782361Y2678778D1*
X848630Y2397901D2*
X827130D1*
X819945Y2400333D1*
X817513Y2402710D1*
X815137Y2407463D1*
Y2412271D1*
X817513Y2417025D1*
X819945Y2419456D1*
X827130Y2421833D1*
X848630D1*
Y2371593D1*
X831883Y2397901D2*
X815137Y2371593D1*
X799698Y2412216D2*
X794889Y2414648D1*
X787704Y2421778D1*
Y2371593D1*
X757895Y2421778D2*
X765080Y2419401D1*
X769888Y2412216D1*
X772265Y2400278D1*
Y2393093D1*
X769888Y2381155D1*
X765080Y2373970D1*
X757895Y2371593D1*
X753142D1*
X745956Y2373970D1*
X741203Y2381155D1*
X738771Y2393093D1*
Y2400278D1*
X741203Y2412216D1*
X745956Y2419401D1*
X753142Y2421778D1*
X757895D1*
X741203Y2412216D2*
X769888Y2381155D1*
X837880Y2097901D2*
X816380D1*
X809195Y2100333D1*
X806763Y2102710D1*
X804387Y2107463D1*
Y2112271D1*
X806763Y2117025D1*
X809195Y2119456D1*
X816380Y2121833D1*
X837880D1*
Y2071593D1*
X821134Y2097901D2*
X804387Y2071593D1*
X788948Y2112216D2*
X784139Y2114648D1*
X776954Y2121778D1*
Y2071593D1*
X761515Y2112216D2*
X756706Y2114648D1*
X749521Y2121778D1*
Y2071593D1*
X848630Y1797901D2*
X827130D1*
X819945Y1800333D1*
X817513Y1802710D1*
X815137Y1807463D1*
Y1812271D1*
X817513Y1817025D1*
X819945Y1819456D1*
X827130Y1821833D1*
X848630D1*
Y1771593D1*
X831883Y1797901D2*
X815137Y1771593D1*
X799698Y1812216D2*
X794889Y1814648D1*
X787704Y1821778D1*
Y1771593D1*
X769833Y1809839D2*
Y1812216D1*
X767456Y1817025D1*
X765080Y1819401D1*
X760271Y1821778D1*
X750710D1*
X745956Y1819401D1*
X743580Y1817025D1*
X741148Y1812216D1*
Y1807463D1*
X743580Y1802654D1*
X748333Y1795525D1*
X772265Y1771593D1*
X738771D1*
X3238771Y2663307D2*
X3260271D1*
X3267456Y2660875D1*
X3269888Y2658499D1*
X3272265Y2653745D1*
Y2648937D1*
X3269888Y2644184D1*
X3267456Y2641752D1*
X3260271Y2639375D1*
X3238771D1*
Y2689615D1*
X3255518Y2663307D2*
X3272265Y2689615D1*
X3287704Y2648992D2*
X3292512Y2646560D1*
X3299698Y2639431D1*
Y2689615D1*
X3319945Y2639431D2*
X3346198D1*
X3331883Y2658554D1*
X3339068D1*
X3343822Y2660930D1*
X3346198Y2663307D1*
X3348630Y2670492D1*
Y2675245D1*
X3346198Y2682430D1*
X3341445Y2687239D1*
X3334260Y2689615D1*
X3327075D1*
X3319945Y2687239D1*
X3317569Y2684807D1*
X3315137Y2680054D1*
X3237583Y2963307D2*
X3259083D1*
X3266268Y2960875D1*
X3268700Y2958499D1*
X3271077Y2953745D1*
Y2948937D1*
X3268700Y2944184D1*
X3266268Y2941752D1*
X3259083Y2939375D1*
X3237583D1*
Y2989615D1*
X3254330Y2963307D2*
X3271077Y2989615D1*
X3286516Y2948992D2*
X3291324Y2946560D1*
X3298509Y2939431D1*
Y2989615D1*
X3337880D2*
Y2939431D1*
X3313948Y2972869D1*
X3349818D1*
X3238771Y3263307D2*
X3260271D1*
X3267456Y3260875D1*
X3269888Y3258499D1*
X3272265Y3253745D1*
Y3248937D1*
X3269888Y3244184D1*
X3267456Y3241752D1*
X3260271Y3239375D1*
X3238771D1*
Y3289615D1*
X3255518Y3263307D2*
X3272265Y3289615D1*
X3287704Y3248992D2*
X3292512Y3246560D1*
X3299698Y3239431D1*
Y3289615D1*
X3343822Y3239431D2*
X3319945D1*
X3317569Y3260930D1*
X3319945Y3258554D1*
X3327130Y3256122D1*
X3334260D1*
X3341445Y3258554D1*
X3346254Y3263307D1*
X3348630Y3270492D1*
Y3275245D1*
X3346254Y3282430D1*
X3341445Y3287239D1*
X3334260Y3289615D1*
X3327130D1*
X3319945Y3287239D1*
X3317569Y3284807D1*
X3315137Y3280054D1*
X3239987Y3563307D2*
X3261487D1*
X3268672Y3560875D1*
X3271104Y3558499D1*
X3273481Y3553745D1*
Y3548937D1*
X3271104Y3544184D1*
X3268672Y3541752D1*
X3261487Y3539375D1*
X3239987D1*
Y3589615D1*
X3256734Y3563307D2*
X3273481Y3589615D1*
X3288920Y3548992D2*
X3293728Y3546560D1*
X3300913Y3539431D1*
Y3589615D1*
X3345038Y3546560D2*
X3342661Y3541807D1*
X3335476Y3539431D1*
X3330723D1*
X3323538Y3541807D1*
X3318729Y3548992D1*
X3316353Y3560930D1*
Y3572869D1*
X3318729Y3582430D1*
X3323538Y3587239D1*
X3330723Y3589615D1*
X3333099D1*
X3340229Y3587239D1*
X3345038Y3582430D1*
X3347414Y3575245D1*
Y3572869D1*
X3345038Y3565684D1*
X3340229Y3560930D1*
X3333099Y3558554D1*
X3330723D1*
X3323538Y3560930D1*
X3318729Y3565684D1*
X3316353Y3572869D1*
X3238771Y3863307D2*
X3260271D1*
X3267456Y3860875D1*
X3269888Y3858499D1*
X3272265Y3853745D1*
Y3848937D1*
X3269888Y3844184D1*
X3267456Y3841752D1*
X3260271Y3839375D1*
X3238771D1*
Y3889615D1*
X3255518Y3863307D2*
X3272265Y3889615D1*
X3287704Y3848992D2*
X3292512Y3846560D1*
X3299698Y3839431D1*
Y3889615D1*
X3324698D2*
X3348630Y3839431D1*
X3315137D1*
X3238799Y4163307D2*
X3260299D1*
X3267484Y4160875D1*
X3269916Y4158499D1*
X3272292Y4153745D1*
Y4148937D1*
X3269916Y4144184D1*
X3267484Y4141752D1*
X3260299Y4139375D1*
X3238799D1*
Y4189615D1*
X3255546Y4163307D2*
X3272292Y4189615D1*
X3287732Y4148992D2*
X3292540Y4146560D1*
X3299725Y4139431D1*
Y4189615D1*
X3327103Y4139431D2*
X3319973Y4141807D1*
X3317541Y4146560D1*
Y4151369D1*
X3319973Y4156122D1*
X3324726Y4158554D1*
X3334288Y4160930D1*
X3341473Y4163307D1*
X3346226Y4168116D1*
X3348602Y4172869D1*
Y4180054D1*
X3346226Y4184807D1*
X3343849Y4187239D1*
X3336664Y4189615D1*
X3327103D1*
X3319973Y4187239D1*
X3317541Y4184807D1*
X3315164Y4180054D1*
Y4172869D1*
X3317541Y4168116D1*
X3322349Y4163307D1*
X3329479Y4160930D1*
X3339041Y4158554D1*
X3343849Y4156122D1*
X3346226Y4151369D1*
Y4146560D1*
X3343849Y4141807D1*
X3336664Y4139431D1*
X3327103D1*
X1813307Y4197442D2*
Y4175942D1*
X1810875Y4168757D1*
X1808499Y4166325D1*
X1803745Y4163948D1*
X1798937D1*
X1794184Y4166325D1*
X1791752Y4168757D1*
X1789375Y4175942D1*
Y4197442D1*
X1839615D1*
X1813307Y4180695D2*
X1839615Y4163948D1*
X1798992Y4148509D2*
X1796560Y4143701D1*
X1789431Y4136516D1*
X1839615D1*
X1806122Y4089960D2*
X1813307Y4092392D1*
X1818116Y4097145D1*
X1820492Y4104330D1*
Y4106706D1*
X1818116Y4113891D1*
X1813307Y4118645D1*
X1806122Y4121077D1*
X1803745D1*
X1796560Y4118645D1*
X1791807Y4113891D1*
X1789431Y4106706D1*
Y4104330D1*
X1791807Y4097145D1*
X1796560Y4092392D1*
X1806122Y4089960D1*
X1818116D1*
X1830054Y4092392D1*
X1837239Y4097145D1*
X1839615Y4104330D1*
Y4109083D1*
X1837239Y4116268D1*
X1832430Y4118645D1*
X1724095Y4078022D2*
Y4099521D1*
X1726526Y4106706D1*
X1728903Y4109138D1*
X1733656Y4111515D1*
X1738465D1*
X1743218Y4109138D1*
X1745650Y4106706D1*
X1748026Y4099521D1*
Y4078022D1*
X1697786D1*
X1724095Y4094768D2*
X1697786Y4111515D1*
X1736033Y4129386D2*
X1738409D1*
X1743218Y4131763D1*
X1745594Y4134139D1*
X1747971Y4138948D1*
Y4148509D1*
X1745594Y4153262D1*
X1743218Y4155639D1*
X1738409Y4158071D1*
X1733656D1*
X1728848Y4155639D1*
X1721718Y4150886D1*
X1697786Y4126954D1*
Y4160447D1*
X1747971Y4190257D2*
X1745594Y4183072D1*
X1738409Y4178263D1*
X1726471Y4175887D1*
X1719286D1*
X1707348Y4178263D1*
X1700163Y4183072D1*
X1697786Y4190257D1*
Y4195010D1*
X1700163Y4202195D1*
X1707348Y4206948D1*
X1719286Y4209380D1*
X1726471D1*
X1738409Y4206948D1*
X1745594Y4202195D1*
X1747971Y4195010D1*
Y4190257D1*
X1738409Y4206948D2*
X1707348Y4178263D1*
X1724095Y3278022D2*
Y3299521D1*
X1726526Y3306706D1*
X1728903Y3309138D1*
X1733656Y3311515D1*
X1738465D1*
X1743218Y3309138D1*
X1745650Y3306706D1*
X1748026Y3299521D1*
Y3278022D1*
X1697786D1*
X1724095Y3294768D2*
X1697786Y3311515D1*
X1736033Y3329386D2*
X1738409D1*
X1743218Y3331763D1*
X1745594Y3334139D1*
X1747971Y3338948D1*
Y3348509D1*
X1745594Y3353262D1*
X1743218Y3355639D1*
X1738409Y3358071D1*
X1733656D1*
X1728848Y3355639D1*
X1721718Y3350886D1*
X1697786Y3326954D1*
Y3360447D1*
X1736033Y3378319D2*
X1738409D1*
X1743218Y3380695D1*
X1745594Y3383072D1*
X1747971Y3387880D1*
Y3397442D1*
X1745594Y3402195D1*
X1743218Y3404572D1*
X1738409Y3407003D1*
X1733656D1*
X1728848Y3404572D1*
X1721718Y3399818D1*
X1697786Y3375887D1*
Y3409380D1*
M02*
