G04 DipTrace 4.2.0.1*
G04 TopMask.gbr*
%MOIN*%
G04 #@! TF.FileFunction,Soldermask,Top*
G04 #@! TF.Part,Single*
%ADD48C,0.11811*%
%ADD63R,0.069934X0.069934*%
%ADD65C,0.069934*%
%ADD67C,0.071942*%
%ADD69C,0.079528*%
%ADD71C,0.055433*%
%ADD73C,0.049606*%
%ADD75R,0.062992X0.161417*%
%ADD77C,0.062992*%
%ADD79R,0.161417X0.062992*%
%ADD81C,0.079528*%
%ADD83R,0.079528X0.079528*%
%ADD85C,0.068337*%
%ADD87R,0.068337X0.068337*%
%ADD89C,0.067717*%
%ADD91R,0.067717X0.067717*%
%ADD93C,0.066535*%
%ADD95R,0.066535X0.066535*%
%ADD97C,0.051181*%
%ADD99R,0.051181X0.051181*%
%ADD101C,0.049213*%
%ADD103R,0.049213X0.049213*%
%ADD105R,0.054331X0.054331*%
%ADD107C,0.054331*%
%FSLAX26Y26*%
G04*
G70*
G90*
G75*
G01*
G04 TopMask*
%LPD*%
D107*
X2116142Y1398661D3*
X2171260Y1688740D3*
D105*
X2043701Y2001575D3*
D107*
Y2198425D3*
D105*
X1095276Y1543701D3*
D107*
X1292126D3*
D105*
X1595276D3*
D107*
X1792126D3*
X2721260Y4388740D3*
X2666142Y4098661D3*
D103*
X1454331Y1093701D3*
D101*
X1533071D3*
D99*
X1784252Y893701D3*
D97*
X2603150D3*
D103*
X1154331Y1093701D3*
D101*
X1233071D3*
D95*
X2493701Y2300000D3*
D93*
Y1887402D3*
D48*
X543701Y943701D3*
X3093701Y4498031D3*
Y1993701D3*
D91*
X1443701Y543701D3*
D89*
X1543701D3*
X1643701D3*
X1743701D3*
D91*
X1893701D3*
D89*
X1993701D3*
X2093701D3*
X2193701D3*
X2293701D3*
X2393701D3*
X2493701D3*
X2593701D3*
X2693701D3*
X2793701D3*
X2893701D3*
X2993701D3*
X3093701D3*
X3193701D3*
X3293701D3*
D91*
X3543701D3*
D89*
Y643701D3*
Y743701D3*
Y843701D3*
D87*
Y993701D3*
D85*
X3543699Y1093701D3*
X3543697Y1193701D3*
D83*
X3543701Y1593701D3*
D81*
Y1693701D3*
D83*
X3543702Y1943701D3*
D81*
X3543700Y2043701D3*
D79*
X743701Y4543701D3*
D77*
X2688181Y3888496D3*
D79*
X743701Y4393701D3*
D77*
X2688181Y3388496D3*
D79*
X743701Y4136220D3*
Y3986220D3*
Y3728740D3*
Y3578740D3*
Y3321260D3*
Y3171260D3*
Y2913780D3*
Y2763780D3*
Y2506299D3*
Y2356299D3*
Y2098819D3*
Y1948819D3*
Y1691339D3*
Y1541339D3*
Y1291732D3*
Y1141732D3*
D75*
X1093701Y643701D3*
X1243701D3*
D79*
X3443701Y2293701D3*
Y2443701D3*
Y2701181D3*
Y2851181D3*
Y3108661D3*
Y3258661D3*
Y3516142D3*
Y3666142D3*
Y3923622D3*
Y4073622D3*
Y4331102D3*
Y4481102D3*
D77*
X1993701Y1143701D3*
X1793701D3*
D73*
X2693701Y3066535D3*
Y2420866D3*
X1893701Y3020866D3*
Y3666535D3*
X1116535Y4493701D3*
X470866D3*
X1116535Y4193701D3*
X470866D3*
X1116535Y3893701D3*
X470866D3*
X1116535Y3593701D3*
X470866D3*
X1116535Y3293701D3*
X470866D3*
X1116535Y2993701D3*
X470866D3*
X1116535Y2693701D3*
X470866D3*
X1116535Y2393701D3*
X470866D3*
X1116535Y2093701D3*
X470866D3*
X1116535Y1793701D3*
X470866D3*
X2970866Y2793701D3*
X3616535D3*
X2970866Y3093701D3*
X3616535D3*
X2970866Y3393701D3*
X3616535D3*
X2970866Y3693701D3*
X3616535D3*
X2970866Y3993701D3*
X3616535D3*
X2970866Y4293701D3*
X3616535D3*
X1943701Y4466535D3*
Y3820866D3*
X1593701D3*
Y4466535D3*
X2868701Y1820866D3*
Y2466535D3*
X1593701Y3020866D3*
Y3666535D3*
D71*
X843701Y793701D3*
Y593701D3*
Y693701D3*
D73*
X2220866Y1143701D3*
X2866535D3*
D83*
X1443701Y2893701D3*
D81*
Y2993701D3*
Y3093701D3*
Y3193701D3*
Y3293701D3*
Y3393701D3*
Y3493701D3*
Y3593701D3*
Y3693701D3*
Y3793701D3*
Y3893701D3*
Y3993701D3*
D83*
Y4093701D3*
D81*
Y4193701D3*
Y4293701D3*
Y4393701D3*
D69*
X2243701Y3993701D3*
D81*
Y3893701D3*
Y3793701D3*
Y3693701D3*
Y3593701D3*
Y3493701D3*
Y3393701D3*
Y3293701D3*
Y3193701D3*
Y3093701D3*
Y2993701D3*
Y2893701D3*
D69*
X2543701Y1393701D3*
X2643701D3*
X2743701D3*
X2843701D3*
X2943701D3*
X3043701D3*
X3143701D3*
X2543701Y1693701D3*
X2643701D3*
X2743701D3*
X2843701D3*
X2943701D3*
X3043701D3*
X3143701D3*
D67*
X3093701Y743701D3*
X2993701D3*
X3193701Y1043701D3*
X3093701D3*
X3193701Y743701D3*
X2893701Y1043701D3*
Y743701D3*
X2993701Y1043701D3*
D65*
X1593701Y2143701D3*
Y2243701D3*
Y2343701D3*
Y2043701D3*
X1293701Y2143701D3*
Y2043701D3*
Y2243701D3*
D63*
Y2343701D3*
M02*
