G04 DipTrace 4.3.0.1*
G04 BottomAssembly.gbr*
%MOIN*%
G04 #@! TF.FileFunction,Drawing,Bot*
G04 #@! TF.Part,Single*
%ADD10C,0.004724*%
%ADD22C,0.005*%
%FSLAX26Y26*%
G04*
G70*
G90*
G75*
G01*
G04 BotAssy*
%LPD*%
X3174802Y2196554D2*
D10*
X3212598D1*
Y2265846D1*
X3174802D1*
Y2196554D1*
Y2009054D2*
X3212598D1*
Y2078346D1*
X3174802D1*
Y2009054D1*
Y1859054D2*
X3212598D1*
Y1928346D1*
X3174802D1*
Y1859054D1*
X1450098Y2702165D2*
X1412302D1*
Y2635235D1*
X1450098D1*
Y2702165D1*
X2949802Y1785235D2*
X2987598D1*
Y1852165D1*
X2949802D1*
Y1785235D1*
X1541928Y844192D2*
D22*
X1600983D1*
Y718208D1*
X1541928D1*
Y844192D1*
G36*
X1650196Y828444D2*
X1649682Y828478D1*
X1649177Y828578D1*
X1648689Y828744D1*
X1648228Y828972D1*
X1647799Y829258D1*
X1647412Y829597D1*
X1647073Y829984D1*
X1646787Y830413D1*
X1646559Y830874D1*
X1646393Y831362D1*
X1646293Y831867D1*
X1646259Y832381D1*
X1646293Y832895D1*
X1646393Y833400D1*
X1646559Y833888D1*
X1646787Y834350D1*
X1647073Y834778D1*
X1647412Y835165D1*
X1647799Y835505D1*
X1648228Y835791D1*
X1648689Y836018D1*
X1649177Y836184D1*
X1649682Y836284D1*
X1650196Y836318D1*
D1*
X1650710Y836284D1*
X1651215Y836184D1*
X1651703Y836018D1*
X1652165Y835791D1*
X1652593Y835505D1*
X1652980Y835165D1*
X1653320Y834778D1*
X1653606Y834350D1*
X1653833Y833888D1*
X1653999Y833400D1*
X1654099Y832895D1*
X1654133Y832381D1*
X1654099Y831867D1*
X1653999Y831362D1*
X1653833Y830874D1*
X1653606Y830413D1*
X1653320Y829984D1*
X1652980Y829597D1*
X1652593Y829258D1*
X1652165Y828972D1*
X1651703Y828744D1*
X1651215Y828578D1*
X1650710Y828478D1*
X1650196Y828444D1*
D1*
G37*
X1241928Y844192D2*
D22*
X1300983D1*
Y718208D1*
X1241928D1*
Y844192D1*
G36*
X1350196Y828444D2*
X1349682Y828478D1*
X1349177Y828578D1*
X1348689Y828744D1*
X1348228Y828972D1*
X1347799Y829258D1*
X1347412Y829597D1*
X1347073Y829984D1*
X1346787Y830413D1*
X1346559Y830874D1*
X1346393Y831362D1*
X1346293Y831867D1*
X1346259Y832381D1*
X1346293Y832895D1*
X1346393Y833400D1*
X1346559Y833888D1*
X1346787Y834350D1*
X1347073Y834778D1*
X1347412Y835165D1*
X1347799Y835505D1*
X1348228Y835791D1*
X1348689Y836018D1*
X1349177Y836184D1*
X1349682Y836284D1*
X1350196Y836318D1*
D1*
X1350710Y836284D1*
X1351215Y836184D1*
X1351703Y836018D1*
X1352165Y835791D1*
X1352593Y835505D1*
X1352980Y835165D1*
X1353320Y834778D1*
X1353606Y834350D1*
X1353833Y833888D1*
X1353999Y833400D1*
X1354099Y832895D1*
X1354133Y832381D1*
X1354099Y831867D1*
X1353999Y831362D1*
X1353833Y830874D1*
X1353606Y830413D1*
X1353320Y829984D1*
X1352980Y829597D1*
X1352593Y829258D1*
X1352165Y828972D1*
X1351703Y828744D1*
X1351215Y828578D1*
X1350710Y828478D1*
X1350196Y828444D1*
D1*
G37*
X2732972Y2776476D2*
D22*
X2579428D1*
Y2435924D1*
X2732972D1*
Y2776476D1*
M02*
