M48
INCH
T01C0.0191
T02C0.0197
T03C0.0236
T04C0.0315
T05C0.0354
T06C0.04
T07C0.0492
T08C0.0504
T09C0.0866
T10C0.0984
T11C0.1
%
T01
X+027187Y+020062
X+029062Y+018562
X+028812Y+017812
X+028312Y+017312
X+029372Y+017342
X+030362Y+019002
X+030791Y+020017
X+030812Y+023243
X+031937Y+023243
X+026570Y+027104
X+024870Y+027562
X+024495Y+027104
X+024312Y+024937
X+024187Y+020562
X+024187Y+019437
X+027642Y+016445
X+021407Y+014662
X+019062Y+011437
X+017687Y+011312
X+017612Y+010311
X+018142Y+009916
X+016562Y+011187
X+016062Y+011062
X+015687Y+011437
X+016562Y+012183
X+017402Y+013812
X+015562Y+013812
X+014691Y+013937
X+014296Y+014437
X+015312Y+014937
X+016564Y+016246
X+012832Y+013437
X+012406Y+012222
X+013562Y+011557
X+014007Y+012222
X+013167Y+010365
X+012406Y+009492
X+013562Y+009187
X+014062Y+008562
X+013937Y+007312
X+012612Y+005667
X+015782Y+006074
X+016312Y+005687
X+016562Y+007437
X+017612Y+007517
X+015812Y+009562
X+014963Y+009827
X+014433Y+009827
X+009197Y+012617
X+010467Y+015332
X+009937Y+015937
X+011562Y+015937
X+012909Y+020560
X+013909Y+023275
X+012437Y+024812
X+010437Y+027062
X+015312Y+026312
X+008802Y+004700
T02
X+030812Y+028437
X+030320Y+028437
X+029828Y+028437
X+029336Y+028437
X+027062Y+028437
X+026570Y+028437
X+026078Y+028437
X+026312Y+015179
X+026312Y+014687
T03
X+026552Y+015687
X+027074Y+015687
X+027597Y+015687
X+028119Y+015687
X+028642Y+015687
X+029164Y+015687
X+029687Y+015687
X+031312Y+015812
X+031312Y+016312
X+031312Y+016812
X+031312Y+017312
X+031312Y+017812
X+031312Y+018312
X+031312Y+018812
X+031312Y+015312
X+031312Y+014812
X+031312Y+014312
X+031312Y+013812
X+031312Y+013312
X+031312Y+012812
X+031312Y+012312
X+031312Y+011812
X+031312Y+011312
X+029937Y+011562
X+029937Y+012062
X+029937Y+012562
X+029937Y+013062
X+029937Y+013562
X+029937Y+014062
X+029437Y+014062
X+028914Y+014062
X+028392Y+014062
X+027869Y+014062
X+027347Y+014062
X+026824Y+014062
X+026302Y+014062
X+026029Y+015687
X+025506Y+015687
X+024984Y+015687
X+024461Y+015687
X+023939Y+015687
X+023416Y+015687
X+023416Y+015187
X+023416Y+014687
X+023416Y+014187
X+023416Y+013687
X+023416Y+013187
X+023416Y+012687
X+023416Y+012187
X+029937Y+011062
X+029937Y+010562
T04
X+004937Y+012437
X+004937Y+013437
X+004937Y+014437
X+006937Y+014437
X+006937Y+012437
T05
X+009437Y+017437
X+010437Y+017437
X+011437Y+017437
X+012437Y+017437
X+013437Y+017437
X+014437Y+017437
X+015437Y+017437
X+016437Y+017437
X+017437Y+017437
X+018437Y+017437
X+019437Y+017437
X+020437Y+017437
X+021437Y+017437
X+021437Y+025437
X+020437Y+025437
X+019437Y+025437
X+018437Y+025437
X+017437Y+025437
X+016437Y+025437
X+015437Y+025437
X+014437Y+025437
X+013437Y+025437
X+012437Y+025437
X+011437Y+025437
X+010437Y+025437
X+008437Y+017437
X+007437Y+017437
X+006437Y+017437
T06
X+004937Y+009187
X+020812Y+008062
X+020812Y+006187
X+020812Y+011187
X+032812Y+026437
T07
X+023867Y+010562
X+030757Y+010562
T08
X+007312Y+027812
X+008312Y+027812
X+009312Y+027812
X+010312Y+027812
X+011312Y+027812
X+012312Y+027812
X+013312Y+027812
X+014312Y+027812
X+015312Y+027812
X+016312Y+027812
X+017312Y+027812
X+018312Y+027812
X+019312Y+027812
X+020312Y+027812
X+021312Y+027812
T09
X+022937Y+025187
X+022937Y+017662
T10
X+004937Y+017937
X+004937Y+024937
T11
X+010437Y+006187
X+005312Y+005312
X+018437Y+006187
X+005062Y+028812
X+032812Y+028812
T00
M30
