G04 DipTrace 4.3.0.1*
G04 TopPaste.gbr*
%MOIN*%
G04 #@! TF.FileFunction,Paste,Top*
G04 #@! TF.Part,Single*
%AMOUTLINE2*
4,1,28,
-0.008336,0.017126,
0.008336,0.017126,
0.010192,0.016882,
0.011803,0.016215,
0.013185,0.015154,
0.014246,0.013771,
0.014913,0.012161,
0.015157,0.010304,
0.015157,-0.010304,
0.014913,-0.012161,
0.014246,-0.013771,
0.013185,-0.015154,
0.011803,-0.016215,
0.010192,-0.016882,
0.008336,-0.017126,
-0.008336,-0.017126,
-0.010192,-0.016882,
-0.011803,-0.016215,
-0.013185,-0.015154,
-0.014246,-0.013771,
-0.014913,-0.012161,
-0.015157,-0.010304,
-0.015157,0.010304,
-0.014913,0.012161,
-0.014246,0.013771,
-0.013185,0.015154,
-0.011803,0.016215,
-0.010192,0.016882,
-0.008336,0.017126,
0*%
%AMOUTLINE5*
4,1,28,
0.008336,-0.017126,
-0.008336,-0.017126,
-0.010192,-0.016882,
-0.011803,-0.016215,
-0.013185,-0.015154,
-0.014246,-0.013771,
-0.014913,-0.012161,
-0.015157,-0.010304,
-0.015157,0.010304,
-0.014913,0.012161,
-0.014246,0.013771,
-0.013185,0.015154,
-0.011803,0.016215,
-0.010192,0.016882,
-0.008336,0.017126,
0.008336,0.017126,
0.010192,0.016882,
0.011803,0.016215,
0.013185,0.015154,
0.014246,0.013771,
0.014913,0.012161,
0.015157,0.010304,
0.015157,-0.010304,
0.014913,-0.012161,
0.014246,-0.013771,
0.013185,-0.015154,
0.011803,-0.016215,
0.010192,-0.016882,
0.008336,-0.017126,
0*%
%AMOUTLINE20*
4,1,28,
0.008336,-0.019094,
-0.008336,-0.019094,
-0.010091,-0.018863,
-0.011606,-0.018236,
-0.012907,-0.017237,
-0.013905,-0.015936,
-0.014533,-0.014421,
-0.014764,-0.012666,
-0.014764,0.012666,
-0.014533,0.014421,
-0.013905,0.015936,
-0.012907,0.017237,
-0.011606,0.018236,
-0.010091,0.018863,
-0.008336,0.019094,
0.008336,0.019094,
0.010091,0.018863,
0.011606,0.018236,
0.012907,0.017237,
0.013905,0.015936,
0.014533,0.014421,
0.014764,0.012666,
0.014764,-0.012666,
0.014533,-0.014421,
0.013905,-0.015936,
0.012907,-0.017237,
0.011606,-0.018236,
0.010091,-0.018863,
0.008336,-0.019094,
0*%
%AMOUTLINE23*
4,1,28,
-0.008336,0.019094,
0.008336,0.019094,
0.010091,0.018863,
0.011606,0.018236,
0.012907,0.017237,
0.013905,0.015936,
0.014533,0.014421,
0.014764,0.012666,
0.014764,-0.012666,
0.014533,-0.014421,
0.013905,-0.015936,
0.012907,-0.017237,
0.011606,-0.018236,
0.010091,-0.018863,
0.008336,-0.019094,
-0.008336,-0.019094,
-0.010091,-0.018863,
-0.011606,-0.018236,
-0.012907,-0.017237,
-0.013905,-0.015936,
-0.014533,-0.014421,
-0.014764,-0.012666,
-0.014764,0.012666,
-0.014533,0.014421,
-0.013905,0.015936,
-0.012907,0.017237,
-0.011606,0.018236,
-0.010091,0.018863,
-0.008336,0.019094,
0*%
%AMOUTLINE29*
4,1,4,
0.014567,-0.003346,
-0.014567,-0.003346,
-0.014567,0.003346,
0.014567,0.003346,
0.014567,-0.003346,
0*%
%AMOUTLINE32*
4,1,4,
-0.003346,-0.014567,
-0.003346,0.014567,
0.003346,0.014567,
0.003346,-0.014567,
-0.003346,-0.014567,
0*%
%ADD71R,0.046063X0.025984*%
%ADD85R,0.041732X0.055118*%
%ADD87R,0.019685X0.041339*%
%ADD89R,0.021654X0.047244*%
%ADD91R,0.021654X0.059055*%
%ADD93R,0.021654X0.080315*%
%ADD95R,0.03937X0.01378*%
%ADD97R,0.049213X0.066929*%
%ADD99R,0.041339X0.01378*%
%ADD101R,0.027559X0.051181*%
%ADD115OUTLINE2*%
%ADD118OUTLINE5*%
%ADD133OUTLINE20*%
%ADD136OUTLINE23*%
%ADD142OUTLINE29*%
%ADD145OUTLINE32*%
%FSLAX26Y26*%
G04*
G70*
G90*
G75*
G01*
G04 TopPaste*
%LPD*%
D115*
X2964172Y2218700D3*
D118*
X3023228D3*
D115*
X1814172Y1043700D3*
D118*
X1873228D3*
D101*
X1533562Y644192D3*
X1490255D3*
X1446948D3*
X1403641D3*
X1360334D3*
X1317027D3*
X1273720D3*
X1230413D3*
D99*
X1192420Y1109743D3*
D97*
X1195373Y563483D3*
D95*
X1191436Y1083759D3*
D93*
X1182578Y824507D3*
D91*
Y1024507D3*
D89*
X1729822Y1100885D3*
D87*
X1730806Y867617D3*
D85*
X1719783Y553641D3*
D133*
X1214468Y2631200D3*
D136*
X1147932D3*
D71*
X1356200Y1543700D3*
X1656200D3*
X1356200Y1493700D3*
X1656200D3*
X1356200Y1443700D3*
X1656200D3*
X1356200Y1393700D3*
X1656200D3*
X1356200Y1343700D3*
X1656200D3*
X1356200Y1293700D3*
X1656200D3*
G36*
X2779920Y1829920D2*
X2807480D1*
Y1857480D1*
X2779920D1*
Y1829920D1*
G37*
D142*
X2737204Y1814172D3*
D145*
X2764172Y1787204D3*
X2783857D3*
D142*
X2850196Y1853543D3*
D145*
X2823228Y1787204D3*
D142*
X2737204Y1853543D3*
D145*
X2803543Y1900196D3*
Y1787204D3*
X2823228Y1900196D3*
D142*
X2850196Y1814172D3*
Y1833857D3*
Y1873228D3*
X2737204D3*
Y1833857D3*
D145*
X2783857Y1900196D3*
X2764172D3*
M02*
