G04 DipTrace 4.3.0.1*
G04 TopSilk.gbr*
%MOIN*%
G04 #@! TF.FileFunction,Legend,Top*
G04 #@! TF.Part,Single*
%ADD10C,0.004724*%
%ADD19O,1.18X0.78*%
%ADD22C,0.005*%
%ADD37C,0.005906*%
%ADD110C,0.00772*%
%ADD112C,0.006176*%
%FSLAX26Y26*%
G04*
G70*
G90*
G75*
G01*
G04 TopSilk*
%LPD*%
X2988188Y2237598D2*
D10*
X2999212D1*
X2988188Y2199802D2*
X2999212D1*
X1838188Y1062598D2*
X1849212D1*
X1838188Y1024802D2*
X1849212D1*
X2874507Y3018897D2*
D22*
X3140255D1*
Y2802361D1*
X2874507D1*
Y3018897D1*
X3171751Y2855511D2*
Y2831889D1*
X3152066Y2843700D1*
X3171751Y2855511D1*
X2497145Y2021554D2*
D10*
X2615255D1*
Y2290846D1*
X2497145D1*
Y2021554D1*
X1229035Y1114665D2*
D22*
X1701869D1*
X1730806Y1063877D2*
Y904035D1*
Y824507D2*
Y598917D1*
X1181594Y980806D2*
Y886712D1*
Y761515D2*
Y619389D1*
X1533352Y594586D2*
G02X1533352Y594586I3950J0D01*
G01*
X2806397Y1576968D2*
Y1409645D1*
X2589861D1*
Y1576968D1*
X2806397D1*
X2643011Y1378149D2*
X2619389D1*
X2631200Y1397834D1*
X2643011Y1378149D1*
X2105216Y1056200D2*
G02X2105216Y1056200I625984J0D01*
G01*
X2548720Y3018897D2*
X2765255D1*
Y2802361D1*
X2548720D1*
Y3018897D1*
X2796751Y2855511D2*
Y2831889D1*
X2777066Y2843700D1*
X2796751Y2855511D1*
X1189074Y2612302D2*
D37*
X1173326D1*
X1189074Y2650098D2*
X1173326D1*
X664271Y2833562D2*
D10*
Y2728838D1*
X2198129D1*
Y2833562D1*
X664271D1*
G36*
X721515Y2850334D2*
X721598Y2851598D1*
X721845Y2852841D1*
X722252Y2854040D1*
X722813Y2855176D1*
X723516Y2856230D1*
X724352Y2857182D1*
X725304Y2858018D1*
X726357Y2858721D1*
X727494Y2859282D1*
X728693Y2859689D1*
X729936Y2859936D1*
X731200Y2860019D1*
X732464Y2859936D1*
X733707Y2859689D1*
X734906Y2859282D1*
X736043Y2858721D1*
X737096Y2858018D1*
X738048Y2857182D1*
X738884Y2856230D1*
X739587Y2855176D1*
X740148Y2854040D1*
X740555Y2852841D1*
X740802Y2851598D1*
X740885Y2850334D1*
D1*
X740802Y2849070D1*
X740555Y2847827D1*
X740148Y2846628D1*
X739587Y2845491D1*
X738884Y2844438D1*
X738048Y2843486D1*
X737096Y2842650D1*
X736043Y2841946D1*
X734906Y2841386D1*
X733707Y2840979D1*
X732464Y2840732D1*
X731200Y2840649D1*
X729936Y2840732D1*
X728693Y2840979D1*
X727494Y2841386D1*
X726357Y2841946D1*
X725304Y2842650D1*
X724352Y2843486D1*
X723516Y2844438D1*
X722813Y2845491D1*
X722252Y2846628D1*
X721845Y2847827D1*
X721598Y2849070D1*
X721515Y2850334D1*
D1*
G37*
X1612499Y1599606D2*
D22*
X1399901D1*
Y1237794D2*
X1612499D1*
G36*
X1299507Y1570472D2*
X1299541Y1570986D1*
X1299641Y1571491D1*
X1299807Y1571978D1*
X1300035Y1572440D1*
X1300321Y1572868D1*
X1300660Y1573256D1*
X1301047Y1573595D1*
X1301476Y1573881D1*
X1301937Y1574109D1*
X1302425Y1574275D1*
X1302930Y1574375D1*
X1303444Y1574409D1*
X1303958Y1574375D1*
X1304463Y1574275D1*
X1304951Y1574109D1*
X1305413Y1573881D1*
X1305841Y1573595D1*
X1306228Y1573256D1*
X1306568Y1572868D1*
X1306854Y1572440D1*
X1307081Y1571978D1*
X1307247Y1571491D1*
X1307347Y1570986D1*
X1307381Y1570472D1*
D1*
X1307347Y1569958D1*
X1307247Y1569453D1*
X1307081Y1568965D1*
X1306854Y1568503D1*
X1306568Y1568075D1*
X1306228Y1567688D1*
X1305841Y1567348D1*
X1305413Y1567062D1*
X1304951Y1566834D1*
X1304463Y1566669D1*
X1303958Y1566568D1*
X1303444Y1566535D1*
X1302930Y1566568D1*
X1302425Y1566669D1*
X1301937Y1566834D1*
X1301476Y1567062D1*
X1301047Y1567348D1*
X1300660Y1567688D1*
X1300321Y1568075D1*
X1300035Y1568503D1*
X1299807Y1568965D1*
X1299641Y1569453D1*
X1299541Y1569958D1*
X1299507Y1570472D1*
D1*
G37*
X1399901Y1599606D2*
D22*
Y1237794D1*
X396850Y1540550D2*
Y1146850D1*
X790550D1*
Y1540550D1*
X396850D1*
X393700Y1693700D2*
Y2593700D1*
X2393700D1*
Y1693700D1*
X393700D1*
G36*
X2141731Y1672046D2*
X2141765Y1672560D1*
X2141866Y1673065D1*
X2142031Y1673553D1*
X2142259Y1674015D1*
X2142545Y1674443D1*
X2142885Y1674830D1*
X2143272Y1675170D1*
X2143700Y1675456D1*
X2144162Y1675684D1*
X2144650Y1675849D1*
X2145155Y1675950D1*
X2145669Y1675983D1*
X2146182Y1675950D1*
X2146687Y1675849D1*
X2147175Y1675684D1*
X2147637Y1675456D1*
X2148065Y1675170D1*
X2148452Y1674830D1*
X2148792Y1674443D1*
X2149078Y1674015D1*
X2149306Y1673553D1*
X2149471Y1673065D1*
X2149572Y1672560D1*
X2149606Y1672046D1*
D1*
X2149572Y1671533D1*
X2149471Y1671027D1*
X2149306Y1670540D1*
X2149078Y1670078D1*
X2148792Y1669650D1*
X2148452Y1669263D1*
X2148065Y1668923D1*
X2147637Y1668637D1*
X2147175Y1668409D1*
X2146687Y1668244D1*
X2146182Y1668143D1*
X2145669Y1668109D1*
X2145155Y1668143D1*
X2144650Y1668244D1*
X2144162Y1668409D1*
X2143700Y1668637D1*
X2143272Y1668923D1*
X2142885Y1669263D1*
X2142545Y1669650D1*
X2142259Y1670078D1*
X2142031Y1670540D1*
X2141866Y1671027D1*
X2141765Y1671533D1*
X2141731Y1672046D1*
D1*
G37*
G36*
X2764172Y1742322D2*
X2763659Y1742356D1*
X2763153Y1742456D1*
X2762666Y1742622D1*
X2762204Y1742850D1*
X2761776Y1743136D1*
X2761389Y1743475D1*
X2761049Y1743862D1*
X2760763Y1744291D1*
X2760535Y1744752D1*
X2760370Y1745240D1*
X2760269Y1745745D1*
X2760235Y1746259D1*
X2760269Y1746773D1*
X2760370Y1747278D1*
X2760535Y1747766D1*
X2760763Y1748228D1*
X2761049Y1748656D1*
X2761389Y1749043D1*
X2761776Y1749382D1*
X2762204Y1749669D1*
X2762666Y1749896D1*
X2763153Y1750062D1*
X2763659Y1750162D1*
X2764172Y1750196D1*
D1*
X2764686Y1750162D1*
X2765191Y1750062D1*
X2765679Y1749896D1*
X2766141Y1749669D1*
X2766569Y1749382D1*
X2766956Y1749043D1*
X2767296Y1748656D1*
X2767582Y1748228D1*
X2767810Y1747766D1*
X2767975Y1747278D1*
X2768076Y1746773D1*
X2768109Y1746259D1*
X2768076Y1745745D1*
X2767975Y1745240D1*
X2767810Y1744752D1*
X2767582Y1744291D1*
X2767296Y1743862D1*
X2766956Y1743475D1*
X2766569Y1743136D1*
X2766141Y1742850D1*
X2765679Y1742622D1*
X2765191Y1742456D1*
X2764686Y1742356D1*
X2764172Y1742322D1*
D1*
G37*
X2852755Y1902755D2*
D22*
Y1891141D1*
X2734645Y1902755D2*
Y1891141D1*
X2852755Y1784645D2*
Y1796259D1*
X2734645Y1784645D2*
Y1796259D1*
X2852755Y1902755D2*
X2841141D1*
X2734645D2*
X2746259D1*
X2852755Y1784645D2*
X2841141D1*
X2734645D2*
X2746259D1*
D19*
X2758700Y941200D3*
G36*
X2510177Y2445060D2*
X2512802Y2442435D1*
Y2437186D1*
X2513795Y2435420D1*
X2513663Y2434238D1*
X2512802Y2433249D1*
Y2431936D1*
X2510177Y2429312D1*
X2506240Y2427999D1*
X2502303D1*
X2498366Y2429312D1*
X2493117Y2431936D1*
X2481306Y2443747D1*
Y2421438D1*
X2483930D1*
X2486555Y2422750D1*
X2487960Y2423533D1*
X2489099Y2423449D1*
X2493117Y2421438D1*
X2497054Y2420125D1*
X2512802D1*
X2518051Y2421438D1*
X2521988Y2422750D1*
X2527238Y2427999D1*
X2528550Y2430624D1*
Y2443747D1*
X2525925Y2446372D1*
X2524534Y2444947D1*
X2523854Y2445160D1*
X2523301Y2446372D1*
Y2448997D1*
X2520676Y2451621D1*
X2515427Y2454246D1*
X2503615Y2458183D1*
X2499678Y2462120D1*
Y2463432D1*
X2498366Y2464745D1*
Y2472619D1*
X2499678Y2473931D1*
X2499934Y2474861D1*
X2500991Y2476556D1*
X2504928Y2477868D1*
X2507553Y2479180D1*
X2510177D1*
X2518051Y2475243D1*
X2529862Y2463432D1*
Y2485742D1*
X2528550D1*
X2525925Y2484430D1*
X2523738Y2483117D1*
X2521551D1*
X2519364Y2484430D1*
X2511490Y2487054D1*
X2499678D1*
X2493117Y2485742D1*
X2482618Y2477868D1*
X2481306Y2475243D1*
Y2466057D1*
X2482618Y2462120D1*
X2485243Y2458183D1*
X2487867Y2455558D1*
X2491804Y2452934D1*
X2494429Y2451621D1*
X2507553Y2446372D1*
X2510177Y2445060D1*
X2521988D1*
X2522968Y2445902D1*
X2523616Y2445768D1*
X2524037Y2444468D1*
X2523273Y2443636D1*
X2522522Y2443853D1*
X2521988Y2445060D1*
X2510177D1*
G37*
G36*
X2544298Y2458183D2*
Y2451621D1*
X2545610Y2450309D1*
Y2446372D1*
X2544298Y2445060D1*
X2542986Y2439810D1*
Y2426687D1*
X2539049Y2422750D1*
X2536424Y2421438D1*
X2535112Y2420125D1*
X2565295D1*
X2558734Y2426687D1*
Y2430624D1*
X2557421Y2431936D1*
Y2441123D1*
X2558734Y2442435D1*
Y2448997D1*
X2564420Y2450309D1*
X2570107D1*
X2575794Y2448997D1*
Y2425375D1*
X2573169Y2422750D1*
X2570545Y2421438D1*
X2573169Y2420125D1*
X2599416Y2418813D1*
X2600728D1*
X2651909Y2420125D1*
X2653222Y2445060D1*
X2651909Y2448997D1*
X2650597Y2447684D1*
X2647972Y2442435D1*
X2646660Y2438498D1*
X2647653Y2436733D1*
X2647522Y2435551D1*
X2646660Y2434561D1*
X2644035Y2433249D1*
X2641411Y2430624D1*
X2640979Y2429032D1*
X2640098Y2427999D1*
X2634849Y2426687D1*
X2629600D1*
X2624350Y2427999D1*
Y2448997D1*
X2626975Y2450309D1*
X2629600D1*
X2632224Y2448997D1*
X2637474Y2443747D1*
X2640098D1*
Y2462120D1*
X2636161Y2460808D1*
X2633537Y2459495D1*
X2630475Y2458183D1*
X2627413D1*
X2624350Y2459495D1*
Y2477868D1*
X2630037Y2479180D1*
X2635724D1*
X2641411Y2477868D1*
Y2476556D1*
X2645348Y2471306D1*
X2647972Y2467369D1*
X2649285Y2464745D1*
X2651909Y2460808D1*
X2653222D1*
X2651909Y2487054D1*
X2634849D1*
X2627413Y2485742D1*
X2619976D1*
X2612539Y2487054D1*
X2569232D1*
X2575794Y2480493D1*
Y2459495D1*
X2570107Y2458183D1*
X2564420D1*
X2558734Y2459495D1*
Y2463432D1*
X2557421Y2464745D1*
Y2468682D1*
X2558734Y2469994D1*
Y2480493D1*
X2565295Y2487054D1*
X2537736D1*
Y2484430D1*
X2540361Y2483117D1*
X2542986Y2480493D1*
Y2460808D1*
X2544298Y2458183D1*
X2591542D1*
Y2466057D1*
X2590230Y2467369D1*
Y2469994D1*
X2591542Y2471306D1*
Y2480493D1*
X2594167Y2481805D1*
X2596791Y2484430D1*
X2598541Y2485742D1*
X2600291D1*
X2602041Y2484430D1*
X2604665Y2481805D1*
X2607290Y2480493D1*
Y2466057D1*
X2608602Y2464745D1*
Y2455558D1*
X2607290Y2454246D1*
Y2426687D1*
X2605978Y2425375D1*
X2603353Y2424062D1*
X2602041Y2422750D1*
X2600291Y2421438D1*
X2598541D1*
X2596791Y2422750D1*
X2594167Y2424062D1*
X2592610Y2425538D1*
X2592854Y2426687D1*
X2591542Y2433249D1*
X2590230Y2434561D1*
Y2442435D1*
X2591542Y2443747D1*
Y2458183D1*
X2544298D1*
G37*
G36*
X2802828Y2447684D2*
Y2455558D1*
X2801516Y2460808D1*
X2800203Y2464745D1*
X2798891Y2469994D1*
X2797579Y2473931D1*
X2794954Y2484430D1*
X2793642Y2487054D1*
X2779206D1*
X2773957Y2485742D1*
Y2484430D1*
X2775269Y2483117D1*
X2777894Y2481805D1*
X2778886Y2480040D1*
X2778755Y2478858D1*
X2777894Y2477868D1*
X2776581Y2472619D1*
X2772644Y2460808D1*
X2771332Y2455558D1*
X2768707Y2447684D1*
X2767395Y2442435D1*
X2763458Y2430624D1*
X2762146Y2427999D1*
Y2426687D1*
X2758209Y2422750D1*
X2755584Y2421438D1*
X2752880Y2418700D1*
X2752201Y2418913D1*
X2751647Y2420125D1*
X2749022Y2422750D1*
X2743773Y2426687D1*
X2742461Y2427999D1*
Y2430624D1*
X2733274Y2448997D1*
X2730650Y2452934D1*
X2729337Y2455558D1*
X2730650Y2459495D1*
X2735899Y2466057D1*
X2743773Y2476556D1*
Y2477868D1*
X2749022Y2483117D1*
X2754272Y2485742D1*
Y2487054D1*
X2729337D1*
Y2485742D1*
X2733274Y2481805D1*
X2732843Y2480213D1*
X2731962Y2479180D1*
X2729337Y2475243D1*
X2725400Y2469994D1*
X2720151Y2462120D1*
X2712277Y2451621D1*
X2711944Y2450073D1*
X2710888Y2448876D1*
X2710208Y2449097D1*
X2709652Y2450309D1*
Y2454246D1*
X2710965Y2455558D1*
Y2480493D1*
X2713589Y2483117D1*
X2716214Y2484430D1*
X2718839Y2487054D1*
X2658471D1*
Y2485742D1*
X2661096Y2484430D1*
X2686030D1*
X2687780Y2485742D1*
X2689530D1*
X2691280Y2484430D1*
X2695217Y2480493D1*
Y2479180D1*
X2696529Y2477868D1*
Y2447684D1*
X2695217Y2446372D1*
X2696529Y2445060D1*
Y2427999D1*
X2691280Y2422750D1*
X2688655Y2421438D1*
X2687263Y2420012D1*
X2686587Y2420223D1*
X2685744Y2421667D1*
X2686030Y2422750D1*
X2683406Y2424062D1*
X2680781Y2426687D1*
Y2445060D1*
X2679469Y2446372D1*
Y2452934D1*
X2680781Y2454246D1*
Y2479180D1*
X2686030Y2484430D1*
X2661096D1*
X2665033Y2479180D1*
X2666345Y2477868D1*
Y2426687D1*
X2663720Y2425375D1*
X2658471Y2420125D1*
X2716214D1*
Y2421438D1*
X2710965Y2426687D1*
Y2431936D1*
X2709408Y2433412D1*
X2709814Y2434288D1*
X2710965Y2435873D1*
X2717526Y2443747D1*
X2718506Y2444590D1*
X2719170Y2444480D1*
X2719917Y2443395D1*
X2720151Y2442435D1*
X2722776Y2438498D1*
X2724088Y2434561D1*
X2725400Y2431936D1*
X2726713Y2427999D1*
X2727770Y2426305D1*
X2728025Y2425375D1*
X2721463Y2418813D1*
X2739836D1*
X2742898Y2420125D1*
X2745960D1*
X2749022Y2418813D1*
X2752959D1*
X2776581Y2420125D1*
Y2421438D1*
X2773957Y2422750D1*
X2771332Y2425375D1*
X2771587Y2426305D1*
X2772644Y2427999D1*
X2773957Y2433249D1*
X2775269Y2437186D1*
Y2439810D1*
X2780518Y2441123D1*
X2785768D1*
X2791017Y2439810D1*
Y2437186D1*
X2792329Y2434561D1*
X2793642Y2430624D1*
Y2426687D1*
X2793600Y2425336D1*
X2793207Y2423778D1*
X2792329Y2422750D1*
X2789705Y2421438D1*
X2788392Y2420125D1*
X2809390D1*
X2810795Y2420909D1*
X2811934Y2420825D1*
X2813327Y2420125D1*
X2818576Y2418813D1*
X2848760Y2420125D1*
X2842198Y2426687D1*
Y2430624D1*
X2840886Y2431936D1*
Y2441123D1*
X2842198Y2442435D1*
Y2448997D1*
X2847885Y2450309D1*
X2853572D1*
X2859259Y2448997D1*
Y2425375D1*
X2856634Y2422750D1*
X2854009Y2421438D1*
X2856634Y2420125D1*
X2881568D1*
Y2421438D1*
X2880256Y2422750D1*
X2877631Y2424062D1*
X2876075Y2425538D1*
X2876319Y2426687D1*
X2875007Y2433249D1*
X2873694Y2434561D1*
Y2442435D1*
X2875007Y2443747D1*
Y2466057D1*
X2873694Y2467369D1*
Y2469994D1*
X2875007Y2471306D1*
Y2480493D1*
X2877631Y2481805D1*
X2882881Y2487054D1*
X2852697D1*
X2859259Y2480493D1*
Y2459495D1*
X2853572Y2458183D1*
X2847885D1*
X2842198Y2459495D1*
Y2463432D1*
X2840886Y2464745D1*
Y2468682D1*
X2842198Y2469994D1*
Y2480493D1*
X2848760Y2487054D1*
X2821201D1*
Y2484430D1*
X2823825Y2483117D1*
X2826450Y2480493D1*
Y2460808D1*
X2827762Y2451621D1*
X2829075Y2450309D1*
Y2446372D1*
X2827762Y2445060D1*
X2826450Y2439810D1*
Y2426687D1*
X2822513Y2422750D1*
X2820326Y2421438D1*
X2818139D1*
X2815951Y2422750D1*
X2814639Y2424062D1*
X2812014Y2425375D1*
X2810458Y2426850D1*
X2810702Y2427999D1*
X2808077Y2438498D1*
X2806765Y2441123D1*
X2804140Y2445060D1*
X2802828Y2447684D1*
X2784455D1*
X2783064Y2446259D1*
X2782384Y2446472D1*
X2781831Y2447684D1*
X2779206Y2448997D1*
Y2452934D1*
X2780518Y2454246D1*
X2781831Y2459495D1*
X2783143Y2463432D1*
X2784123Y2464275D1*
X2784803Y2464198D1*
X2785768Y2463432D1*
Y2459495D1*
X2787080Y2452934D1*
X2788073Y2451168D1*
X2787942Y2449986D1*
X2787080Y2448997D1*
X2784455Y2447684D1*
X2802828D1*
G37*
G36*
X2940623Y2445060D2*
X2943248Y2442435D1*
Y2437186D1*
X2944241Y2435420D1*
X2944110Y2434238D1*
X2943248Y2433249D1*
Y2431936D1*
X2940623Y2429312D1*
X2936686Y2427999D1*
X2932749D1*
X2928812Y2429312D1*
X2923563Y2431936D1*
X2911752Y2443747D1*
Y2421438D1*
X2914377D1*
X2917001Y2422750D1*
X2918406Y2423533D1*
X2919546Y2423449D1*
X2923563Y2421438D1*
X2927500Y2420125D1*
X2943248D1*
X2948497Y2421438D1*
X2952434Y2422750D1*
X2957684Y2427999D1*
X2958996Y2430624D1*
Y2443747D1*
X2956371Y2446372D1*
X2954980Y2444947D1*
X2954300Y2445160D1*
X2953747Y2446372D1*
Y2448997D1*
X2951122Y2451621D1*
X2945873Y2454246D1*
X2934062Y2458183D1*
X2930125Y2462120D1*
Y2463432D1*
X2928812Y2464745D1*
Y2472619D1*
X2930125Y2473931D1*
X2930380Y2474861D1*
X2931437Y2476556D1*
X2935374Y2477868D1*
X2937999Y2479180D1*
X2940623D1*
X2948497Y2475243D1*
X2960308Y2463432D1*
Y2485742D1*
X2958996D1*
X2956371Y2484430D1*
X2954184Y2483117D1*
X2951997D1*
X2949810Y2484430D1*
X2941936Y2487054D1*
X2930125D1*
X2923563Y2485742D1*
X2913064Y2477868D1*
X2911752Y2475243D1*
Y2466057D1*
X2913064Y2462120D1*
X2915689Y2458183D1*
X2918314Y2455558D1*
X2922251Y2452934D1*
X2924875Y2451621D1*
X2937999Y2446372D1*
X2940623Y2445060D1*
X2952434D1*
X2953414Y2445902D1*
X2954063Y2445768D1*
X2954484Y2444468D1*
X2953719Y2443636D1*
X2952968Y2443853D1*
X2952434Y2445060D1*
X2940623D1*
G37*
G36*
X2968182Y2487054D2*
X2970807Y2484430D1*
X2973432Y2483117D1*
X2977369Y2479180D1*
Y2427999D1*
X2974744Y2425375D1*
X2972119Y2424062D1*
X2968182Y2420125D1*
X3019364D1*
Y2421438D1*
X3016739Y2424062D1*
Y2425375D1*
X3019364Y2427999D1*
Y2454246D1*
X3018051Y2452934D1*
X3007553Y2431936D1*
Y2430624D1*
X3004928Y2427999D1*
X3001428Y2426687D1*
X2997929D1*
X2994429Y2427999D1*
X2993117Y2429312D1*
Y2468682D1*
X2991804Y2469994D1*
Y2472619D1*
X2993117Y2473931D1*
Y2479180D1*
X2995741Y2481805D1*
X2998366Y2483117D1*
X3002303Y2487054D1*
X2968182D1*
G37*
G36*
X3044298Y2463432D2*
X3043867Y2461840D1*
X3042986Y2460808D1*
X3041673Y2455558D1*
X3039049Y2447684D1*
X3037736Y2442435D1*
X3033799Y2430624D1*
X3032487Y2427999D1*
Y2426687D1*
X3028550Y2422750D1*
X3025925Y2421438D1*
X3024613Y2420125D1*
X3046923D1*
Y2421438D1*
X3044298Y2422750D1*
X3041673Y2425375D1*
X3041928Y2426305D1*
X3042986Y2427999D1*
X3044298Y2433249D1*
X3045610Y2437186D1*
Y2439810D1*
X3050860Y2441123D1*
X3056109D1*
X3061358Y2439810D1*
Y2437186D1*
X3062671Y2434561D1*
X3063983Y2430624D1*
Y2426687D1*
X3063941Y2425336D1*
X3063548Y2423778D1*
X3062671Y2422750D1*
X3060046Y2421438D1*
X3058734Y2420125D1*
X3079731D1*
X3081136Y2420909D1*
X3082275Y2420825D1*
X3083668Y2420125D1*
X3090230D1*
X3088917Y2421438D1*
X3084980Y2424062D1*
X3082356Y2425375D1*
X3080799Y2426850D1*
X3081043Y2427999D1*
X3078419Y2438498D1*
X3077106Y2441123D1*
X3074482Y2445060D1*
X3073169Y2455558D1*
X3071857Y2460808D1*
X3070545Y2464745D1*
X3069232Y2469994D1*
X3067920Y2473931D1*
X3065295Y2484430D1*
X3063983Y2487054D1*
X3049547D1*
X3044298Y2485742D1*
Y2484430D1*
X3045610Y2483117D1*
X3048235Y2481805D1*
X3049228Y2480040D1*
X3049096Y2478858D1*
X3048235Y2477868D1*
X3046923Y2472619D1*
X3044298Y2464745D1*
Y2463432D1*
X3053484D1*
X3054464Y2464275D1*
X3055144Y2464198D1*
X3056109Y2463432D1*
Y2459495D1*
X3057421Y2452934D1*
X3058414Y2451168D1*
X3058283Y2449986D1*
X3057421Y2448997D1*
X3054797Y2447684D1*
X3053405Y2446259D1*
X3052726Y2446472D1*
X3052172Y2447684D1*
X3049547Y2448997D1*
Y2452934D1*
X3050860Y2454246D1*
X3052172Y2459495D1*
X3053484Y2463432D1*
X3044298D1*
G37*
G36*
X3092854Y2487054D2*
Y2484430D1*
X3091542Y2483117D1*
Y2460808D1*
X3092854Y2462120D1*
X3096791Y2469994D1*
X3099416Y2473931D1*
Y2475243D1*
X3102041Y2477868D1*
X3105103Y2479180D1*
X3108165D1*
X3111227Y2477868D1*
Y2473931D1*
X3112539Y2466057D1*
X3113852Y2464745D1*
Y2462120D1*
X3112539Y2460808D1*
X3111227Y2450309D1*
Y2433249D1*
X3112220Y2431483D1*
X3112089Y2430301D1*
X3111227Y2429312D1*
Y2426687D1*
X3107290Y2422750D1*
X3104665Y2421438D1*
X3103353Y2420125D1*
X3137474D1*
X3136161Y2421438D1*
X3130912Y2424062D1*
X3126975Y2427999D1*
Y2438498D1*
X3128287Y2439810D1*
Y2441123D1*
X3126975Y2442435D1*
Y2446372D1*
X3128287Y2447684D1*
Y2477868D1*
X3131350Y2479180D1*
X3134412D1*
X3137474Y2477868D1*
X3138531Y2476174D1*
X3138786Y2475243D1*
X3141411Y2472619D1*
X3144035Y2468682D1*
X3145348Y2464745D1*
X3146660Y2462120D1*
X3147972Y2460808D1*
Y2484430D1*
X3142723Y2487054D1*
X3104665D1*
X3102041Y2485742D1*
X3099416D1*
X3096791Y2487054D1*
X3092854D1*
G37*
G36*
X3153222D2*
Y2485742D1*
X3158471Y2481805D1*
X3161096Y2480493D1*
Y2466057D1*
X3162408Y2464745D1*
Y2455558D1*
X3161096Y2454246D1*
Y2426687D1*
X3159783Y2425375D1*
X3157159Y2424062D1*
X3153222Y2421438D1*
X3151909Y2420125D1*
X3153222Y2418813D1*
X3154534D1*
X3205715Y2420125D1*
X3207028Y2445060D1*
X3205715Y2448997D1*
X3204403Y2447684D1*
X3201778Y2442435D1*
X3200466Y2438498D1*
X3201459Y2436733D1*
X3201327Y2435551D1*
X3200466Y2434561D1*
X3197841Y2433249D1*
X3195217Y2430624D1*
X3194785Y2429032D1*
X3193904Y2427999D1*
X3188655Y2426687D1*
X3183406D1*
X3178156Y2427999D1*
Y2448997D1*
X3180781Y2450309D1*
X3183406D1*
X3186030Y2448997D1*
X3191280Y2443747D1*
X3193904D1*
Y2462120D1*
X3189967Y2460808D1*
X3187343Y2459495D1*
X3184280Y2458183D1*
X3181218D1*
X3178156Y2459495D1*
Y2477868D1*
X3183843Y2479180D1*
X3189530D1*
X3195217Y2477868D1*
Y2476556D1*
X3199154Y2471306D1*
X3201778Y2467369D1*
X3203091Y2464745D1*
X3205715Y2460808D1*
X3207028D1*
X3205715Y2487054D1*
X3188655D1*
X3181218Y2485742D1*
X3173782D1*
X3166345Y2487054D1*
X3153222D1*
G37*
G36*
X3237211D2*
X3239836Y2484430D1*
X3243773Y2481805D1*
X3246398Y2477868D1*
X3247710Y2473931D1*
X3249022Y2468682D1*
X3250335Y2464745D1*
X3254272Y2459495D1*
X3255264Y2457730D1*
X3255133Y2456548D1*
X3254272Y2455558D1*
Y2450309D1*
X3256896Y2442435D1*
X3259521Y2431936D1*
X3260833Y2427999D1*
X3262146Y2422750D1*
X3263458Y2420125D1*
X3283143D1*
Y2421438D1*
X3279206Y2425375D1*
Y2430624D1*
X3280518Y2431936D1*
X3283143Y2439810D1*
X3284455Y2445060D1*
X3288392Y2456871D1*
X3289705Y2462120D1*
X3292329Y2469994D1*
X3293642Y2475243D1*
X3294954Y2477868D1*
Y2479180D1*
X3300203Y2484430D1*
X3301516D1*
X3310702Y2475243D1*
Y2473931D1*
X3312014Y2469994D1*
X3313327Y2468682D1*
Y2427999D1*
X3312014Y2426687D1*
Y2425375D1*
X3313327Y2424062D1*
Y2396503D1*
X3302828Y2386004D1*
Y2384692D1*
X3336949D1*
X3338261Y2386004D1*
Y2388629D1*
X3331699Y2395191D1*
Y2403065D1*
X3330387Y2404377D1*
Y2417501D1*
X3331699Y2418813D1*
Y2422750D1*
X3330387Y2426687D1*
X3329075Y2427999D1*
Y2431936D1*
X3330387Y2433249D1*
X3331699Y2438498D1*
Y2487054D1*
X3323825D1*
X3310702Y2485742D1*
X3308077Y2484430D1*
X3305453D1*
X3302828Y2485742D1*
Y2487054D1*
X3280518D1*
X3285768Y2481805D1*
Y2477868D1*
X3284455Y2476556D1*
X3283143Y2472619D1*
X3281831Y2467369D1*
X3280518Y2463432D1*
X3279206Y2458183D1*
X3275269Y2446372D1*
Y2442435D1*
X3273878Y2441010D1*
X3273198Y2441223D1*
X3272644Y2442435D1*
X3271332Y2448997D1*
X3266083Y2469994D1*
X3264770Y2472619D1*
X3263458Y2473931D1*
Y2481805D1*
X3268707Y2487054D1*
X3247710D1*
X3246110Y2485685D1*
X3244593Y2485855D1*
X3243773Y2487054D1*
X3237211D1*
G37*
G36*
X721752Y1069120D2*
Y1065561D1*
X719973Y1063782D1*
X712855Y1042428D1*
X711076Y1038869D1*
X702179Y1012178D1*
X700399Y1008619D1*
Y1005060D1*
X778694D1*
Y1006839D1*
X771577Y1028193D1*
X769797Y1031752D1*
X760900Y1058443D1*
X759121Y1062002D1*
X750223Y1088694D1*
X748444Y1092253D1*
X741326Y1113606D1*
X739547Y1117165D1*
X737767Y1113606D1*
X734208Y1102929D1*
X732429Y1099370D1*
X723532Y1072679D1*
X721752Y1069120D1*
X737767D1*
X739096Y1070263D1*
X739996Y1070114D1*
X741009Y1068642D1*
X741326Y1067340D1*
X744885Y1056664D1*
X746665Y1053105D1*
X752003Y1037090D1*
X753782Y1033531D1*
X757341Y1022854D1*
X759121Y1021075D1*
X746071Y1019296D1*
X733022D1*
X719973Y1021075D1*
X721752Y1022854D1*
X723532Y1026413D1*
X730650Y1047767D1*
X732429Y1051325D1*
X737767Y1067340D1*
Y1069120D1*
X721752D1*
G37*
G36*
X574059Y1029972D2*
Y1028193D1*
X575838Y1019296D1*
X579397Y997942D1*
X581177Y989045D1*
X582956Y978368D1*
X584736Y969471D1*
X588295Y948118D1*
X590074Y946339D1*
X595412Y949897D1*
X602530Y955236D1*
X611427Y962354D1*
X632780Y978368D1*
X641678Y985486D1*
X655913Y996163D1*
X657693Y997942D1*
X655913Y999722D1*
X650575Y1003281D1*
X629222Y1019296D1*
X623883Y1022854D1*
X609648Y1033531D1*
X604309Y1037090D1*
X582956Y1053105D1*
X577618Y1056664D1*
X570500Y1062002D1*
X568721D1*
Y1058443D1*
X570500Y1047767D1*
X574059Y1029972D1*
X586515D1*
X588416Y1031160D1*
X590074Y1031752D1*
X595412Y1026413D1*
X600751Y1022854D1*
X614986Y1012178D1*
X620324Y1008619D1*
X627442Y1003281D1*
X631001Y1001501D1*
X632434Y999204D1*
X632780Y997942D1*
X629222Y994383D1*
X625663Y992604D1*
X616766Y985486D1*
X602530Y974810D1*
X598864Y971097D1*
X597942Y971386D1*
X597192Y973030D1*
X595412Y981927D1*
X588295Y1024634D1*
X586515Y1029972D1*
X574059D1*
G37*
G36*
X865887D2*
X862328Y1028193D1*
X855210Y1022854D1*
X849872Y1019296D1*
X835636Y1008619D1*
X830298Y1005060D1*
X823180Y999722D1*
X821401Y997942D1*
X823180Y996163D1*
X837416Y985486D1*
X846313Y978368D1*
X889020Y946339D1*
X890799D1*
X892579Y957015D1*
X894358Y965912D1*
X896137Y976589D1*
X897917Y985486D1*
X901476Y1006839D1*
X903255Y1015737D1*
X905035Y1026413D1*
X906814Y1035311D1*
X908593Y1045987D1*
X910373Y1054884D1*
Y1062002D1*
X906814Y1060223D1*
X901476Y1056664D1*
X887240Y1045987D1*
X881902Y1042428D1*
X874784Y1037090D1*
X869446Y1033531D1*
X865887Y1029972D1*
X889020D1*
X890349Y1031115D1*
X891271Y1031011D1*
X892579Y1029972D1*
Y1024634D1*
X890799Y1022854D1*
X889020Y1012178D1*
X887240Y1003281D1*
X885461Y992604D1*
X883681Y983707D1*
X881902Y973030D1*
X880015Y971097D1*
X879094Y971386D1*
X878343Y973030D1*
X860549Y987266D1*
X853431Y992604D1*
X849872Y994383D1*
X846313Y997942D1*
Y999722D1*
X849872Y1001501D1*
X864108Y1012178D1*
X869446Y1015737D1*
X883681Y1026413D1*
X889020Y1029972D1*
X865887D1*
G37*
G36*
X700399Y957015D2*
X698620Y955236D1*
X693281Y948118D1*
X691502Y944559D1*
X687943Y939221D1*
X686164Y933883D1*
X684384Y930324D1*
X680825Y919647D1*
Y896514D1*
X682605Y889397D1*
X687943Y878720D1*
X703958Y862705D1*
X718194Y855587D1*
Y853808D1*
X710483Y852028D1*
X702772D1*
X695061Y853808D1*
X687943Y855587D1*
X684384Y857367D1*
X679046Y859146D1*
X654134Y871602D1*
X652354Y873382D1*
X647016Y876940D1*
X638119Y882279D1*
X631001Y887617D1*
X625663Y891176D1*
X618545Y896514D1*
X613207Y900073D1*
X609648Y901853D1*
X613207Y905411D1*
X620324Y914309D1*
Y916088D1*
X641678Y937441D1*
X645237Y939221D1*
X652354Y944559D1*
X661252Y949897D1*
X671928Y955236D1*
X679046Y957015D1*
X648795D1*
X645237Y955236D1*
X638119Y949897D1*
X623883Y937441D1*
X622104Y935662D1*
X609648Y921426D1*
X598971Y907191D1*
Y905411D1*
X591853Y901853D1*
X584736Y900073D1*
X581770Y898294D1*
X578804D1*
X575838Y900073D1*
X568721Y901853D1*
X561603Y905411D1*
X558044Y908970D1*
Y919647D1*
X559824Y921426D1*
X560170Y922688D1*
X561603Y924985D1*
X565162Y926765D1*
X579397Y928544D1*
X574059Y932103D1*
X570500Y933883D1*
X561603D1*
X558044Y932103D1*
X552706Y928544D1*
X550926Y926765D1*
X547367Y921426D1*
X545588Y917868D1*
Y905411D1*
X547367Y901853D1*
X556265Y892955D1*
X561603Y889397D1*
X566941Y887617D1*
X574059Y885838D1*
X590074D1*
X597192Y887617D1*
X599093Y888805D1*
X600751Y889397D1*
X609648Y880499D1*
X623883Y869823D1*
X634560Y862705D1*
X643457Y857367D1*
X671928Y843131D1*
X698620Y834234D1*
X719973Y828896D1*
X728870Y827116D1*
X730650Y825337D1*
Y798645D1*
X728870Y796866D1*
X727091Y782630D1*
X723532Y764836D1*
X716414Y743483D1*
X714635Y739924D1*
X711076Y729247D1*
X709296Y722129D1*
X707517Y716791D1*
X705737Y707894D1*
X703958Y697217D1*
X702179Y679423D1*
Y668746D1*
X703958Y647393D1*
X705737Y636716D1*
X711076Y620701D1*
X718194Y610025D1*
X719973Y608245D1*
X725311Y604686D1*
X728870Y602907D1*
X734208Y601128D1*
X746665D1*
X752003Y602907D1*
X755562Y604686D1*
X766238Y615363D1*
X771577Y626040D1*
X775136Y640275D1*
X776915Y650952D1*
Y693658D1*
X775136Y706114D1*
X769797Y727468D1*
X766238Y738144D1*
X764459Y741703D1*
X757341Y763056D1*
X755562Y770174D1*
X753782Y779071D1*
X752003Y791527D1*
X750223Y793307D1*
Y827116D1*
X768018Y830675D1*
X782253Y834234D1*
X798268Y839572D1*
X816063Y846690D1*
X830298Y853808D1*
X784033D1*
X776915Y852028D1*
X769797D1*
X762680Y853808D1*
X760900Y855587D1*
X775136Y862705D1*
X784033Y869823D1*
X791151Y878720D1*
X796489Y889397D1*
X798268Y894735D1*
Y919647D1*
X796489Y926765D1*
X794709Y932103D1*
X789371Y942780D1*
X785812Y948118D1*
X780474Y955236D1*
X778694Y957015D1*
X786405Y958795D1*
X794116D1*
X801827Y957015D1*
X812504Y953456D1*
X823180Y948118D1*
X824960Y946339D1*
X830298Y942780D1*
X833857Y941000D1*
X860549Y914309D1*
Y912529D1*
X867666Y903632D1*
X866755Y901840D1*
X865602Y899928D1*
X864108Y898294D1*
X860549Y896514D1*
X853431Y891176D1*
X832078Y876940D1*
X823180Y871602D1*
X821401Y869823D1*
X803607Y860926D1*
X798268Y859146D1*
X784033Y853808D1*
X830298D1*
X848093Y864484D1*
X853431Y868043D1*
X867666Y878720D1*
X878343Y887617D1*
X879672Y888760D1*
X880594Y888656D1*
X881902Y887617D1*
X889020Y885838D1*
X908593D1*
X919270Y889397D1*
X924608Y892955D1*
X931726Y900073D1*
X933506Y903632D1*
X935285Y908970D1*
Y914309D1*
X933506Y919647D1*
X931726Y923206D1*
X922829Y932103D1*
X919270Y933883D1*
X908593D1*
X905035Y932103D1*
X901476Y928544D1*
X905035D1*
X906939Y929607D1*
X908484Y929492D1*
X910373Y928544D1*
X915711Y926765D1*
X921050Y921426D1*
Y919647D1*
X922829Y917868D1*
Y910750D1*
X915711Y903632D1*
X912152Y901853D1*
X905035Y900073D1*
X901476Y898294D1*
X897917D1*
X894358Y900073D1*
X887240Y901853D1*
X883681Y903632D1*
X878343Y908970D1*
Y910750D1*
X873005Y917868D1*
X864108Y928544D1*
X848093Y944559D1*
X837416Y953456D1*
X826739Y960574D1*
X817842Y965912D1*
X807165Y971251D1*
X785812Y978368D1*
X778694Y980148D1*
X769797Y981927D1*
X748444Y983707D1*
X739547D1*
X721752Y981927D1*
X709296Y980148D1*
X700399Y978368D1*
X686164Y974810D1*
X675487Y971251D1*
X650575Y958795D1*
X648795Y957015D1*
X679046D1*
X686164Y958795D1*
X693281D1*
X700399Y957015D1*
X728870D1*
X735988Y958795D1*
X743106D1*
X750223Y957015D1*
X755562Y955236D1*
X759121Y953456D1*
X760900Y951677D1*
X764459Y949897D1*
X768018Y946339D1*
Y944559D1*
X771577Y937441D1*
X773356Y932103D1*
X775136Y923206D1*
X776915Y921426D1*
Y905411D1*
X775136Y903632D1*
X773356Y894735D1*
X771577Y889397D1*
X768018Y882279D1*
X764459Y876940D1*
X763874Y874782D1*
X762680Y873382D1*
X759121Y871602D1*
X757341Y869823D1*
X753782Y868043D1*
X748444Y866264D1*
X742513Y864484D1*
X736581D1*
X730650Y866264D1*
X725311Y868043D1*
X718194Y871602D1*
X712855Y876940D1*
Y878720D1*
X709296Y884058D1*
X705737Y894735D1*
X703958Y901853D1*
X702179Y903632D1*
Y923206D1*
X703958Y924985D1*
X705737Y933883D1*
X707517Y939221D1*
X711076Y944559D1*
Y946339D1*
X716414Y951677D1*
X723532Y955236D1*
X728870Y957015D1*
X700399D1*
G37*
G36*
X672197Y506185D2*
X661768Y495757D1*
Y446222D1*
X672197Y435794D1*
X720428D1*
X732160Y447526D1*
Y494453D1*
X720428Y506185D1*
X691750D1*
X681322Y495757D1*
Y467079D1*
X693053Y455347D1*
X711303D1*
Y467079D1*
X691750Y468383D1*
Y494453D1*
X701744Y495757D1*
X711738D1*
X721731Y494453D1*
Y447526D1*
X705220Y446222D1*
X688708D1*
X672197Y447526D1*
Y506185D1*
G37*
G36*
X751713D2*
X741285Y495757D1*
Y446222D1*
X751713Y435794D1*
X771266D1*
Y446222D1*
X751713Y447526D1*
Y494453D1*
X771266Y495757D1*
Y506185D1*
X751713D1*
G37*
G36*
X780391D2*
Y495757D1*
X801248Y494453D1*
Y447526D1*
X780391Y446222D1*
Y435794D1*
X799944D1*
X811676Y447526D1*
Y494453D1*
X799944Y506185D1*
X780391D1*
G37*
G36*
X831229D2*
X820801Y495757D1*
X880764Y494453D1*
Y437097D1*
X891192Y447526D1*
Y494453D1*
X879460Y506185D1*
X831229D1*
G37*
G36*
X910745D2*
X900317Y495757D1*
Y476204D1*
X910745D1*
Y494453D1*
X927257Y495757D1*
X943768D1*
X960280Y494453D1*
Y476204D1*
X970708D1*
Y494453D1*
X958976Y506185D1*
X910745D1*
G37*
G36*
X990261D2*
X979833Y495757D1*
Y467079D1*
X991565Y455347D1*
X998083D1*
X1009814Y467079D1*
Y474900D1*
X1012856Y476204D1*
X1015898D1*
X1018939Y474900D1*
Y447526D1*
X979833Y446222D1*
X990261Y435794D1*
X1018939D1*
X1029368Y446222D1*
Y476204D1*
X1018939Y486632D1*
X1011118D1*
X999386Y474900D1*
Y468383D1*
X996344Y467079D1*
X993303D1*
X990261Y468383D1*
Y494453D1*
X1006773Y495757D1*
X1023284D1*
X1039796Y494453D1*
Y437097D1*
X1050224Y447526D1*
Y494453D1*
X1038492Y506185D1*
X990261D1*
G37*
G36*
X1059349D2*
Y495757D1*
X1069777D1*
Y506185D1*
X1059349D1*
G37*
G36*
X1078902D2*
Y495757D1*
X1089331D1*
Y506185D1*
X1078902D1*
G37*
G36*
X1098455D2*
Y495757D1*
X1108884D1*
Y506185D1*
X1098455D1*
G37*
G36*
X1119312D2*
Y495757D1*
X1129740D1*
Y506185D1*
X1119312D1*
G37*
G36*
X1149294D2*
X1138865Y495757D1*
Y486632D1*
X1149294Y476204D1*
X1157115D1*
X1168847Y487936D1*
Y494453D1*
X1178841Y495757D1*
X1188834D1*
X1198828Y494453D1*
Y437097D1*
X1209257Y447526D1*
Y494453D1*
X1197525Y506185D1*
X1168847D1*
X1158418Y495757D1*
Y487936D1*
X1155377Y486632D1*
X1152335D1*
X1149294Y487936D1*
Y506185D1*
G37*
G36*
X1228810D2*
X1218381Y495757D1*
Y446222D1*
X1227506Y437097D1*
X1228810D1*
Y506185D1*
G37*
G36*
X1237935D2*
Y476204D1*
X1248363D1*
Y506185D1*
X1237935D1*
G37*
G36*
X1257488D2*
Y476204D1*
X1267916D1*
Y506185D1*
X1257488D1*
G37*
G36*
X1308326D2*
X1297898Y495757D1*
Y467079D1*
X1309629Y455347D1*
X1316147D1*
X1327879Y467079D1*
Y494453D1*
X1366985Y495757D1*
X1356557Y506185D1*
X1327879D1*
X1317451Y495757D1*
Y468383D1*
X1314409Y467079D1*
X1311367D1*
X1308326Y468383D1*
Y506185D1*
G37*
G36*
X1377414D2*
Y495757D1*
X1387842D1*
Y506185D1*
X1377414D1*
G37*
G36*
X1396967D2*
Y495757D1*
X1407395D1*
Y506185D1*
X1396967D1*
G37*
G36*
X1416520D2*
Y487936D1*
X1387842Y486632D1*
X1377414Y476204D1*
Y446222D1*
X1386538Y437097D1*
X1387842D1*
Y474900D1*
X1416520Y476204D1*
X1426948Y486632D1*
Y506185D1*
X1416520D1*
G37*
G36*
X1467358D2*
X1456930Y495757D1*
X1476483Y494453D1*
Y467079D1*
X1488215Y455347D1*
X1494733D1*
X1506464Y467079D1*
Y494453D1*
X1526018Y495757D1*
X1515589Y506185D1*
X1507768D1*
X1496036Y494453D1*
Y468383D1*
X1492994Y467079D1*
X1489953D1*
X1486911Y468383D1*
Y494453D1*
X1475179Y506185D1*
X1467358D1*
G37*
G36*
X1536446D2*
Y495757D1*
X1546874D1*
Y506185D1*
X1536446D1*
G37*
G36*
X1566427D2*
X1555999Y495757D1*
Y476204D1*
X1566427D1*
Y494453D1*
X1569469Y495757D1*
X1572511D1*
X1575552Y494453D1*
Y476204D1*
X1585981D1*
Y495757D1*
X1575552Y506185D1*
X1566427D1*
G37*
G36*
X1596409D2*
Y495757D1*
X1606837D1*
Y506185D1*
X1596409D1*
G37*
G36*
X1626390D2*
X1615962Y495757D1*
Y476204D1*
X1626390D1*
Y494453D1*
X1629432Y495757D1*
X1632474D1*
X1635515Y494453D1*
Y486632D1*
X1645944Y476204D1*
X1655068D1*
X1665497Y486632D1*
Y494453D1*
X1668973Y495757D1*
X1672449D1*
X1675925Y494453D1*
Y476204D1*
X1686353D1*
Y494453D1*
X1674622Y506185D1*
X1666800D1*
X1655068Y494453D1*
Y487936D1*
X1652027Y486632D1*
X1648985D1*
X1645944Y487936D1*
Y495757D1*
X1635515Y506185D1*
X1626390D1*
G37*
G36*
X1705907D2*
X1695478Y495757D1*
Y467079D1*
X1707210Y455347D1*
X1713728D1*
X1725460Y467079D1*
Y474900D1*
X1728501Y476204D1*
X1731543D1*
X1734585Y474900D1*
Y467079D1*
X1746316Y455347D1*
X1752834D1*
X1755441Y456651D1*
X1765870Y467079D1*
Y494453D1*
X1755441Y504882D1*
Y468383D1*
X1751965Y467079D1*
X1748489D1*
X1745013Y468383D1*
Y476204D1*
X1734585Y486632D1*
X1726763D1*
X1715031Y474900D1*
Y468383D1*
X1711990Y467079D1*
X1708948D1*
X1705907Y468383D1*
Y506185D1*
G37*
G36*
X1715031D2*
Y495757D1*
X1745013D1*
Y506185D1*
X1715031D1*
G37*
G36*
X1785423D2*
X1774994Y495757D1*
X1794548Y494453D1*
Y435794D1*
X1804976D1*
Y494453D1*
X1793244Y506185D1*
X1785423D1*
G37*
G36*
X1814101D2*
Y447526D1*
X1825833Y435794D1*
X1833654D1*
X1844082Y446222D1*
X1824529Y447526D1*
Y506185D1*
X1814101D1*
G37*
G36*
X1864939D2*
X1854511Y495757D1*
Y467079D1*
X1866242Y455347D1*
X1904045D1*
Y467079D1*
X1864939Y468383D1*
Y494453D1*
X1904045Y495757D1*
Y506185D1*
X1864939D1*
G37*
G36*
X1944455D2*
X1934027Y495757D1*
Y476204D1*
X1944455D1*
Y494453D1*
X1947497Y495757D1*
X1950538D1*
X1953580Y494453D1*
Y447526D1*
X1965312Y435794D1*
X1973133D1*
X1983561Y446222D1*
Y494453D1*
X1987037Y495757D1*
X1990514D1*
X1993990Y494453D1*
Y476204D1*
X2004418D1*
Y494453D1*
X1992686Y506185D1*
X1984865D1*
X1973133Y494453D1*
Y447526D1*
X1970091Y446222D1*
X1967050D1*
X1964008Y447526D1*
Y495757D1*
X1953580Y506185D1*
X1944455D1*
G37*
G36*
X2023971D2*
X2013543Y495757D1*
Y486632D1*
X2023971Y476204D1*
X2033096Y474900D1*
Y447526D1*
X2044828Y435794D1*
X2052649D1*
X2063077Y446222D1*
Y474900D1*
X2072202Y476204D1*
X2083934Y487936D1*
Y494453D1*
X2073506Y504882D1*
Y487936D1*
X2064381Y486632D1*
X2052649Y474900D1*
Y447526D1*
X2049607Y446222D1*
X2046566D1*
X2043524Y447526D1*
Y474900D1*
X2031792Y486632D1*
X2023971Y487936D1*
Y506185D1*
G37*
G36*
X2033096D2*
Y495757D1*
X2043524D1*
Y506185D1*
X2033096D1*
G37*
G36*
X2052649D2*
Y495757D1*
X2063077D1*
Y506185D1*
X2052649D1*
G37*
G36*
X2103487D2*
X2093059Y495757D1*
Y446222D1*
X2103487Y435794D1*
X2151718D1*
X2163450Y447526D1*
Y494453D1*
X2153022Y504882D1*
Y447526D1*
X2136510Y446222D1*
X2119999D1*
X2103487Y447526D1*
Y506185D1*
G37*
G36*
X2112612D2*
Y495757D1*
X2142594D1*
Y506185D1*
X2112612D1*
G37*
G36*
X2183003D2*
X2172575Y495757D1*
X2232538Y494453D1*
Y468383D1*
X2229062Y467079D1*
X2225586D1*
X2222110Y468383D1*
Y486632D1*
X2211681D1*
Y467079D1*
X2223413Y455347D1*
X2229931D1*
X2232538Y456651D1*
X2242966Y467079D1*
Y494453D1*
X2231235Y506185D1*
X2183003D1*
G37*
G36*
X2262520D2*
X2252091Y495757D1*
X2271644Y494453D1*
Y486632D1*
X2282073Y476204D1*
X2291198D1*
X2301626Y486632D1*
Y494453D1*
X2321179Y495757D1*
X2310751Y506185D1*
X2302929D1*
X2291198Y494453D1*
Y487936D1*
X2288156Y486632D1*
X2285114D1*
X2282073Y487936D1*
Y495757D1*
X2271644Y506185D1*
X2262520D1*
G37*
G36*
X2342036D2*
X2331607Y495757D1*
X2351161Y494453D1*
Y487936D1*
X2342036Y486632D1*
X2331607Y476204D1*
Y467079D1*
X2343339Y455347D1*
X2351161Y454044D1*
Y447526D1*
X2331607Y446222D1*
X2342036Y435794D1*
X2349857D1*
X2361589Y447526D1*
Y455347D1*
X2349857Y467079D1*
X2342036Y468383D1*
Y474900D1*
X2349857Y476204D1*
X2361589Y487936D1*
Y495757D1*
X2351161Y506185D1*
X2342036D1*
G37*
G36*
X2382446D2*
X2370714Y494453D1*
Y487936D1*
X2382446Y476204D1*
X2391570Y474900D1*
Y468383D1*
X2383749Y467079D1*
X2381142Y465775D1*
X2370714Y455347D1*
Y447526D1*
X2382446Y435794D1*
X2390267D1*
X2400695Y446222D1*
X2381142Y447526D1*
Y454044D1*
X2388963Y455347D1*
X2391570Y456651D1*
X2401999Y467079D1*
Y474900D1*
X2390267Y486632D1*
X2381142Y487936D1*
Y494453D1*
X2400695Y495757D1*
X2390267Y506185D1*
X2382446D1*
G37*
G36*
X2421552D2*
X2411124Y495757D1*
Y446222D1*
X2420248Y437097D1*
X2421552D1*
Y494453D1*
X2438063Y495757D1*
X2454575D1*
X2471086Y494453D1*
Y487936D1*
X2442409Y486632D1*
X2430677Y474900D1*
Y435794D1*
X2441105D1*
Y474900D1*
X2469783Y476204D1*
X2481515Y487936D1*
Y494453D1*
X2469783Y506185D1*
X2421552D1*
G37*
G36*
X2490640D2*
Y495757D1*
X2501068D1*
Y506185D1*
X2490640D1*
G37*
G36*
X2510193D2*
Y487936D1*
X2490640Y486632D1*
Y476204D1*
X2508889D1*
X2520621Y487936D1*
Y506185D1*
X2510193D1*
G37*
G36*
X2529746D2*
Y487936D1*
X2541478Y476204D1*
X2561031D1*
Y486632D1*
X2540174Y487936D1*
Y506185D1*
X2529746D1*
G37*
G36*
X2550603D2*
Y495757D1*
X2561031D1*
Y506185D1*
X2550603D1*
G37*
G36*
X2580584D2*
X2570156Y495757D1*
X2589709Y494453D1*
Y487936D1*
X2570156Y486632D1*
Y476204D1*
X2588405D1*
X2600137Y487936D1*
Y495757D1*
X2589709Y506185D1*
X2580584D1*
G37*
G36*
X2609262D2*
Y468383D1*
X2581888Y467079D1*
X2570156Y455347D1*
Y446222D1*
X2580584Y435794D1*
X2628815D1*
X2640547Y447526D1*
Y494453D1*
X2630119Y504882D1*
Y447526D1*
X2613607Y446222D1*
X2597096D1*
X2580584Y447526D1*
Y454044D1*
X2607959Y455347D1*
X2619690Y467079D1*
Y506185D1*
X2609262D1*
G37*
G36*
X2660100D2*
X2649672Y495757D1*
X2718760D1*
X2708331Y506185D1*
X2660100D1*
G37*
G36*
X2739616D2*
X2729188Y495757D1*
X2789151Y494453D1*
Y437097D1*
X2799579Y447526D1*
Y494453D1*
X2787848Y506185D1*
X2739616D1*
G37*
G36*
X2819133D2*
X2808704Y495757D1*
Y476204D1*
X2819133D1*
Y494453D1*
X2835644Y495757D1*
X2852156D1*
X2868667Y494453D1*
Y476204D1*
X2879096D1*
Y494453D1*
X2867364Y506185D1*
X2819133D1*
G37*
G36*
X2898649D2*
X2888220Y495757D1*
Y467079D1*
X2899952Y455347D1*
X2906470D1*
X2918202Y467079D1*
Y474900D1*
X2921243Y476204D1*
X2924285D1*
X2927327Y474900D1*
Y447526D1*
X2888220Y446222D1*
X2898649Y435794D1*
X2927327D1*
X2937755Y446222D1*
Y476204D1*
X2927327Y486632D1*
X2919505D1*
X2907774Y474900D1*
Y468383D1*
X2904732Y467079D1*
X2901690D1*
X2898649Y468383D1*
Y494453D1*
X2915160Y495757D1*
X2931672D1*
X2948183Y494453D1*
Y437097D1*
X2958612Y447526D1*
Y494453D1*
X2946880Y506185D1*
X2898649D1*
G37*
G36*
X2967736D2*
Y495757D1*
X2978165D1*
Y506185D1*
X2967736D1*
G37*
G36*
X2987290D2*
Y495757D1*
X2997718D1*
Y506185D1*
X2987290D1*
G37*
G36*
X3006843D2*
Y495757D1*
X3017271D1*
Y506185D1*
X3006843D1*
G37*
G36*
X3027699D2*
Y495757D1*
X3038128D1*
Y506185D1*
X3027699D1*
G37*
G36*
X3057681D2*
X3047253Y495757D1*
Y486632D1*
X3057681Y476204D1*
X3065502D1*
X3077234Y487936D1*
Y494453D1*
X3087228Y495757D1*
X3097222D1*
X3107216Y494453D1*
Y437097D1*
X3117644Y447526D1*
Y494453D1*
X3105912Y506185D1*
X3077234D1*
X3066806Y495757D1*
Y487936D1*
X3063764Y486632D1*
X3060723D1*
X3057681Y487936D1*
Y506185D1*
G37*
G36*
X3137197D2*
X3126769Y495757D1*
Y446222D1*
X3135894Y437097D1*
X3137197D1*
Y506185D1*
G37*
G36*
X3146322D2*
Y476204D1*
X3156750D1*
Y506185D1*
X3146322D1*
G37*
G36*
X3165875D2*
Y476204D1*
X3176303D1*
Y506185D1*
X3165875D1*
G37*
G36*
X3216713D2*
X3206285Y495757D1*
Y467079D1*
X3218017Y455347D1*
X3224535D1*
X3236266Y467079D1*
Y494453D1*
X3275373Y495757D1*
X3264944Y506185D1*
X3236266D1*
X3225838Y495757D1*
Y468383D1*
X3222796Y467079D1*
X3219755D1*
X3216713Y468383D1*
Y506185D1*
G37*
G36*
X1278344Y504882D2*
Y437097D1*
X1288773Y447526D1*
Y494453D1*
X1278344Y504882D1*
G37*
G36*
X1437377D2*
Y437097D1*
X1447805Y447526D1*
Y494453D1*
X1437377Y504882D1*
G37*
G36*
X1834957D2*
Y455347D1*
X1844082D1*
X1845386Y456651D1*
Y494453D1*
X1834957Y504882D1*
G37*
G36*
X1914474D2*
Y455347D1*
X1923598D1*
X1924902Y456651D1*
Y494453D1*
X1914474Y504882D1*
G37*
G36*
X3186732D2*
Y437097D1*
X3197160Y447526D1*
Y494453D1*
X3186732Y504882D1*
G37*
G36*
X700875Y486632D2*
Y476204D1*
X711303D1*
Y486632D1*
X700875D1*
G37*
G36*
X760838D2*
Y476204D1*
X790819D1*
Y486632D1*
X760838D1*
G37*
G36*
X820801D2*
Y476204D1*
X859907Y474900D1*
Y447526D1*
X820801Y446222D1*
X831229Y435794D1*
X859907D1*
X870335Y446222D1*
Y476204D1*
X859907Y486632D1*
X820801D1*
G37*
G36*
X931602D2*
X919870Y474900D1*
Y447526D1*
X916828Y446222D1*
X913787D1*
X910745Y447526D1*
Y465775D1*
X909442Y467079D1*
X900317D1*
Y446222D1*
X910745Y435794D1*
X918566D1*
X930298Y447526D1*
Y474900D1*
X933340Y476204D1*
X936382D1*
X939423Y474900D1*
Y447526D1*
X951155Y435794D1*
X958976D1*
X970708Y447526D1*
Y465775D1*
X969405Y467079D1*
X960280D1*
Y447526D1*
X956804Y446222D1*
X953328D1*
X949851Y447526D1*
Y476204D1*
X939423Y486632D1*
X931602D1*
G37*
G36*
X1069777D2*
X1059349Y476204D1*
Y446222D1*
X1068474Y437097D1*
X1069777D1*
Y474900D1*
X1086289Y476204D1*
X1102801D1*
X1119312Y474900D1*
Y437097D1*
X1129740Y447526D1*
Y474900D1*
X1118009Y486632D1*
X1069777D1*
G37*
G36*
X1177972D2*
Y447526D1*
X1138865Y446222D1*
X1149294Y435794D1*
X1177972D1*
X1188400Y446222D1*
Y486632D1*
X1177972D1*
G37*
G36*
X1337004D2*
Y476204D1*
X1368289D1*
Y486632D1*
X1337004D1*
G37*
G36*
X1456930D2*
Y446222D1*
X1467358Y435794D1*
X1515589D1*
X1527321Y447526D1*
Y486632D1*
X1516893D1*
Y447526D1*
X1500381Y446222D1*
X1483870D1*
X1467358Y447526D1*
Y486632D1*
X1456930D1*
G37*
G36*
X1536446D2*
Y467079D1*
X1548178Y455347D1*
X1555999Y454044D1*
Y447526D1*
X1536446Y446222D1*
X1546874Y435794D1*
X1554696D1*
X1566427Y447526D1*
Y455347D1*
X1554696Y467079D1*
X1546874Y468383D1*
Y486632D1*
X1536446D1*
G37*
G36*
X1596409D2*
Y468383D1*
X1588588Y467079D1*
X1585981Y465775D1*
X1575552Y455347D1*
Y447526D1*
X1587284Y435794D1*
X1595105D1*
X1605534Y446222D1*
X1585981Y447526D1*
Y454044D1*
X1593802Y455347D1*
X1596409Y456651D1*
X1606837Y467079D1*
Y486632D1*
X1596409D1*
G37*
G36*
X1774994D2*
Y446222D1*
X1784119Y437097D1*
X1785423D1*
Y486632D1*
X1774994D1*
G37*
G36*
X1874064D2*
Y476204D1*
X1884492D1*
Y486632D1*
X1874064D1*
G37*
G36*
X1893617D2*
Y476204D1*
X1904045D1*
Y486632D1*
X1893617D1*
G37*
G36*
X2112612D2*
Y476204D1*
X2142594D1*
Y486632D1*
X2112612D1*
G37*
G36*
X2183003D2*
X2172575Y476204D1*
Y446222D1*
X2183003Y435794D1*
X2231235D1*
X2241663Y446222D1*
X2183003Y447526D1*
Y474900D1*
X2186045Y476204D1*
X2189087D1*
X2192128Y474900D1*
Y455347D1*
X2202557D1*
Y474900D1*
X2190825Y486632D1*
X2183003D1*
G37*
G36*
X2252091D2*
Y455347D1*
X2261216D1*
X2262520Y456651D1*
Y486632D1*
X2252091D1*
G37*
G36*
X2312054D2*
Y455347D1*
X2321179D1*
X2322483Y456651D1*
Y486632D1*
X2312054D1*
G37*
G36*
X2649672D2*
Y476204D1*
X2669225Y474900D1*
Y455347D1*
X2679653D1*
Y474900D1*
X2667922Y486632D1*
X2649672D1*
G37*
G36*
X2700510D2*
X2688778Y474900D1*
Y456651D1*
X2690082Y455347D1*
X2699207D1*
Y474900D1*
X2720063Y476204D1*
Y486632D1*
X2700510D1*
G37*
G36*
X2729188D2*
Y476204D1*
X2768294Y474900D1*
Y447526D1*
X2729188Y446222D1*
X2739616Y435794D1*
X2768294D1*
X2778723Y446222D1*
Y476204D1*
X2768294Y486632D1*
X2729188D1*
G37*
G36*
X2839989D2*
X2828257Y474900D1*
Y447526D1*
X2825216Y446222D1*
X2822174D1*
X2819133Y447526D1*
Y465775D1*
X2817829Y467079D1*
X2808704D1*
Y446222D1*
X2819133Y435794D1*
X2826954D1*
X2838686Y447526D1*
Y474900D1*
X2841727Y476204D1*
X2844769D1*
X2847811Y474900D1*
Y447526D1*
X2859542Y435794D1*
X2867364D1*
X2879096Y447526D1*
Y465775D1*
X2877792Y467079D1*
X2868667D1*
Y447526D1*
X2865191Y446222D1*
X2861715D1*
X2858239Y447526D1*
Y476204D1*
X2847811Y486632D1*
X2839989D1*
G37*
G36*
X2978165D2*
X2967736Y476204D1*
Y446222D1*
X2976861Y437097D1*
X2978165D1*
Y474900D1*
X2994676Y476204D1*
X3011188D1*
X3027699Y474900D1*
Y437097D1*
X3038128Y447526D1*
Y474900D1*
X3026396Y486632D1*
X2978165D1*
G37*
G36*
X3086359D2*
Y447526D1*
X3047253Y446222D1*
X3057681Y435794D1*
X3086359D1*
X3096787Y446222D1*
Y486632D1*
X3086359D1*
G37*
G36*
X3245391D2*
Y476204D1*
X3276676D1*
Y486632D1*
X3245391D1*
G37*
G36*
X760838Y467079D2*
Y455347D1*
X790819D1*
Y467079D1*
X760838D1*
G37*
G36*
X820801D2*
Y455347D1*
X850782D1*
Y467079D1*
X820801D1*
G37*
G36*
X1090634D2*
X1078902Y455347D1*
Y435794D1*
X1089331D1*
Y454044D1*
X1092372Y455347D1*
X1095414D1*
X1098455Y454044D1*
Y435794D1*
X1108884D1*
Y455347D1*
X1097152Y467079D1*
X1090634D1*
G37*
G36*
X1138865D2*
Y455347D1*
X1147990D1*
X1149294Y456651D1*
Y465775D1*
X1147990Y467079D1*
X1138865D1*
G37*
G36*
X1158418D2*
Y455347D1*
X1168847D1*
Y467079D1*
X1158418D1*
G37*
G36*
X1237935D2*
Y435794D1*
X1248363D1*
Y467079D1*
X1237935D1*
G37*
G36*
X1258791D2*
X1257488Y465775D1*
Y435794D1*
X1267916D1*
Y467079D1*
X1258791D1*
G37*
G36*
X1338307D2*
X1337004Y465775D1*
Y456651D1*
X1338307Y455347D1*
X1366985D1*
X1368289Y456651D1*
Y465775D1*
X1366985Y467079D1*
X1338307D1*
G37*
G36*
X1396967D2*
Y435794D1*
X1407395D1*
Y467079D1*
X1396967D1*
G37*
G36*
X1417824D2*
X1416520Y465775D1*
Y435794D1*
X1426948D1*
Y467079D1*
X1417824D1*
G37*
G36*
X1615962D2*
Y455347D1*
X1635515Y454044D1*
Y447526D1*
X1647247Y435794D1*
X1655068D1*
X1665497Y446222D1*
Y454044D1*
X1685050Y455347D1*
X1686353Y456651D1*
Y465775D1*
X1685050Y467079D1*
X1668104D1*
X1665497Y465775D1*
X1655068Y455347D1*
Y447526D1*
X1652027Y446222D1*
X1648985D1*
X1645944Y447526D1*
Y455347D1*
X1634212Y467079D1*
X1615962D1*
G37*
G36*
X1934027D2*
Y455347D1*
X1943151D1*
X1944455Y456651D1*
Y465775D1*
X1943151Y467079D1*
X1934027D1*
G37*
G36*
X1993990D2*
Y455347D1*
X2003114D1*
X2004418Y456651D1*
Y465775D1*
X2003114Y467079D1*
X1993990D1*
G37*
G36*
X2013543D2*
Y446222D1*
X2022668Y437097D1*
X2023971D1*
Y465775D1*
X2022668Y467079D1*
X2013543D1*
G37*
G36*
X2073506D2*
Y437097D1*
X2083934Y447526D1*
Y465775D1*
X2082631Y467079D1*
X2073506D1*
G37*
G36*
X2112612D2*
Y455347D1*
X2142594D1*
Y467079D1*
X2112612D1*
G37*
G36*
X2283376D2*
X2271644Y455347D1*
Y447526D1*
X2252091Y446222D1*
X2262520Y435794D1*
X2270341D1*
X2282073Y447526D1*
Y454044D1*
X2285114Y455347D1*
X2288156D1*
X2291198Y454044D1*
Y447526D1*
X2302929Y435794D1*
X2310751D1*
X2321179Y446222D1*
X2301626Y447526D1*
Y455347D1*
X2289894Y467079D1*
X2283376D1*
G37*
G36*
X2451533D2*
X2450230Y465775D1*
Y435794D1*
X2460658D1*
Y467079D1*
X2451533D1*
G37*
G36*
X2471086D2*
Y437097D1*
X2481515Y447526D1*
Y465775D1*
X2480211Y467079D1*
X2471086D1*
G37*
G36*
X2502372D2*
X2490640Y455347D1*
Y446222D1*
X2499764Y437097D1*
X2501068D1*
Y454044D1*
X2517580Y455347D1*
X2534091D1*
X2550603Y454044D1*
Y437097D1*
X2561031Y447526D1*
Y454044D1*
X2559727Y456651D1*
X2550603Y465775D1*
X2547996Y467079D1*
X2502372D1*
G37*
G36*
X2649672D2*
Y455347D1*
X2658797D1*
X2660100Y456651D1*
Y465775D1*
X2658797Y467079D1*
X2649672D1*
G37*
G36*
X2709635D2*
Y455347D1*
X2718760D1*
X2720063Y456651D1*
Y465775D1*
X2718760Y467079D1*
X2709635D1*
G37*
G36*
X2729188D2*
Y455347D1*
X2759170D1*
Y467079D1*
X2729188D1*
G37*
G36*
X2999022D2*
X2987290Y455347D1*
Y435794D1*
X2997718D1*
Y454044D1*
X3000760Y455347D1*
X3003801D1*
X3006843Y454044D1*
Y435794D1*
X3017271D1*
Y455347D1*
X3005539Y467079D1*
X2999022D1*
G37*
G36*
X3047253D2*
Y455347D1*
X3056377D1*
X3057681Y456651D1*
Y465775D1*
X3056377Y467079D1*
X3047253D1*
G37*
G36*
X3066806D2*
Y455347D1*
X3077234D1*
Y467079D1*
X3066806D1*
G37*
G36*
X3146322D2*
Y435794D1*
X3156750D1*
Y467079D1*
X3146322D1*
G37*
G36*
X3167179D2*
X3165875Y465775D1*
Y435794D1*
X3176303D1*
Y467079D1*
X3167179D1*
G37*
G36*
X3246695D2*
X3245391Y465775D1*
Y456651D1*
X3246695Y455347D1*
X3275373D1*
X3276676Y456651D1*
Y465775D1*
X3275373Y467079D1*
X3246695D1*
G37*
G36*
X1297898Y446222D2*
X1308326Y435794D1*
X1356557D1*
X1366985Y446222D1*
X1297898D1*
G37*
G36*
X1615962D2*
Y435794D1*
X1626390D1*
Y446222D1*
X1615962D1*
G37*
G36*
X1675925D2*
Y435794D1*
X1686353D1*
Y446222D1*
X1675925D1*
G37*
G36*
X1695478D2*
X1705907Y435794D1*
X1754138D1*
X1764566Y446222D1*
X1695478D1*
G37*
G36*
X1854511D2*
X1864939Y435794D1*
X1913170D1*
X1923598Y446222D1*
X1854511D1*
G37*
G36*
X1934027D2*
Y435794D1*
X1944455D1*
Y446222D1*
X1934027D1*
G37*
G36*
X1993990D2*
Y435794D1*
X2004418D1*
Y446222D1*
X1993990D1*
G37*
G36*
X2510193D2*
Y435794D1*
X2540174D1*
Y446222D1*
X2510193D1*
G37*
G36*
X2649672D2*
X2660100Y435794D1*
X2708331D1*
X2718760Y446222D1*
X2649672D1*
G37*
G36*
X3206285D2*
X3216713Y435794D1*
X3264944D1*
X3275373Y446222D1*
X3206285D1*
G37*
G36*
X596591Y2919044D2*
X586163Y2908616D1*
Y2859081D1*
X596591Y2848653D1*
X644822D1*
X656554Y2860384D1*
Y2907312D1*
X644822Y2919044D1*
X616144D1*
X605716Y2908616D1*
Y2879938D1*
X617448Y2868206D1*
X635698D1*
Y2879938D1*
X616144Y2881241D1*
Y2907312D1*
X626138Y2908616D1*
X636132D1*
X646126Y2907312D1*
Y2860384D1*
X629614Y2859081D1*
X613103D1*
X596591Y2860384D1*
Y2919044D1*
G37*
G36*
X676107D2*
X665679Y2908616D1*
Y2859081D1*
X676107Y2848653D1*
X695661D1*
Y2859081D1*
X676107Y2860384D1*
Y2907312D1*
X695661Y2908616D1*
Y2919044D1*
X676107D1*
G37*
G36*
X704785D2*
Y2908616D1*
X725642Y2907312D1*
Y2860384D1*
X704785Y2859081D1*
Y2848653D1*
X724338D1*
X736070Y2860384D1*
Y2907312D1*
X724338Y2919044D1*
X704785D1*
G37*
G36*
X755624D2*
X745195Y2908616D1*
X805158Y2907312D1*
Y2849956D1*
X815586Y2860384D1*
Y2907312D1*
X803855Y2919044D1*
X755624D1*
G37*
G36*
X835140D2*
X824711Y2908616D1*
Y2889062D1*
X835140D1*
Y2907312D1*
X851651Y2908616D1*
X868163D1*
X884674Y2907312D1*
Y2889062D1*
X895103D1*
Y2907312D1*
X883371Y2919044D1*
X835140D1*
G37*
G36*
X914656D2*
X904227Y2908616D1*
Y2879938D1*
X915959Y2868206D1*
X922477D1*
X934209Y2879938D1*
Y2887759D1*
X937251Y2889062D1*
X940292D1*
X943334Y2887759D1*
Y2860384D1*
X904227Y2859081D1*
X914656Y2848653D1*
X943334D1*
X953762Y2859081D1*
Y2889062D1*
X943334Y2899491D1*
X935512D1*
X923781Y2887759D1*
Y2881241D1*
X920739Y2879938D1*
X917697D1*
X914656Y2881241D1*
Y2907312D1*
X931167Y2908616D1*
X947679D1*
X964190Y2907312D1*
Y2849956D1*
X974619Y2860384D1*
Y2907312D1*
X962887Y2919044D1*
X914656D1*
G37*
G36*
X983744D2*
Y2908616D1*
X994172D1*
Y2919044D1*
X983744D1*
G37*
G36*
X1003297D2*
Y2908616D1*
X1013725D1*
Y2919044D1*
X1003297D1*
G37*
G36*
X1022850D2*
Y2908616D1*
X1033278D1*
Y2919044D1*
X1022850D1*
G37*
G36*
X1043707D2*
Y2908616D1*
X1054135D1*
Y2919044D1*
X1043707D1*
G37*
G36*
X1073688D2*
X1063260Y2908616D1*
Y2899491D1*
X1073688Y2889062D1*
X1081509D1*
X1093241Y2900794D1*
Y2907312D1*
X1103235Y2908616D1*
X1113229D1*
X1123223Y2907312D1*
Y2849956D1*
X1133651Y2860384D1*
Y2907312D1*
X1121919Y2919044D1*
X1093241D1*
X1082813Y2908616D1*
Y2900794D1*
X1079771Y2899491D1*
X1076730D1*
X1073688Y2900794D1*
Y2919044D1*
G37*
G36*
X1153204D2*
X1142776Y2908616D1*
Y2859081D1*
X1151901Y2849956D1*
X1153204D1*
Y2919044D1*
G37*
G36*
X1162329D2*
Y2889062D1*
X1172757D1*
Y2919044D1*
X1162329D1*
G37*
G36*
X1181882D2*
Y2889062D1*
X1192311D1*
Y2919044D1*
X1181882D1*
G37*
G36*
X1232720D2*
X1222292Y2908616D1*
Y2879938D1*
X1234024Y2868206D1*
X1240542D1*
X1252274Y2879938D1*
Y2907312D1*
X1291380Y2908616D1*
X1280951Y2919044D1*
X1252274D1*
X1241845Y2908616D1*
Y2881241D1*
X1238804Y2879938D1*
X1235762D1*
X1232720Y2881241D1*
Y2919044D1*
G37*
G36*
X1301808D2*
Y2908616D1*
X1312236D1*
Y2919044D1*
X1301808D1*
G37*
G36*
X1321361D2*
Y2908616D1*
X1331790D1*
Y2919044D1*
X1321361D1*
G37*
G36*
X1340914D2*
Y2900794D1*
X1312236Y2899491D1*
X1301808Y2889062D1*
Y2859081D1*
X1310933Y2849956D1*
X1312236D1*
Y2887759D1*
X1340914Y2889062D1*
X1351343Y2899491D1*
Y2919044D1*
X1340914D1*
G37*
G36*
X1391753D2*
X1381324Y2908616D1*
X1400877Y2907312D1*
Y2879938D1*
X1412609Y2868206D1*
X1419127D1*
X1430859Y2879938D1*
Y2907312D1*
X1450412Y2908616D1*
X1439984Y2919044D1*
X1432162D1*
X1420431Y2907312D1*
Y2881241D1*
X1417389Y2879938D1*
X1414347D1*
X1411306Y2881241D1*
Y2907312D1*
X1399574Y2919044D1*
X1391753D1*
G37*
G36*
X1460840D2*
Y2908616D1*
X1471269D1*
Y2919044D1*
X1460840D1*
G37*
G36*
X1490822D2*
X1480394Y2908616D1*
Y2889062D1*
X1490822D1*
Y2907312D1*
X1493864Y2908616D1*
X1496905D1*
X1499947Y2907312D1*
Y2889062D1*
X1510375D1*
Y2908616D1*
X1499947Y2919044D1*
X1490822D1*
G37*
G36*
X1520803D2*
Y2908616D1*
X1531232D1*
Y2919044D1*
X1520803D1*
G37*
G36*
X1550785D2*
X1540357Y2908616D1*
Y2889062D1*
X1550785D1*
Y2907312D1*
X1553827Y2908616D1*
X1556868D1*
X1559910Y2907312D1*
Y2899491D1*
X1570338Y2889062D1*
X1579463D1*
X1589891Y2899491D1*
Y2907312D1*
X1593367Y2908616D1*
X1596843D1*
X1600320Y2907312D1*
Y2889062D1*
X1610748D1*
Y2907312D1*
X1599016Y2919044D1*
X1591195D1*
X1579463Y2907312D1*
Y2900794D1*
X1576421Y2899491D1*
X1573380D1*
X1570338Y2900794D1*
Y2908616D1*
X1559910Y2919044D1*
X1550785D1*
G37*
G36*
X1630301D2*
X1619873Y2908616D1*
Y2879938D1*
X1631605Y2868206D1*
X1638122D1*
X1649854Y2879938D1*
Y2887759D1*
X1652896Y2889062D1*
X1655937D1*
X1658979Y2887759D1*
Y2879938D1*
X1670711Y2868206D1*
X1677229D1*
X1679836Y2869509D1*
X1690264Y2879938D1*
Y2907312D1*
X1679836Y2917740D1*
Y2881241D1*
X1676360Y2879938D1*
X1672883D1*
X1669407Y2881241D1*
Y2889062D1*
X1658979Y2899491D1*
X1651158D1*
X1639426Y2887759D1*
Y2881241D1*
X1636384Y2879938D1*
X1633343D1*
X1630301Y2881241D1*
Y2919044D1*
G37*
G36*
X1639426D2*
Y2908616D1*
X1669407D1*
Y2919044D1*
X1639426D1*
G37*
G36*
X1709817D2*
X1699389Y2908616D1*
X1718942Y2907312D1*
Y2848653D1*
X1729370D1*
Y2907312D1*
X1717638Y2919044D1*
X1709817D1*
G37*
G36*
X1738495D2*
Y2860384D1*
X1750227Y2848653D1*
X1758048D1*
X1768477Y2859081D1*
X1748924Y2860384D1*
Y2919044D1*
X1738495D1*
G37*
G36*
X1789333D2*
X1778905Y2908616D1*
Y2879938D1*
X1790637Y2868206D1*
X1828440D1*
Y2879938D1*
X1789333Y2881241D1*
Y2907312D1*
X1828440Y2908616D1*
Y2919044D1*
X1789333D1*
G37*
G36*
X1868849D2*
X1858421Y2908616D1*
Y2889062D1*
X1868849D1*
Y2907312D1*
X1871891Y2908616D1*
X1874933D1*
X1877974Y2907312D1*
Y2860384D1*
X1889706Y2848653D1*
X1897527D1*
X1907956Y2859081D1*
Y2907312D1*
X1911432Y2908616D1*
X1914908D1*
X1918384Y2907312D1*
Y2889062D1*
X1928812D1*
Y2907312D1*
X1917081Y2919044D1*
X1909259D1*
X1897527Y2907312D1*
Y2860384D1*
X1894486Y2859081D1*
X1891444D1*
X1888403Y2860384D1*
Y2908616D1*
X1877974Y2919044D1*
X1868849D1*
G37*
G36*
X1948366D2*
X1937937Y2908616D1*
Y2899491D1*
X1948366Y2889062D1*
X1957490Y2887759D1*
Y2860384D1*
X1969222Y2848653D1*
X1977044D1*
X1987472Y2859081D1*
Y2887759D1*
X1996597Y2889062D1*
X2008329Y2900794D1*
Y2907312D1*
X1997900Y2917740D1*
Y2900794D1*
X1988775Y2899491D1*
X1977044Y2887759D1*
Y2860384D1*
X1974002Y2859081D1*
X1970960D1*
X1967919Y2860384D1*
Y2887759D1*
X1956187Y2899491D1*
X1948366Y2900794D1*
Y2919044D1*
G37*
G36*
X1957490D2*
Y2908616D1*
X1967919D1*
Y2919044D1*
X1957490D1*
G37*
G36*
X1977044D2*
Y2908616D1*
X1987472D1*
Y2919044D1*
X1977044D1*
G37*
G36*
X2027882D2*
X2017453Y2908616D1*
Y2859081D1*
X2027882Y2848653D1*
X2076113D1*
X2087845Y2860384D1*
Y2907312D1*
X2077416Y2917740D1*
Y2860384D1*
X2060905Y2859081D1*
X2044393D1*
X2027882Y2860384D1*
Y2919044D1*
G37*
G36*
X2037007D2*
Y2908616D1*
X2066988D1*
Y2919044D1*
X2037007D1*
G37*
G36*
X2107398D2*
X2096970Y2908616D1*
X2156933Y2907312D1*
Y2881241D1*
X2153456Y2879938D1*
X2149980D1*
X2146504Y2881241D1*
Y2899491D1*
X2136076D1*
Y2879938D1*
X2147808Y2868206D1*
X2154325D1*
X2156933Y2869509D1*
X2167361Y2879938D1*
Y2907312D1*
X2155629Y2919044D1*
X2107398D1*
G37*
G36*
X2186914D2*
X2176486Y2908616D1*
X2196039Y2907312D1*
Y2899491D1*
X2206467Y2889062D1*
X2215592D1*
X2226020Y2899491D1*
Y2907312D1*
X2245574Y2908616D1*
X2235145Y2919044D1*
X2227324D1*
X2215592Y2907312D1*
Y2900794D1*
X2212550Y2899491D1*
X2209509D1*
X2206467Y2900794D1*
Y2908616D1*
X2196039Y2919044D1*
X2186914D1*
G37*
G36*
X2266430D2*
X2256002Y2908616D1*
X2275555Y2907312D1*
Y2900794D1*
X2266430Y2899491D1*
X2256002Y2889062D1*
Y2879938D1*
X2267734Y2868206D1*
X2275555Y2866902D1*
Y2860384D1*
X2256002Y2859081D1*
X2266430Y2848653D1*
X2274251D1*
X2285983Y2860384D1*
Y2868206D1*
X2274251Y2879938D1*
X2266430Y2881241D1*
Y2887759D1*
X2274251Y2889062D1*
X2285983Y2900794D1*
Y2908616D1*
X2275555Y2919044D1*
X2266430D1*
G37*
G36*
X2306840D2*
X2295108Y2907312D1*
Y2900794D1*
X2306840Y2889062D1*
X2315965Y2887759D1*
Y2881241D1*
X2308144Y2879938D1*
X2305536Y2878634D1*
X2295108Y2868206D1*
Y2860384D1*
X2306840Y2848653D1*
X2314661D1*
X2325090Y2859081D1*
X2305536Y2860384D1*
Y2866902D1*
X2313358Y2868206D1*
X2315965Y2869509D1*
X2326393Y2879938D1*
Y2887759D1*
X2314661Y2899491D1*
X2305536Y2900794D1*
Y2907312D1*
X2325090Y2908616D1*
X2314661Y2919044D1*
X2306840D1*
G37*
G36*
X2345946D2*
X2335518Y2908616D1*
Y2859081D1*
X2344643Y2849956D1*
X2345946D1*
Y2907312D1*
X2362458Y2908616D1*
X2378969D1*
X2395481Y2907312D1*
Y2900794D1*
X2366803Y2899491D1*
X2355071Y2887759D1*
Y2848653D1*
X2365499D1*
Y2887759D1*
X2394177Y2889062D1*
X2405909Y2900794D1*
Y2907312D1*
X2394177Y2919044D1*
X2345946D1*
G37*
G36*
X2415034D2*
Y2908616D1*
X2425462D1*
Y2919044D1*
X2415034D1*
G37*
G36*
X2434587D2*
Y2900794D1*
X2415034Y2899491D1*
Y2889062D1*
X2433284D1*
X2445016Y2900794D1*
Y2919044D1*
X2434587D1*
G37*
G36*
X2454140D2*
Y2900794D1*
X2465872Y2889062D1*
X2485425D1*
Y2899491D1*
X2464569Y2900794D1*
Y2919044D1*
X2454140D1*
G37*
G36*
X2474997D2*
Y2908616D1*
X2485425D1*
Y2919044D1*
X2474997D1*
G37*
G36*
X2504979D2*
X2494550Y2908616D1*
X2514103Y2907312D1*
Y2900794D1*
X2494550Y2899491D1*
Y2889062D1*
X2512800D1*
X2524532Y2900794D1*
Y2908616D1*
X2514103Y2919044D1*
X2504979D1*
G37*
G36*
X2533657D2*
Y2881241D1*
X2506282Y2879938D1*
X2494550Y2868206D1*
Y2859081D1*
X2504979Y2848653D1*
X2553210D1*
X2564942Y2860384D1*
Y2907312D1*
X2554513Y2917740D1*
Y2860384D1*
X2538002Y2859081D1*
X2521490D1*
X2504979Y2860384D1*
Y2866902D1*
X2532353Y2868206D1*
X2544085Y2879938D1*
Y2919044D1*
X2533657D1*
G37*
G36*
X2584495D2*
X2574066Y2908616D1*
X2643154D1*
X2632726Y2919044D1*
X2584495D1*
G37*
G36*
X2664011D2*
X2653583Y2908616D1*
X2713546Y2907312D1*
Y2849956D1*
X2723974Y2860384D1*
Y2907312D1*
X2712242Y2919044D1*
X2664011D1*
G37*
G36*
X2743527D2*
X2733099Y2908616D1*
Y2889062D1*
X2743527D1*
Y2907312D1*
X2760039Y2908616D1*
X2776550D1*
X2793062Y2907312D1*
Y2889062D1*
X2803490D1*
Y2907312D1*
X2791758Y2919044D1*
X2743527D1*
G37*
G36*
X2823043D2*
X2812615Y2908616D1*
Y2879938D1*
X2824347Y2868206D1*
X2830864D1*
X2842596Y2879938D1*
Y2887759D1*
X2845638Y2889062D1*
X2848680D1*
X2851721Y2887759D1*
Y2860384D1*
X2812615Y2859081D1*
X2823043Y2848653D1*
X2851721D1*
X2862149Y2859081D1*
Y2889062D1*
X2851721Y2899491D1*
X2843900D1*
X2832168Y2887759D1*
Y2881241D1*
X2829126Y2879938D1*
X2826085D1*
X2823043Y2881241D1*
Y2907312D1*
X2839555Y2908616D1*
X2856066D1*
X2872578Y2907312D1*
Y2849956D1*
X2883006Y2860384D1*
Y2907312D1*
X2871274Y2919044D1*
X2823043D1*
G37*
G36*
X2892131D2*
Y2908616D1*
X2902559D1*
Y2919044D1*
X2892131D1*
G37*
G36*
X2911684D2*
Y2908616D1*
X2922112D1*
Y2919044D1*
X2911684D1*
G37*
G36*
X2931237D2*
Y2908616D1*
X2941666D1*
Y2919044D1*
X2931237D1*
G37*
G36*
X2952094D2*
Y2908616D1*
X2962522D1*
Y2919044D1*
X2952094D1*
G37*
G36*
X2982075D2*
X2971647Y2908616D1*
Y2899491D1*
X2982075Y2889062D1*
X2989897D1*
X3001629Y2900794D1*
Y2907312D1*
X3011622Y2908616D1*
X3021616D1*
X3031610Y2907312D1*
Y2849956D1*
X3042038Y2860384D1*
Y2907312D1*
X3030307Y2919044D1*
X3001629D1*
X2991200Y2908616D1*
Y2900794D1*
X2988159Y2899491D1*
X2985117D1*
X2982075Y2900794D1*
Y2919044D1*
G37*
G36*
X3061592D2*
X3051163Y2908616D1*
Y2859081D1*
X3060288Y2849956D1*
X3061592D1*
Y2919044D1*
G37*
G36*
X3070716D2*
Y2889062D1*
X3081145D1*
Y2919044D1*
X3070716D1*
G37*
G36*
X3090270D2*
Y2889062D1*
X3100698D1*
Y2919044D1*
X3090270D1*
G37*
G36*
X3141108D2*
X3130679Y2908616D1*
Y2879938D1*
X3142411Y2868206D1*
X3148929D1*
X3160661Y2879938D1*
Y2907312D1*
X3199767Y2908616D1*
X3189339Y2919044D1*
X3160661D1*
X3150233Y2908616D1*
Y2881241D1*
X3147191Y2879938D1*
X3144149D1*
X3141108Y2881241D1*
Y2919044D1*
G37*
G36*
X1202739Y2917740D2*
Y2849956D1*
X1213167Y2860384D1*
Y2907312D1*
X1202739Y2917740D1*
G37*
G36*
X1361771D2*
Y2849956D1*
X1372199Y2860384D1*
Y2907312D1*
X1361771Y2917740D1*
G37*
G36*
X1759352D2*
Y2868206D1*
X1768477D1*
X1769780Y2869509D1*
Y2907312D1*
X1759352Y2917740D1*
G37*
G36*
X1838868D2*
Y2868206D1*
X1847993D1*
X1849296Y2869509D1*
Y2907312D1*
X1838868Y2917740D1*
G37*
G36*
X3111126D2*
Y2849956D1*
X3121555Y2860384D1*
Y2907312D1*
X3111126Y2917740D1*
G37*
G36*
X625269Y2899491D2*
Y2889062D1*
X635698D1*
Y2899491D1*
X625269D1*
G37*
G36*
X685232D2*
Y2889062D1*
X715214D1*
Y2899491D1*
X685232D1*
G37*
G36*
X745195D2*
Y2889062D1*
X784301Y2887759D1*
Y2860384D1*
X745195Y2859081D1*
X755624Y2848653D1*
X784301D1*
X794730Y2859081D1*
Y2889062D1*
X784301Y2899491D1*
X745195D1*
G37*
G36*
X855996D2*
X844264Y2887759D1*
Y2860384D1*
X841223Y2859081D1*
X838181D1*
X835140Y2860384D1*
Y2878634D1*
X833836Y2879938D1*
X824711D1*
Y2859081D1*
X835140Y2848653D1*
X842961D1*
X854693Y2860384D1*
Y2887759D1*
X857734Y2889062D1*
X860776D1*
X863818Y2887759D1*
Y2860384D1*
X875549Y2848653D1*
X883371D1*
X895103Y2860384D1*
Y2878634D1*
X893799Y2879938D1*
X884674D1*
Y2860384D1*
X881198Y2859081D1*
X877722D1*
X874246Y2860384D1*
Y2889062D1*
X863818Y2899491D1*
X855996D1*
G37*
G36*
X994172D2*
X983744Y2889062D1*
Y2859081D1*
X992868Y2849956D1*
X994172D1*
Y2887759D1*
X1010683Y2889062D1*
X1027195D1*
X1043707Y2887759D1*
Y2849956D1*
X1054135Y2860384D1*
Y2887759D1*
X1042403Y2899491D1*
X994172D1*
G37*
G36*
X1102366D2*
Y2860384D1*
X1063260Y2859081D1*
X1073688Y2848653D1*
X1102366D1*
X1112794Y2859081D1*
Y2899491D1*
X1102366D1*
G37*
G36*
X1261398D2*
Y2889062D1*
X1292683D1*
Y2899491D1*
X1261398D1*
G37*
G36*
X1381324D2*
Y2859081D1*
X1391753Y2848653D1*
X1439984D1*
X1451716Y2860384D1*
Y2899491D1*
X1441287D1*
Y2860384D1*
X1424776Y2859081D1*
X1408264D1*
X1391753Y2860384D1*
Y2899491D1*
X1381324D1*
G37*
G36*
X1460840D2*
Y2879938D1*
X1472572Y2868206D1*
X1480394Y2866902D1*
Y2860384D1*
X1460840Y2859081D1*
X1471269Y2848653D1*
X1479090D1*
X1490822Y2860384D1*
Y2868206D1*
X1479090Y2879938D1*
X1471269Y2881241D1*
Y2899491D1*
X1460840D1*
G37*
G36*
X1520803D2*
Y2881241D1*
X1512982Y2879938D1*
X1510375Y2878634D1*
X1499947Y2868206D1*
Y2860384D1*
X1511679Y2848653D1*
X1519500D1*
X1529928Y2859081D1*
X1510375Y2860384D1*
Y2866902D1*
X1518196Y2868206D1*
X1520803Y2869509D1*
X1531232Y2879938D1*
Y2899491D1*
X1520803D1*
G37*
G36*
X1699389D2*
Y2859081D1*
X1708514Y2849956D1*
X1709817D1*
Y2899491D1*
X1699389D1*
G37*
G36*
X1798458D2*
Y2889062D1*
X1808886D1*
Y2899491D1*
X1798458D1*
G37*
G36*
X1818011D2*
Y2889062D1*
X1828440D1*
Y2899491D1*
X1818011D1*
G37*
G36*
X2037007D2*
Y2889062D1*
X2066988D1*
Y2899491D1*
X2037007D1*
G37*
G36*
X2107398D2*
X2096970Y2889062D1*
Y2859081D1*
X2107398Y2848653D1*
X2155629D1*
X2166057Y2859081D1*
X2107398Y2860384D1*
Y2887759D1*
X2110440Y2889062D1*
X2113481D1*
X2116523Y2887759D1*
Y2868206D1*
X2126951D1*
Y2887759D1*
X2115219Y2899491D1*
X2107398D1*
G37*
G36*
X2176486D2*
Y2868206D1*
X2185611D1*
X2186914Y2869509D1*
Y2899491D1*
X2176486D1*
G37*
G36*
X2236449D2*
Y2868206D1*
X2245574D1*
X2246877Y2869509D1*
Y2899491D1*
X2236449D1*
G37*
G36*
X2574066D2*
Y2889062D1*
X2593620Y2887759D1*
Y2868206D1*
X2604048D1*
Y2887759D1*
X2592316Y2899491D1*
X2574066D1*
G37*
G36*
X2624905D2*
X2613173Y2887759D1*
Y2869509D1*
X2614476Y2868206D1*
X2623601D1*
Y2887759D1*
X2644458Y2889062D1*
Y2899491D1*
X2624905D1*
G37*
G36*
X2653583D2*
Y2889062D1*
X2692689Y2887759D1*
Y2860384D1*
X2653583Y2859081D1*
X2664011Y2848653D1*
X2692689D1*
X2703117Y2859081D1*
Y2889062D1*
X2692689Y2899491D1*
X2653583D1*
G37*
G36*
X2764384D2*
X2752652Y2887759D1*
Y2860384D1*
X2749610Y2859081D1*
X2746569D1*
X2743527Y2860384D1*
Y2878634D1*
X2742224Y2879938D1*
X2733099D1*
Y2859081D1*
X2743527Y2848653D1*
X2751348D1*
X2763080Y2860384D1*
Y2887759D1*
X2766122Y2889062D1*
X2769163D1*
X2772205Y2887759D1*
Y2860384D1*
X2783937Y2848653D1*
X2791758D1*
X2803490Y2860384D1*
Y2878634D1*
X2802186Y2879938D1*
X2793062D1*
Y2860384D1*
X2789586Y2859081D1*
X2786109D1*
X2782633Y2860384D1*
Y2889062D1*
X2772205Y2899491D1*
X2764384D1*
G37*
G36*
X2902559D2*
X2892131Y2889062D1*
Y2859081D1*
X2901256Y2849956D1*
X2902559D1*
Y2887759D1*
X2919071Y2889062D1*
X2935582D1*
X2952094Y2887759D1*
Y2849956D1*
X2962522Y2860384D1*
Y2887759D1*
X2950790Y2899491D1*
X2902559D1*
G37*
G36*
X3010753D2*
Y2860384D1*
X2971647Y2859081D1*
X2982075Y2848653D1*
X3010753D1*
X3021182Y2859081D1*
Y2899491D1*
X3010753D1*
G37*
G36*
X3169786D2*
Y2889062D1*
X3201071D1*
Y2899491D1*
X3169786D1*
G37*
G36*
X685232Y2879938D2*
Y2868206D1*
X715214D1*
Y2879938D1*
X685232D1*
G37*
G36*
X745195D2*
Y2868206D1*
X775177D1*
Y2879938D1*
X745195D1*
G37*
G36*
X1015029D2*
X1003297Y2868206D1*
Y2848653D1*
X1013725D1*
Y2866902D1*
X1016767Y2868206D1*
X1019808D1*
X1022850Y2866902D1*
Y2848653D1*
X1033278D1*
Y2868206D1*
X1021546Y2879938D1*
X1015029D1*
G37*
G36*
X1063260D2*
Y2868206D1*
X1072385D1*
X1073688Y2869509D1*
Y2878634D1*
X1072385Y2879938D1*
X1063260D1*
G37*
G36*
X1082813D2*
Y2868206D1*
X1093241D1*
Y2879938D1*
X1082813D1*
G37*
G36*
X1162329D2*
Y2848653D1*
X1172757D1*
Y2879938D1*
X1162329D1*
G37*
G36*
X1183186D2*
X1181882Y2878634D1*
Y2848653D1*
X1192311D1*
Y2879938D1*
X1183186D1*
G37*
G36*
X1262702D2*
X1261398Y2878634D1*
Y2869509D1*
X1262702Y2868206D1*
X1291380D1*
X1292683Y2869509D1*
Y2878634D1*
X1291380Y2879938D1*
X1262702D1*
G37*
G36*
X1321361D2*
Y2848653D1*
X1331790D1*
Y2879938D1*
X1321361D1*
G37*
G36*
X1342218D2*
X1340914Y2878634D1*
Y2848653D1*
X1351343D1*
Y2879938D1*
X1342218D1*
G37*
G36*
X1540357D2*
Y2868206D1*
X1559910Y2866902D1*
Y2860384D1*
X1571642Y2848653D1*
X1579463D1*
X1589891Y2859081D1*
Y2866902D1*
X1609444Y2868206D1*
X1610748Y2869509D1*
Y2878634D1*
X1609444Y2879938D1*
X1592498D1*
X1589891Y2878634D1*
X1579463Y2868206D1*
Y2860384D1*
X1576421Y2859081D1*
X1573380D1*
X1570338Y2860384D1*
Y2868206D1*
X1558606Y2879938D1*
X1540357D1*
G37*
G36*
X1858421D2*
Y2868206D1*
X1867546D1*
X1868849Y2869509D1*
Y2878634D1*
X1867546Y2879938D1*
X1858421D1*
G37*
G36*
X1918384D2*
Y2868206D1*
X1927509D1*
X1928812Y2869509D1*
Y2878634D1*
X1927509Y2879938D1*
X1918384D1*
G37*
G36*
X1937937D2*
Y2859081D1*
X1947062Y2849956D1*
X1948366D1*
Y2878634D1*
X1947062Y2879938D1*
X1937937D1*
G37*
G36*
X1997900D2*
Y2849956D1*
X2008329Y2860384D1*
Y2878634D1*
X2007025Y2879938D1*
X1997900D1*
G37*
G36*
X2037007D2*
Y2868206D1*
X2066988D1*
Y2879938D1*
X2037007D1*
G37*
G36*
X2207771D2*
X2196039Y2868206D1*
Y2860384D1*
X2176486Y2859081D1*
X2186914Y2848653D1*
X2194735D1*
X2206467Y2860384D1*
Y2866902D1*
X2209509Y2868206D1*
X2212550D1*
X2215592Y2866902D1*
Y2860384D1*
X2227324Y2848653D1*
X2235145D1*
X2245574Y2859081D1*
X2226020Y2860384D1*
Y2868206D1*
X2214288Y2879938D1*
X2207771D1*
G37*
G36*
X2375928D2*
X2374624Y2878634D1*
Y2848653D1*
X2385053D1*
Y2879938D1*
X2375928D1*
G37*
G36*
X2395481D2*
Y2849956D1*
X2405909Y2860384D1*
Y2878634D1*
X2404606Y2879938D1*
X2395481D1*
G37*
G36*
X2426766D2*
X2415034Y2868206D1*
Y2859081D1*
X2424159Y2849956D1*
X2425462D1*
Y2866902D1*
X2441974Y2868206D1*
X2458486D1*
X2474997Y2866902D1*
Y2849956D1*
X2485425Y2860384D1*
Y2866902D1*
X2484122Y2869509D1*
X2474997Y2878634D1*
X2472390Y2879938D1*
X2426766D1*
G37*
G36*
X2574066D2*
Y2868206D1*
X2583191D1*
X2584495Y2869509D1*
Y2878634D1*
X2583191Y2879938D1*
X2574066D1*
G37*
G36*
X2634029D2*
Y2868206D1*
X2643154D1*
X2644458Y2869509D1*
Y2878634D1*
X2643154Y2879938D1*
X2634029D1*
G37*
G36*
X2653583D2*
Y2868206D1*
X2683564D1*
Y2879938D1*
X2653583D1*
G37*
G36*
X2923416D2*
X2911684Y2868206D1*
Y2848653D1*
X2922112D1*
Y2866902D1*
X2925154Y2868206D1*
X2928196D1*
X2931237Y2866902D1*
Y2848653D1*
X2941666D1*
Y2868206D1*
X2929934Y2879938D1*
X2923416D1*
G37*
G36*
X2971647D2*
Y2868206D1*
X2980772D1*
X2982075Y2869509D1*
Y2878634D1*
X2980772Y2879938D1*
X2971647D1*
G37*
G36*
X2991200D2*
Y2868206D1*
X3001629D1*
Y2879938D1*
X2991200D1*
G37*
G36*
X3070716D2*
Y2848653D1*
X3081145D1*
Y2879938D1*
X3070716D1*
G37*
G36*
X3091573D2*
X3090270Y2878634D1*
Y2848653D1*
X3100698D1*
Y2879938D1*
X3091573D1*
G37*
G36*
X3171089D2*
X3169786Y2878634D1*
Y2869509D1*
X3171089Y2868206D1*
X3199767D1*
X3201071Y2869509D1*
Y2878634D1*
X3199767Y2879938D1*
X3171089D1*
G37*
G36*
X1222292Y2859081D2*
X1232720Y2848653D1*
X1280951D1*
X1291380Y2859081D1*
X1222292D1*
G37*
G36*
X1540357D2*
Y2848653D1*
X1550785D1*
Y2859081D1*
X1540357D1*
G37*
G36*
X1600320D2*
Y2848653D1*
X1610748D1*
Y2859081D1*
X1600320D1*
G37*
G36*
X1619873D2*
X1630301Y2848653D1*
X1678532D1*
X1688961Y2859081D1*
X1619873D1*
G37*
G36*
X1778905D2*
X1789333Y2848653D1*
X1837564D1*
X1847993Y2859081D1*
X1778905D1*
G37*
G36*
X1858421D2*
Y2848653D1*
X1868849D1*
Y2859081D1*
X1858421D1*
G37*
G36*
X1918384D2*
Y2848653D1*
X1928812D1*
Y2859081D1*
X1918384D1*
G37*
G36*
X2434587D2*
Y2848653D1*
X2464569D1*
Y2859081D1*
X2434587D1*
G37*
G36*
X2574066D2*
X2584495Y2848653D1*
X2632726D1*
X2643154Y2859081D1*
X2574066D1*
G37*
G36*
X3130679D2*
X3141108Y2848653D1*
X3189339D1*
X3199767Y2859081D1*
X3130679D1*
G37*
X390532Y845329D2*
D110*
Y871582D1*
X409655Y857267D1*
Y864452D1*
X412032Y869205D1*
X414409Y871582D1*
X421594Y874014D1*
X426347D1*
X433532Y871582D1*
X438340Y866829D1*
X440717Y859644D1*
Y852459D1*
X438340Y845329D1*
X435908Y842952D1*
X431155Y840520D1*
X435908Y891829D2*
X438340Y889453D1*
X440717Y891829D1*
X438340Y894261D1*
X435908Y891829D1*
X440717Y919262D2*
X390532Y943194D1*
Y909701D1*
X390477Y958633D2*
X440717Y977756D1*
X390477Y996880D1*
X1981597Y939090D2*
X2003152Y977337D1*
X2024652Y939090D1*
X2028217Y1031078D2*
X1977977Y1011899D1*
X2028217Y992776D1*
X2011470Y999961D2*
Y1023893D1*
X1989970Y1048949D2*
X1987594D1*
X1982785Y1051326D1*
X1980409Y1053702D1*
X1978032Y1058511D1*
Y1068072D1*
X1980409Y1072825D1*
X1982785Y1075202D1*
X1987594Y1077634D1*
X1992347D1*
X1997155Y1075202D1*
X2004285Y1070449D1*
X2028217Y1046517D1*
Y1080010D1*
Y1095450D2*
X1978032Y1128943D1*
X1977977Y1144382D2*
X2028217D1*
X1977977Y1174192D2*
X1980354Y1169383D1*
X1985162Y1164630D1*
X1989915Y1162198D1*
X1997100Y1159821D1*
X2009094D1*
X2016223Y1162198D1*
X2021032Y1164630D1*
X2025785Y1169383D1*
X2028217Y1174192D1*
Y1183753D1*
X2025785Y1188506D1*
X2021032Y1193315D1*
X2016223Y1195691D1*
X2009094Y1198068D1*
X1997100D1*
X1989915Y1195691D1*
X1985162Y1193315D1*
X1980354Y1188506D1*
X1977977Y1183753D1*
Y1174192D1*
X1978032Y1218316D2*
Y1244569D1*
X1997155Y1230254D1*
Y1237439D1*
X1999532Y1242192D1*
X2001909Y1244569D1*
X2009094Y1247001D1*
X2013847D1*
X2021032Y1244569D1*
X2025840Y1239816D1*
X2028217Y1232630D1*
Y1225445D1*
X2025840Y1218316D1*
X2023408Y1215939D1*
X2018655Y1213507D1*
X2028217Y1286372D2*
X1978032D1*
X2011470Y1262440D1*
Y1298310D1*
X2997919Y2307150D2*
X2995542Y2311903D1*
X2990734Y2316712D1*
X2985980Y2319088D1*
X2976419D1*
X2971610Y2316712D1*
X2966857Y2311903D1*
X2964425Y2307150D1*
X2962049Y2299965D1*
Y2287972D1*
X2964425Y2280842D1*
X2966857Y2276033D1*
X2971610Y2271280D1*
X2976419Y2268848D1*
X2985980D1*
X2990734Y2271280D1*
X2995542Y2276033D1*
X2997919Y2280842D1*
X3013358Y2309472D2*
X3018166Y2311903D1*
X3025351Y2319033D1*
Y2268848D1*
X1837169Y1132150D2*
X1834792Y1136903D1*
X1829984Y1141712D1*
X1825230Y1144088D1*
X1815669D1*
X1810860Y1141712D1*
X1806107Y1136903D1*
X1803675Y1132150D1*
X1801299Y1124965D1*
Y1112972D1*
X1803675Y1105842D1*
X1806107Y1101033D1*
X1810860Y1096280D1*
X1815669Y1093848D1*
X1825230D1*
X1829984Y1096280D1*
X1834792Y1101033D1*
X1837169Y1105842D1*
X1881293Y1144033D2*
X1857416D1*
X1855040Y1122533D1*
X1857416Y1124910D1*
X1864601Y1127342D1*
X1871731D1*
X1878916Y1124910D1*
X1883725Y1120157D1*
X1886101Y1112972D1*
Y1108219D1*
X1883725Y1101033D1*
X1878916Y1096225D1*
X1871731Y1093848D1*
X1864601D1*
X1857416Y1096225D1*
X1855040Y1098657D1*
X1852608Y1103410D1*
X3043160Y2691077D2*
X3045536Y2686323D1*
X3050345Y2681515D1*
X3055098Y2679138D1*
X3064659D1*
X3069468Y2681515D1*
X3074221Y2686323D1*
X3076653Y2691077D1*
X3079029Y2698262D1*
Y2710255D1*
X3076653Y2717385D1*
X3074221Y2722193D1*
X3069468Y2726946D1*
X3064659Y2729378D1*
X3055098D1*
X3050345Y2726946D1*
X3045536Y2722193D1*
X3043160Y2717385D1*
X2989419Y2729378D2*
X3008597Y2679138D1*
X3027720Y2729378D1*
X3020535Y2712632D2*
X2996604D1*
X2935733Y2729378D2*
Y2679138D1*
X2954856Y2729378D1*
X2973979Y2679138D1*
Y2729378D1*
X3189915Y2612702D2*
X3185162Y2610326D1*
X3180354Y2605517D1*
X3177977Y2600764D1*
Y2591203D1*
X3180354Y2586394D1*
X3185162Y2581641D1*
X3189915Y2579209D1*
X3197100Y2576832D1*
X3209094D1*
X3216223Y2579209D1*
X3221032Y2581641D1*
X3225785Y2586394D1*
X3228217Y2591203D1*
Y2600764D1*
X3225785Y2605517D1*
X3221032Y2610326D1*
X3216223Y2612702D1*
X3209094D1*
Y2600764D1*
X3177977Y2661635D2*
X3228217D1*
X3177977Y2628142D1*
X3228217D1*
X3177977Y2677074D2*
X3228217D1*
Y2693821D1*
X3225785Y2701006D1*
X3221032Y2705814D1*
X3216223Y2708191D1*
X3209094Y2710568D1*
X3197100D1*
X3189915Y2708191D1*
X3185162Y2705814D1*
X3180354Y2701006D1*
X3177977Y2693821D1*
Y2677074D1*
X1977977Y739986D2*
X2028217D1*
X1977977Y769795D2*
X1980354Y764987D1*
X1985162Y760234D1*
X1989915Y757802D1*
X1997100Y755425D1*
X2009094D1*
X2016223Y757802D1*
X2021032Y760234D1*
X2025785Y764987D1*
X2028217Y769795D1*
Y779357D1*
X2025785Y784110D1*
X2021032Y788919D1*
X2016223Y791295D1*
X2009094Y793672D1*
X1997100D1*
X1989915Y791295D1*
X1985162Y788919D1*
X1980354Y784110D1*
X1977977Y779357D1*
Y769795D1*
X1987594Y809111D2*
X1985162Y813920D1*
X1978032Y821105D1*
X2028217D1*
Y860476D2*
X1978032D1*
X2011470Y836544D1*
Y872414D1*
X1977977Y542925D2*
X2028217D1*
X1977977Y572734D2*
X1980354Y567925D1*
X1985162Y563172D1*
X1989915Y560740D1*
X1997100Y558364D1*
X2009094D1*
X2016223Y560740D1*
X2021032Y563172D1*
X2025785Y567925D1*
X2028217Y572734D1*
Y582295D1*
X2025785Y587049D1*
X2021032Y591857D1*
X2016223Y594234D1*
X2009094Y596610D1*
X1997100D1*
X1989915Y594234D1*
X1985162Y591857D1*
X1980354Y587049D1*
X1977977Y582295D1*
Y572734D1*
X1978032Y616858D2*
Y643111D1*
X1997155Y628796D1*
Y635981D1*
X1999532Y640734D1*
X2001909Y643111D1*
X2009094Y645543D1*
X2013847D1*
X2021032Y643111D1*
X2025840Y638358D1*
X2028217Y631173D1*
Y623988D1*
X2025840Y616858D1*
X2023408Y614481D1*
X2018655Y612050D1*
X1989970Y663414D2*
X1987594D1*
X1982785Y665791D1*
X1980409Y668167D1*
X1978032Y672976D1*
Y682537D1*
X1980409Y687290D1*
X1982785Y689667D1*
X1987594Y692099D1*
X1992347D1*
X1997155Y689667D1*
X2004285Y684914D1*
X2028217Y660982D1*
Y694475D1*
X2414079Y2154449D2*
X2452326D1*
X2459511Y2152073D1*
X2461887Y2149641D1*
X2464319Y2144888D1*
Y2140079D1*
X2461887Y2135326D1*
X2459511Y2132950D1*
X2452326Y2130518D1*
X2447573D1*
X2423696Y2169889D2*
X2421264Y2174697D1*
X2414135Y2181882D1*
X2464319D1*
X1443700Y1209541D2*
Y1171295D1*
X1441323Y1164110D1*
X1438891Y1161733D1*
X1434138Y1159301D1*
X1429329D1*
X1424576Y1161733D1*
X1422200Y1164110D1*
X1419768Y1171295D1*
Y1176048D1*
X1461571Y1197548D2*
Y1199924D1*
X1463947Y1204733D1*
X1466324Y1207109D1*
X1471132Y1209486D1*
X1480694D1*
X1485447Y1207109D1*
X1487824Y1204733D1*
X1490256Y1199924D1*
Y1195171D1*
X1487824Y1190363D1*
X1483071Y1183233D1*
X1459139Y1159301D1*
X1492632D1*
X2466638Y1480806D2*
X2504885D1*
X2512070Y1478429D1*
X2514446Y1475997D1*
X2516878Y1471244D1*
Y1466436D1*
X2514446Y1461683D1*
X2512070Y1459306D1*
X2504885Y1456874D1*
X2500132D1*
X2466694Y1501054D2*
Y1527307D1*
X2485817Y1512992D1*
Y1520177D1*
X2488193Y1524930D1*
X2490570Y1527307D1*
X2497755Y1529738D1*
X2502508D1*
X2509693Y1527307D1*
X2514502Y1522553D1*
X2516878Y1515368D1*
Y1508183D1*
X2514502Y1501054D1*
X2512070Y1498677D1*
X2507317Y1496245D1*
X2057315Y1111882D2*
D112*
Y1077438D1*
X2040115Y1094638D2*
X2074559D1*
X2678675Y1765250D2*
D110*
Y1715010D1*
X2707360D1*
X2756292Y1758065D2*
X2751539Y1762873D1*
X2744354Y1765250D1*
X2734793D1*
X2727607Y1762873D1*
X2722799Y1758065D1*
Y1753312D1*
X2725231Y1748503D1*
X2727607Y1746127D1*
X2732361Y1743750D1*
X2746731Y1738942D1*
X2751539Y1736565D1*
X2753916Y1734133D1*
X2756292Y1729380D1*
Y1722195D1*
X2751539Y1717442D1*
X2744354Y1715010D1*
X2734793D1*
X2727607Y1717442D1*
X2722799Y1722195D1*
X2771732Y1755633D2*
X2776540Y1758065D1*
X2783725Y1765195D1*
Y1715010D1*
X2816765Y2679138D2*
Y2729378D1*
X2850258Y2679138D1*
Y2729378D1*
X2770264Y2679138D2*
X2801326D1*
Y2729378D1*
X2770264D1*
X2801326Y2703070D2*
X2782202D1*
X2740455Y2679138D2*
X2745263Y2681515D1*
X2750016Y2686323D1*
X2752448Y2691077D1*
X2754825Y2698262D1*
Y2710255D1*
X2752448Y2717385D1*
X2750016Y2722193D1*
X2745263Y2726946D1*
X2740455Y2729378D1*
X2730893D1*
X2726140Y2726946D1*
X2721332Y2722193D1*
X2718955Y2717385D1*
X2716578Y2710255D1*
Y2698262D1*
X2718955Y2691077D1*
X2721332Y2686323D1*
X2726140Y2681515D1*
X2730893Y2679138D1*
X2740455D1*
X2701139Y2705447D2*
X2679584D1*
X2672454Y2703070D1*
X2670022Y2700638D1*
X2667646Y2695885D1*
Y2688700D1*
X2670022Y2683947D1*
X2672454Y2681515D1*
X2679584Y2679138D1*
X2701139D1*
Y2729378D1*
X2652207Y2679138D2*
Y2729378D1*
X2636767Y2679138D2*
X2603274Y2729378D1*
Y2679138D2*
X2636767Y2729378D1*
X2556773Y2679138D2*
X2587835D1*
Y2729378D1*
X2556773D1*
X2587835Y2703070D2*
X2568712D1*
X2541334Y2679138D2*
Y2729378D1*
X2512649D1*
X2463717Y2686323D2*
X2468470Y2681515D1*
X2475655Y2679138D1*
X2485216D1*
X2492401Y2681515D1*
X2497210Y2686323D1*
Y2691077D1*
X2494778Y2695885D1*
X2492401Y2698262D1*
X2487648Y2700638D1*
X2473278Y2705447D1*
X2468470Y2707823D1*
X2466093Y2710255D1*
X2463717Y2715008D1*
Y2722193D1*
X2468470Y2726946D1*
X2475655Y2729378D1*
X2485216D1*
X2492401Y2726946D1*
X2497210Y2722193D1*
X1066161Y2589987D2*
Y2611487D1*
X1063729Y2618672D1*
X1061352Y2621104D1*
X1056599Y2623480D1*
X1051791D1*
X1047037Y2621104D1*
X1044605Y2618672D1*
X1042229Y2611487D1*
Y2589987D1*
X1092469D1*
X1066161Y2606734D2*
X1092469Y2623480D1*
X1054222Y2641351D2*
X1051846D1*
X1047037Y2643728D1*
X1044661Y2646105D1*
X1042284Y2650913D1*
Y2660475D1*
X1044661Y2665228D1*
X1047037Y2667605D1*
X1051846Y2670036D1*
X1056599D1*
X1061407Y2667605D1*
X1068537Y2662851D1*
X1092469Y2638920D1*
Y2672413D1*
X1289773Y2678105D2*
X1311273D1*
X1318458Y2680537D1*
X1320890Y2682913D1*
X1323266Y2687667D1*
Y2692475D1*
X1320890Y2697228D1*
X1318458Y2699660D1*
X1311273Y2702037D1*
X1289773D1*
Y2651797D1*
X1306520Y2678105D2*
X1323266Y2651797D1*
X1377007D2*
X1357829Y2702037D1*
X1338706Y2651797D1*
X1345891Y2668543D2*
X1369822D1*
X1404385Y2701981D2*
X1397255Y2699605D1*
X1394823Y2694852D1*
Y2690043D1*
X1397255Y2685290D1*
X1402008Y2682858D1*
X1411570Y2680481D1*
X1418755Y2678105D1*
X1423508Y2673296D1*
X1425885Y2668543D1*
Y2661358D1*
X1423508Y2656605D1*
X1421131Y2654173D1*
X1413946Y2651797D1*
X1404385D1*
X1397255Y2654173D1*
X1394823Y2656605D1*
X1392447Y2661358D1*
Y2668543D1*
X1394823Y2673296D1*
X1399632Y2678105D1*
X1406761Y2680481D1*
X1416323Y2682858D1*
X1421131Y2685290D1*
X1423508Y2690043D1*
Y2694852D1*
X1421131Y2699605D1*
X1413946Y2701981D1*
X1404385D1*
X1453262D2*
X1446132Y2699605D1*
X1443700Y2694852D1*
Y2690043D1*
X1446132Y2685290D1*
X1450885Y2682858D1*
X1460447Y2680481D1*
X1467632Y2678105D1*
X1472385Y2673296D1*
X1474762Y2668543D1*
Y2661358D1*
X1472385Y2656605D1*
X1470009Y2654173D1*
X1462824Y2651797D1*
X1453262D1*
X1446132Y2654173D1*
X1443700Y2656605D1*
X1441324Y2661358D1*
Y2668543D1*
X1443700Y2673296D1*
X1448509Y2678105D1*
X1455639Y2680481D1*
X1465200Y2682858D1*
X1470009Y2685290D1*
X1472385Y2690043D1*
Y2694852D1*
X1470009Y2699605D1*
X1462824Y2701981D1*
X1453262D1*
X1499763Y2651797D2*
X1523695Y2701981D1*
X1490201D1*
X1567819D2*
X1543942D1*
X1541566Y2680481D1*
X1543942Y2682858D1*
X1551127Y2685290D1*
X1558257D1*
X1565442Y2682858D1*
X1570250Y2678105D1*
X1572627Y2670920D1*
Y2666167D1*
X1570250Y2658982D1*
X1565442Y2654173D1*
X1558257Y2651797D1*
X1551127D1*
X1543942Y2654173D1*
X1541566Y2656605D1*
X1539134Y2661358D1*
X1498600Y1439647D2*
X1493847Y1444456D1*
X1486662Y1446832D1*
X1477101D1*
X1469915Y1444456D1*
X1465107Y1439647D1*
Y1434894D1*
X1467539Y1430086D1*
X1469915Y1427709D1*
X1474669Y1425332D1*
X1489039Y1420524D1*
X1493847Y1418147D1*
X1496224Y1415715D1*
X1498600Y1410962D1*
Y1403777D1*
X1493847Y1399024D1*
X1486662Y1396592D1*
X1477101D1*
X1469915Y1399024D1*
X1465107Y1403777D1*
X1514040Y1437215D2*
X1518848Y1439647D1*
X1526033Y1446777D1*
Y1396592D1*
X330812Y1315079D2*
X326003Y1310326D1*
X323627Y1303141D1*
Y1293579D1*
X326003Y1286394D1*
X330812Y1281586D1*
X335565D1*
X340373Y1284017D1*
X342750Y1286394D1*
X345126Y1291147D1*
X349935Y1305517D1*
X352311Y1310326D1*
X354743Y1312702D1*
X359496Y1315079D1*
X366682D1*
X371435Y1310326D1*
X373867Y1303141D1*
Y1293579D1*
X371435Y1286394D1*
X366682Y1281586D1*
X323627Y1330518D2*
X373867Y1342512D1*
X323627Y1354450D1*
X373867Y1366388D1*
X323627Y1378382D1*
X333243Y1393821D2*
X330812Y1398629D1*
X323682Y1405814D1*
X373867D1*
X1363237Y2163958D2*
Y2128088D1*
X1365614Y2120903D1*
X1370422Y2116150D1*
X1377607Y2113718D1*
X1382360D1*
X1389545Y2116150D1*
X1394354Y2120903D1*
X1396730Y2128088D1*
Y2163958D1*
X1412170Y2154341D2*
X1416978Y2156773D1*
X1424163Y2163903D1*
Y2113718D1*
X2637603Y1793235D2*
X2673473D1*
X2680658Y1795612D1*
X2685411Y1800420D1*
X2687843Y1807605D1*
Y1812358D1*
X2685411Y1819543D1*
X2680658Y1824352D1*
X2673473Y1826728D1*
X2637603D1*
X2637658Y1846976D2*
Y1873229D1*
X2656781Y1858914D1*
Y1866099D1*
X2659158Y1870853D1*
X2661535Y1873229D1*
X2668720Y1875661D1*
X2673473D1*
X2680658Y1873229D1*
X2685466Y1868476D1*
X2687843Y1861291D1*
Y1854106D1*
X2685466Y1846976D1*
X2683034Y1844600D1*
X2678281Y1842168D1*
M02*
