G04 DipTrace 4.2.0.1*
G04 BottomAssembly.gbr*
%MOIN*%
G04 #@! TF.FileFunction,Drawing,Bot*
G04 #@! TF.Part,Single*
%ADD10C,0.004724*%
%FSLAX26Y26*%
G04*
G70*
G90*
G75*
G01*
G04 BotAssy*
%LPD*%
X1964567Y3562598D2*
D10*
X1822835D1*
Y3124803D1*
X1964567D1*
Y3562598D1*
X1893701Y3043701D2*
Y3124803D1*
Y3562598D2*
Y3643701D1*
X574803Y4564567D2*
Y4422835D1*
X1012598D1*
Y4564567D1*
X574803D1*
X1093701Y4493701D2*
X1012598D1*
X574803D2*
X493701D1*
X574803Y4264567D2*
Y4122835D1*
X1012598D1*
Y4264567D1*
X574803D1*
X1093701Y4193701D2*
X1012598D1*
X574803D2*
X493701D1*
X574803Y3964567D2*
Y3822835D1*
X1012598D1*
Y3964567D1*
X574803D1*
X1093701Y3893701D2*
X1012598D1*
X574803D2*
X493701D1*
X574803Y3664567D2*
Y3522835D1*
X1012598D1*
Y3664567D1*
X574803D1*
X1093701Y3593701D2*
X1012598D1*
X574803D2*
X493701D1*
X574803Y3364567D2*
Y3222835D1*
X1012598D1*
Y3364567D1*
X574803D1*
X1093701Y3293701D2*
X1012598D1*
X574803D2*
X493701D1*
X574803Y3064567D2*
Y2922835D1*
X1012598D1*
Y3064567D1*
X574803D1*
X1093701Y2993701D2*
X1012598D1*
X574803D2*
X493701D1*
X574803Y2764567D2*
Y2622835D1*
X1012598D1*
Y2764567D1*
X574803D1*
X1093701Y2693701D2*
X1012598D1*
X574803D2*
X493701D1*
X574803Y2464567D2*
Y2322835D1*
X1012598D1*
Y2464567D1*
X574803D1*
X1093701Y2393701D2*
X1012598D1*
X574803D2*
X493701D1*
X574803Y2164567D2*
Y2022835D1*
X1012598D1*
Y2164567D1*
X574803D1*
X1093701Y2093701D2*
X1012598D1*
X574803D2*
X493701D1*
X574803Y1864567D2*
Y1722835D1*
X1012598D1*
Y1864567D1*
X574803D1*
X1093701Y1793701D2*
X1012598D1*
X574803D2*
X493701D1*
X3512598Y2722835D2*
Y2864567D1*
X3074803D1*
Y2722835D1*
X3512598D1*
X2993701Y2793701D2*
X3074803D1*
X3512598D2*
X3593701D1*
X3512598Y3022835D2*
Y3164567D1*
X3074803D1*
Y3022835D1*
X3512598D1*
X2993701Y3093701D2*
X3074803D1*
X3512598D2*
X3593701D1*
X3512598Y3322835D2*
Y3464567D1*
X3074803D1*
Y3322835D1*
X3512598D1*
X2993701Y3393701D2*
X3074803D1*
X3512598D2*
X3593701D1*
X3512598Y3622835D2*
Y3764567D1*
X3074803D1*
Y3622835D1*
X3512598D1*
X2993701Y3693701D2*
X3074803D1*
X3512598D2*
X3593701D1*
X3512598Y3922835D2*
Y4064567D1*
X3074803D1*
Y3922835D1*
X3512598D1*
X2993701Y3993701D2*
X3074803D1*
X3512598D2*
X3593701D1*
X3512598Y4222835D2*
Y4364567D1*
X3074803D1*
Y4222835D1*
X3512598D1*
X2993701Y4293701D2*
X3074803D1*
X3512598D2*
X3593701D1*
X1872835Y3924803D2*
X2014567D1*
Y4362598D1*
X1872835D1*
Y3924803D1*
X1943701Y4443701D2*
Y4362598D1*
Y3924803D2*
Y3843701D1*
X1664567Y4362598D2*
X1522835D1*
Y3924803D1*
X1664567D1*
Y4362598D1*
X1593701Y3843701D2*
Y3924803D1*
Y4362598D2*
Y4443701D1*
X1664567Y3562598D2*
X1522835D1*
Y3124803D1*
X1664567D1*
Y3562598D1*
X1593701Y3043701D2*
Y3124803D1*
Y3562598D2*
Y3643701D1*
M02*
