G04 DipTrace 4.2.0.1*
G04 TopAssembly.gbr*
%MOIN*%
G04 #@! TF.FileFunction,Drawing,Top*
G04 #@! TF.Part,Single*
%ADD10C,0.004724*%
%ADD27C,0.004699*%
%ADD42C,0.005997*%
%ADD43C,0.000013*%
%FSLAX26Y26*%
G04*
G70*
G90*
G75*
G01*
G04 TopAssy*
%LPD*%
X2084646Y1386220D2*
D10*
X2202756D1*
Y1701181D1*
X2084646D1*
Y1386220D1*
X1837008Y2100000D2*
G02X1837008Y2100000I206693J0D01*
G01*
G36*
X1876946Y1913560D2*
X1874377Y1913729D1*
X1871851Y1914231D1*
X1869413Y1915059D1*
X1867104Y1916198D1*
X1864963Y1917628D1*
X1863027Y1919326D1*
X1861329Y1921262D1*
X1859898Y1923403D1*
X1858760Y1925712D1*
X1857932Y1928151D1*
X1857430Y1930676D1*
X1857261Y1933245D1*
X1857430Y1935815D1*
X1857932Y1938340D1*
X1858760Y1940779D1*
X1859898Y1943088D1*
X1861329Y1945229D1*
X1863027Y1947165D1*
X1864963Y1948863D1*
X1867104Y1950293D1*
X1869413Y1951432D1*
X1871851Y1952260D1*
X1874377Y1952762D1*
X1876946Y1952930D1*
D1*
X1879516Y1952762D1*
X1882041Y1952260D1*
X1884479Y1951432D1*
X1886789Y1950293D1*
X1888930Y1948863D1*
X1890866Y1947165D1*
X1892563Y1945229D1*
X1893994Y1943088D1*
X1895133Y1940779D1*
X1895960Y1938340D1*
X1896463Y1935815D1*
X1896631Y1933245D1*
X1896463Y1930676D1*
X1895960Y1928151D1*
X1895133Y1925712D1*
X1893994Y1923403D1*
X1892563Y1921262D1*
X1890866Y1919326D1*
X1888930Y1917628D1*
X1886789Y1916198D1*
X1884479Y1915059D1*
X1882041Y1914231D1*
X1879516Y1913729D1*
X1876946Y1913560D1*
D1*
G37*
X987008Y1543701D2*
D10*
G02X987008Y1543701I206693J0D01*
G01*
G36*
X1007261Y1710455D2*
X1007430Y1713025D1*
X1007932Y1715550D1*
X1008760Y1717989D1*
X1009898Y1720298D1*
X1011329Y1722439D1*
X1013027Y1724375D1*
X1014963Y1726073D1*
X1017104Y1727503D1*
X1019413Y1728642D1*
X1021851Y1729470D1*
X1024377Y1729972D1*
X1026946Y1730140D1*
X1029516Y1729972D1*
X1032041Y1729470D1*
X1034479Y1728642D1*
X1036789Y1727503D1*
X1038930Y1726073D1*
X1040866Y1724375D1*
X1042563Y1722439D1*
X1043994Y1720298D1*
X1045133Y1717989D1*
X1045960Y1715550D1*
X1046463Y1713025D1*
X1046631Y1710455D1*
D1*
X1046463Y1707886D1*
X1045960Y1705361D1*
X1045133Y1702922D1*
X1043994Y1700613D1*
X1042563Y1698472D1*
X1040866Y1696536D1*
X1038930Y1694838D1*
X1036789Y1693408D1*
X1034479Y1692269D1*
X1032041Y1691441D1*
X1029516Y1690939D1*
X1026946Y1690770D1*
X1024377Y1690939D1*
X1021851Y1691441D1*
X1019413Y1692269D1*
X1017104Y1693408D1*
X1014963Y1694838D1*
X1013027Y1696536D1*
X1011329Y1698472D1*
X1009898Y1700613D1*
X1008760Y1702922D1*
X1007932Y1705361D1*
X1007430Y1707886D1*
X1007261Y1710455D1*
D1*
G37*
X1487008Y1543701D2*
D10*
G02X1487008Y1543701I206693J0D01*
G01*
G36*
X1507261Y1710455D2*
X1507430Y1713025D1*
X1507932Y1715550D1*
X1508760Y1717989D1*
X1509898Y1720298D1*
X1511329Y1722439D1*
X1513027Y1724375D1*
X1514963Y1726073D1*
X1517104Y1727503D1*
X1519413Y1728642D1*
X1521851Y1729470D1*
X1524377Y1729972D1*
X1526946Y1730140D1*
X1529516Y1729972D1*
X1532041Y1729470D1*
X1534479Y1728642D1*
X1536789Y1727503D1*
X1538930Y1726073D1*
X1540866Y1724375D1*
X1542563Y1722439D1*
X1543994Y1720298D1*
X1545133Y1717989D1*
X1545960Y1715550D1*
X1546463Y1713025D1*
X1546631Y1710455D1*
D1*
X1546463Y1707886D1*
X1545960Y1705361D1*
X1545133Y1702922D1*
X1543994Y1700613D1*
X1542563Y1698472D1*
X1540866Y1696536D1*
X1538930Y1694838D1*
X1536789Y1693408D1*
X1534479Y1692269D1*
X1532041Y1691441D1*
X1529516Y1690939D1*
X1526946Y1690770D1*
X1524377Y1690939D1*
X1521851Y1691441D1*
X1519413Y1692269D1*
X1517104Y1693408D1*
X1514963Y1694838D1*
X1513027Y1696536D1*
X1511329Y1698472D1*
X1509898Y1700613D1*
X1508760Y1702922D1*
X1507932Y1705361D1*
X1507430Y1707886D1*
X1507261Y1710455D1*
D1*
G37*
X2752756Y4381496D2*
D10*
X2634646D1*
Y4105906D1*
X2752756D1*
Y4381496D1*
X1385433Y1093701D2*
G02X1385433Y1093701I108268J0D01*
G01*
G36*
X1376858Y1190858D2*
X1377027Y1193428D1*
X1377529Y1195953D1*
X1378357Y1198391D1*
X1379496Y1200701D1*
X1380926Y1202842D1*
X1382624Y1204778D1*
X1384560Y1206475D1*
X1386701Y1207906D1*
X1389010Y1209045D1*
X1391448Y1209873D1*
X1393974Y1210375D1*
X1396543Y1210543D1*
X1399113Y1210375D1*
X1401638Y1209873D1*
X1404076Y1209045D1*
X1406386Y1207906D1*
X1408527Y1206475D1*
X1410463Y1204778D1*
X1412160Y1202842D1*
X1413591Y1200701D1*
X1414730Y1198391D1*
X1415558Y1195953D1*
X1416060Y1193428D1*
X1416228Y1190858D1*
D1*
X1416060Y1188289D1*
X1415558Y1185763D1*
X1414730Y1183325D1*
X1413591Y1181016D1*
X1412160Y1178875D1*
X1410463Y1176939D1*
X1408527Y1175241D1*
X1406386Y1173811D1*
X1404076Y1172672D1*
X1401638Y1171844D1*
X1399113Y1171342D1*
X1396543Y1171173D1*
X1393974Y1171342D1*
X1391448Y1171844D1*
X1389010Y1172672D1*
X1386701Y1173811D1*
X1384560Y1175241D1*
X1382624Y1176939D1*
X1380926Y1178875D1*
X1379496Y1181016D1*
X1378357Y1183325D1*
X1377529Y1185763D1*
X1377027Y1188289D1*
X1376858Y1190858D1*
D1*
G37*
X1927953Y785433D2*
D10*
Y962598D1*
X1967323Y1001969D1*
X2459449D1*
Y785433D1*
X1927953D1*
X1807874Y893701D2*
X1927953D1*
X2459449D2*
X2579528D1*
X1085433Y1093701D2*
G02X1085433Y1093701I108268J0D01*
G01*
G36*
X1076858Y1190858D2*
X1077027Y1193428D1*
X1077529Y1195953D1*
X1078357Y1198391D1*
X1079496Y1200701D1*
X1080926Y1202842D1*
X1082624Y1204778D1*
X1084560Y1206475D1*
X1086701Y1207906D1*
X1089010Y1209045D1*
X1091448Y1209873D1*
X1093974Y1210375D1*
X1096543Y1210543D1*
X1099113Y1210375D1*
X1101638Y1209873D1*
X1104076Y1209045D1*
X1106386Y1207906D1*
X1108527Y1206475D1*
X1110463Y1204778D1*
X1112160Y1202842D1*
X1113591Y1200701D1*
X1114730Y1198391D1*
X1115558Y1195953D1*
X1116060Y1193428D1*
X1116228Y1190858D1*
D1*
X1116060Y1188289D1*
X1115558Y1185763D1*
X1114730Y1183325D1*
X1113591Y1181016D1*
X1112160Y1178875D1*
X1110463Y1176939D1*
X1108527Y1175241D1*
X1106386Y1173811D1*
X1104076Y1172672D1*
X1101638Y1171844D1*
X1099113Y1171342D1*
X1096543Y1171173D1*
X1093974Y1171342D1*
X1091448Y1171844D1*
X1089010Y1172672D1*
X1086701Y1173811D1*
X1084560Y1175241D1*
X1082624Y1176939D1*
X1080926Y1178875D1*
X1079496Y1181016D1*
X1078357Y1183325D1*
X1077529Y1185763D1*
X1077027Y1188289D1*
X1076858Y1190858D1*
D1*
G37*
X2440551Y2196063D2*
D10*
X2511417D1*
X2546850Y2160630D1*
Y1991339D1*
X2440551D1*
Y2196063D1*
X2493701Y2268701D2*
Y2196063D1*
Y1991339D2*
Y1918701D1*
X1391340Y438583D2*
Y609449D1*
X1430710Y648819D1*
X1796063D1*
Y438583D1*
X1391340D1*
X1841339D2*
Y609449D1*
X1880709Y648819D1*
X3346063D1*
Y438583D1*
X1841339D1*
X3648819Y491340D2*
X3477953D1*
X3438583Y530710D1*
Y896063D1*
X3648819D1*
Y491340D1*
X3648902Y941302D2*
D27*
X3477873Y941299D1*
X3438502Y980669D1*
X3438497Y1246099D1*
X3648896Y1246103D1*
X3648902Y941302D1*
X3491339Y1561549D2*
D10*
Y1760630D1*
X3596063D1*
Y1526772D1*
X3526115D1*
X3491339Y1561549D1*
X3491340Y1911548D2*
X3491336Y2110629D1*
X3596061Y2110631D1*
X3596065Y1876773D1*
X3526118Y1876771D1*
X3491340Y1911548D1*
X2764567Y2962598D2*
X2622835D1*
Y2524803D1*
X2764567D1*
Y2962598D1*
X2693701Y3043701D2*
Y2962598D1*
Y2524803D2*
Y2443701D1*
X2797835Y1924803D2*
X2939567D1*
Y2362598D1*
X2797835D1*
Y1924803D1*
X2868701Y1843701D2*
Y1924803D1*
Y2362598D2*
Y2443701D1*
X2324803Y1214567D2*
Y1072835D1*
X2762598D1*
Y1214567D1*
X2324803D1*
X2243701Y1143701D2*
X2324803D1*
X2762598D2*
X2843701D1*
X1303701Y2321706D2*
D42*
Y2365696D1*
X1271706D1*
Y2321706D1*
X1303701D1*
Y2221706D2*
Y2265696D1*
X1271706D1*
Y2221706D1*
X1303701D1*
Y2121706D2*
Y2165696D1*
X1271706D1*
Y2121706D1*
X1303701D1*
Y2021706D2*
Y2065696D1*
X1271706D1*
Y2021706D1*
X1303701D1*
X1583701Y2065696D2*
Y2021706D1*
X1615696D1*
Y2065696D1*
X1583701D1*
Y2165696D2*
Y2121706D1*
X1615696D1*
Y2165696D1*
X1583701D1*
Y2265696D2*
Y2221706D1*
X1615696D1*
Y2265696D1*
X1583701D1*
Y2365696D2*
Y2321706D1*
X1615696D1*
Y2365696D1*
X1583701D1*
X1303701Y2000696D2*
X1583701D1*
Y2386706D1*
X1455696D1*
X1431706D1*
X1303701D1*
Y2000696D1*
X1455696Y2386706D2*
D43*
G02X1431706Y2386706I-11995J-13D01*
G01*
X1834646Y1193701D2*
D10*
X1952756D1*
Y1093701D1*
X1834646D1*
Y1193701D1*
M02*
