G04 DipTrace 4.2.0.1*
G04 TopDimension.gbr*
%MOIN*%
G04 #@! TF.FileFunction,Drawing,Top*
G04 #@! TF.Part,Single*
%ADD13C,0.001181*%
%ADD112C,0.006176*%
%FSLAX26Y26*%
G04*
G70*
G90*
G75*
G01*
G04 TopDimension*
%LPD*%
X393701Y393701D2*
D13*
Y-100984D1*
X3693701Y393701D2*
Y-100984D1*
X2043701Y-81299D2*
X433071D1*
G36*
X393701D2*
X433071Y-73425D1*
Y-89173D1*
X393701Y-81299D1*
G37*
X2043701D2*
D13*
X3654331D1*
G36*
X3693701D2*
X3654331Y-89173D1*
Y-73425D1*
X3693701Y-81299D1*
G37*
X393701Y4643701D2*
D13*
X174016D1*
X393701Y393701D2*
X174016D1*
X193701Y2518701D2*
Y4604331D1*
G36*
Y4643701D2*
X201575Y4604331D1*
X185827D1*
X193701Y4643701D1*
G37*
Y2518701D2*
D13*
Y433071D1*
G36*
Y393701D2*
X185827Y433071D1*
X201575D1*
X193701Y393701D1*
G37*
X1976168Y-28941D2*
D112*
X1970464Y-30842D1*
X1968519Y-34644D1*
Y-38491D1*
X1970464Y-42294D1*
X1974267Y-44239D1*
X1981916Y-46141D1*
X1987664Y-48042D1*
X1991467Y-51889D1*
X1993368Y-55691D1*
Y-61439D1*
X1991467Y-65242D1*
X1989565Y-67187D1*
X1983817Y-69088D1*
X1976168D1*
X1970464Y-67187D1*
X1968519Y-65242D1*
X1966617Y-61439D1*
Y-55691D1*
X1968519Y-51889D1*
X1972365Y-48042D1*
X1978069Y-46141D1*
X1985718Y-44239D1*
X1989565Y-42294D1*
X1991467Y-38491D1*
Y-34644D1*
X1989565Y-30842D1*
X1983817Y-28941D1*
X1976168D1*
X2009566D2*
X2030568D1*
X2019117Y-44239D1*
X2024865D1*
X2028667Y-46141D1*
X2030568Y-48042D1*
X2032514Y-53790D1*
Y-57592D1*
X2030568Y-63340D1*
X2026766Y-67187D1*
X2021018Y-69088D1*
X2015270D1*
X2009566Y-67187D1*
X2007665Y-65242D1*
X2005719Y-61439D1*
X2046767Y-65242D2*
X2044865Y-67187D1*
X2046767Y-69088D1*
X2048712Y-67187D1*
X2046767Y-65242D1*
X2070614Y-28941D2*
X2064910Y-30842D1*
X2062965Y-34644D1*
Y-38491D1*
X2064910Y-42294D1*
X2068713Y-44239D1*
X2076362Y-46141D1*
X2082110Y-48042D1*
X2085913Y-51889D1*
X2087814Y-55691D1*
Y-61439D1*
X2085913Y-65242D1*
X2084011Y-67187D1*
X2078263Y-69088D1*
X2070614D1*
X2064910Y-67187D1*
X2062965Y-65242D1*
X2061063Y-61439D1*
Y-55691D1*
X2062965Y-51889D1*
X2066811Y-48042D1*
X2072515Y-46141D1*
X2080165Y-44239D1*
X2084011Y-42294D1*
X2085913Y-38491D1*
Y-34644D1*
X2084011Y-30842D1*
X2078263Y-28941D1*
X2070614D1*
X2102111Y-38491D2*
Y-36590D1*
X2104012Y-32743D1*
X2105913Y-30842D1*
X2109760Y-28941D1*
X2117409D1*
X2121212Y-30842D1*
X2123113Y-32743D1*
X2125059Y-36590D1*
Y-40393D1*
X2123113Y-44239D1*
X2119311Y-49943D1*
X2100165Y-69088D1*
X2126960D1*
X148992Y2431551D2*
X147046Y2435397D1*
X141342Y2441145D1*
X181490D1*
X141342Y2464993D2*
X143244Y2459245D1*
X148992Y2455398D1*
X158542Y2453497D1*
X164290D1*
X173841Y2455398D1*
X179589Y2459245D1*
X181490Y2464993D1*
Y2468795D1*
X179589Y2474543D1*
X173841Y2478346D1*
X164290Y2480292D1*
X158542D1*
X148992Y2478346D1*
X143244Y2474543D1*
X141342Y2468795D1*
Y2464993D1*
X148992Y2478346D2*
X173841Y2455398D1*
X181490Y2500292D2*
X141342Y2519438D1*
Y2492643D1*
X177643Y2533690D2*
X179589Y2531789D1*
X181490Y2533690D1*
X179589Y2535636D1*
X177643Y2533690D1*
X154695Y2572881D2*
X160443Y2570935D1*
X164290Y2567133D1*
X166191Y2561384D1*
Y2559483D1*
X164290Y2553735D1*
X160443Y2549933D1*
X154695Y2547987D1*
X152794D1*
X147046Y2549933D1*
X143244Y2553735D1*
X141342Y2559483D1*
Y2561384D1*
X143244Y2567133D1*
X147046Y2570935D1*
X154695Y2572881D1*
X164290D1*
X173841Y2570935D1*
X179589Y2567133D1*
X181490Y2561384D1*
Y2557582D1*
X179589Y2551834D1*
X175742Y2549933D1*
X141342Y2608180D2*
Y2589079D1*
X158542Y2587177D1*
X156641Y2589079D1*
X154695Y2594827D1*
Y2600531D1*
X156641Y2606279D1*
X160443Y2610125D1*
X166191Y2612027D1*
X169994D1*
X175742Y2610125D1*
X179589Y2606279D1*
X181490Y2600531D1*
Y2594827D1*
X179589Y2589079D1*
X177643Y2587177D1*
X173841Y2585232D1*
M02*
