G04 DipTrace 4.2.0.1*
G04 1 - Top.gbr*
%MOIN*%
G04 #@! TF.FileFunction,Copper,L1,Top*
G04 #@! TF.Part,Single*
G04 #@! TA.AperFunction,Conductor*
%ADD14C,0.012992*%
G04 #@! TA.AperFunction,CopperBalancing*
%ADD15C,0.025*%
G04 #@! TA.AperFunction,ComponentPad*
%ADD16C,0.050394*%
%ADD17R,0.050394X0.050394*%
%ADD18R,0.045276X0.045276*%
%ADD19C,0.045276*%
%ADD20R,0.047244X0.047244*%
%ADD21C,0.047244*%
%ADD22R,0.062598X0.062598*%
%ADD23C,0.062598*%
%ADD24R,0.06378X0.06378*%
%ADD25C,0.06378*%
%ADD28R,0.0644X0.0644*%
%ADD29C,0.0644*%
%ADD30R,0.075591X0.075591*%
%ADD31C,0.075591*%
%ADD32R,0.15748X0.059055*%
G04 #@! TA.AperFunction,ComponentPad*
%ADD33C,0.059055*%
%ADD34R,0.059055X0.15748*%
G04 #@! TA.AperFunction,ComponentPad*
%ADD35C,0.045669*%
%ADD37C,0.051496*%
%ADD38C,0.075591*%
%ADD41C,0.068005*%
%ADD44C,0.065997*%
%ADD45R,0.065997X0.065997*%
G04 #@! TA.AperFunction,ViaPad*
%ADD46C,0.04*%
%FSLAX26Y26*%
G04*
G70*
G90*
G75*
G01*
G04 Top*
%LPD*%
X1893701Y543701D2*
D14*
Y3020866D1*
X2220866Y1143701D2*
Y1270866D1*
X2268701Y1318701D1*
Y1718699D1*
X2218699Y1768701D1*
X2198820D1*
X2171260Y1741140D1*
Y1688740D1*
X1443701Y3293701D2*
X1643701D1*
X1693701Y3243701D1*
Y743701D1*
X1795079Y642323D1*
Y518307D1*
X1821063Y492323D1*
X2442323D1*
X2493701Y543701D1*
X2970866Y2793701D2*
X3039770Y2724797D1*
Y2319685D1*
X3065755Y2293701D1*
X3443701D1*
X2970866Y3093701D2*
X3182852Y2881715D1*
Y2727165D1*
X3208837Y2701181D1*
X3443701D1*
X3296157Y3393701D2*
Y3134646D1*
X3322142Y3108661D1*
X3443701D1*
X2970866Y3693701D2*
X3148425Y3516142D1*
X3443701D1*
X2970866Y3993701D2*
X3040945Y3923622D1*
X3443701D1*
X2970866Y4293701D2*
X3277642D1*
X3315043Y4331102D1*
X3443701D1*
X2229453Y1693701D2*
Y1367291D1*
X2093701Y1231538D1*
Y543701D1*
X2293701D2*
Y2317995D1*
X2090161Y2521535D1*
Y3367717D1*
X2064177Y3393701D1*
X1443701D1*
X2393701Y1232205D2*
Y680295D1*
X2543701Y1310295D2*
Y750039D1*
X2593701Y700039D1*
X2693701Y2420866D2*
Y2002005D1*
X2486417Y1794720D1*
Y1450984D1*
X2543701Y1393701D1*
X1738469Y3493701D2*
X1443701D1*
X1540472Y3193701D2*
Y1450984D1*
X2243701Y3293701D2*
X2345669Y3191732D1*
Y647047D1*
X2371654Y621063D1*
X2816339D1*
X2893701Y543701D1*
X1116535Y4493701D2*
X1066535Y4543701D1*
X743701D1*
X1116535Y4193701D2*
X1059055Y4136220D1*
X743701D1*
X1116535Y3893701D2*
X951575Y3728740D1*
X743701D1*
X855437Y3321260D2*
X743701D1*
X1116535Y3293701D2*
X894925Y3072091D1*
Y2939768D1*
X868937Y2913780D1*
X743701D1*
X1116535Y2993701D2*
X920909Y2798075D1*
Y2532283D1*
X894925Y2506299D1*
X743701D1*
X1010858Y2693701D2*
Y2124803D1*
X984874Y2098819D1*
X743701D1*
Y1691339D2*
X921354Y1691343D1*
X619492Y1490469D2*
Y1291732D1*
X743701D1*
X1116535Y1793701D2*
X1158862Y1751374D1*
Y1362528D1*
X1292720Y1228669D1*
Y545472D1*
X1093701D1*
Y643701D1*
X1943701Y3820866D2*
X1740992D1*
X1593701D1*
X2493701Y2300000D2*
Y3194016D1*
X2688181Y3388496D1*
X1346189Y1366732D2*
X1241213Y1471709D1*
Y3491213D1*
X1443701Y3693701D1*
X3543701Y2043701D2*
X3442346D1*
X3416361Y2017717D1*
Y919685D1*
X3390377Y893701D1*
X2603150D1*
X1793701Y1143701D2*
Y893701D1*
X1784252D1*
X1443701Y3593701D2*
X1867717D1*
X1893701Y3619685D1*
X2090163D1*
X2116146Y3593701D1*
Y2719776D1*
X2319685Y2516236D1*
Y621063D1*
X2345669Y595079D1*
X2642323D1*
X2693701Y543701D1*
X1893701Y3666535D2*
Y3619685D1*
X1543701Y543701D2*
Y837421D1*
X1385677Y995445D1*
Y3035677D1*
X1443701Y3093701D1*
Y2993701D2*
X1463189D1*
X1500984Y2955906D1*
Y1261417D1*
X1618701Y1143701D1*
Y543701D1*
X1643701D1*
X3543701Y993701D2*
X3600988Y1050988D1*
Y2384646D1*
X3541933Y2443701D1*
Y2851181D1*
Y3258661D1*
Y3666142D1*
Y4073622D1*
X3443701D1*
X743701Y4393701D2*
X645472D1*
Y3986220D1*
Y3578740D1*
Y3171260D1*
Y2763780D1*
Y2356295D1*
Y1948819D1*
X619488Y1922835D1*
Y1567323D1*
X645472Y1541339D1*
X743701D1*
X645472Y3171260D2*
X743701D1*
X3541933Y3666142D2*
X3443701D1*
X3541933Y4073622D2*
Y4481102D1*
X3443701D1*
X645472Y1948819D2*
X743701D1*
Y2763780D2*
X645472D1*
X743701Y1541339D2*
X841933D1*
X867917Y1515354D1*
Y1476969D1*
X841933Y1450984D1*
Y1279614D1*
X861933Y1259614D1*
Y1141732D1*
X1243701Y759965D1*
Y643701D1*
X2043701Y2198425D2*
X2116142Y2125984D1*
Y1398661D1*
X743701Y3986220D2*
X645472D1*
X743701Y2356299D2*
X645472Y2356295D1*
X867917Y1476969D2*
X986827D1*
X1734567Y2143701D2*
Y1490472D1*
X3443701Y3258661D2*
X3541933D1*
X861933Y1141732D2*
X743701D1*
X645472Y3578740D2*
X743701D1*
X1593701Y4466535D2*
X1367937D1*
X1295102Y4393701D1*
X743701D1*
X2243701Y3993701D2*
X2066535D1*
X1593701Y4466535D1*
X3443701Y4073622D2*
X2750791D1*
X2670870Y3993701D1*
X2243701D1*
X3443701Y2851181D2*
X3541933D1*
X3443701Y2443701D2*
X3541933D1*
D46*
X3296157Y3393701D3*
X2229453Y1693701D3*
X2393701Y680295D3*
Y1232205D3*
X2593701Y700039D3*
X2543701Y1310295D3*
X1738469Y3493701D3*
X1540472Y1450984D3*
Y3193701D3*
X855437Y3321260D3*
X1010858Y2693701D3*
X921354Y1691343D3*
X619492Y1490469D3*
X1740992Y3820866D3*
X1346189Y1366732D3*
X986827Y1476969D3*
X1734567Y1490472D3*
Y2143701D3*
X448080Y4566962D2*
D15*
X636531D1*
X1091627D2*
X3003794D1*
X3183604D2*
X3639339D1*
X448080Y4542093D2*
X636531D1*
X1125017D2*
X2988974D1*
X3198424D2*
X3639339D1*
X448080Y4517224D2*
X636531D1*
X1161744D2*
X2981545D1*
X3205852D2*
X3336529D1*
X3550860D2*
X3639339D1*
X448080Y4492356D2*
X636531D1*
X850862D2*
X1065294D1*
X1167773D2*
X1345836D1*
X1637568D2*
X1899835D1*
X1987566D2*
X2980020D1*
X3207377D2*
X3336529D1*
X3574831D2*
X3639339D1*
X448080Y4467487D2*
X1072919D1*
X1160148D2*
X1320538D1*
X1644944D2*
X1892442D1*
X1994958D2*
X2984147D1*
X3203249D2*
X3336529D1*
X3576858D2*
X3639339D1*
X448080Y4442618D2*
X636531D1*
X850862D2*
X1295671D1*
X1665971D2*
X1898703D1*
X1988696D2*
X2994661D1*
X3192753D2*
X3336529D1*
X3576858D2*
X3639339D1*
X448080Y4417749D2*
X621227D1*
X1367504D2*
X1382186D1*
X1505210D2*
X1594136D1*
X1690839D2*
X2676673D1*
X2765857D2*
X3014092D1*
X3173323D2*
X3507016D1*
X3576858D2*
X3639339D1*
X448080Y4392881D2*
X610551D1*
X1342636D2*
X1377486D1*
X1509911D2*
X1619005D1*
X1715706D2*
X2667810D1*
X2774720D2*
X3054659D1*
X3132738D2*
X3507016D1*
X3576858D2*
X3639339D1*
X448080Y4368012D2*
X610551D1*
X1317374D2*
X1382887D1*
X1504510D2*
X1643873D1*
X1740575D2*
X2672026D1*
X2770487D2*
X3336529D1*
X3576858D2*
X3639339D1*
X448080Y4343143D2*
X610551D1*
X850862D2*
X1401008D1*
X1486388D2*
X1668740D1*
X1765442D2*
X2695638D1*
X2746874D2*
X3278738D1*
X3576858D2*
X3639339D1*
X448080Y4318274D2*
X610551D1*
X680394D2*
X1382403D1*
X1504995D2*
X1693608D1*
X1790310D2*
X2926248D1*
X3576858D2*
X3639339D1*
X448080Y4293406D2*
X610551D1*
X680394D2*
X1377486D1*
X1509929D2*
X1718475D1*
X1815177D2*
X2919609D1*
X3576858D2*
X3639339D1*
X448080Y4268537D2*
X610551D1*
X680394D2*
X1382654D1*
X1504744D2*
X1743344D1*
X1840046D2*
X2926606D1*
X3300585D2*
X3507016D1*
X3576858D2*
X3639339D1*
X448080Y4243668D2*
X610551D1*
X680394D2*
X1401654D1*
X1485743D2*
X1768211D1*
X1864913D2*
X3507016D1*
X3576858D2*
X3639339D1*
X448080Y4218799D2*
X610551D1*
X680394D2*
X1072238D1*
X1160848D2*
X1382635D1*
X1504761D2*
X1793079D1*
X1889781D2*
X3507016D1*
X3576858D2*
X3639339D1*
X448080Y4193930D2*
X610551D1*
X680394D2*
X1065276D1*
X1167791D2*
X1377486D1*
X1509929D2*
X1817946D1*
X1914648D2*
X3507016D1*
X3576858D2*
X3639339D1*
X448080Y4169062D2*
X610551D1*
X850862D2*
X1043547D1*
X1161117D2*
X1382438D1*
X1504959D2*
X1842832D1*
X1939516D2*
X3507016D1*
X3576858D2*
X3639339D1*
X448080Y4144193D2*
X610551D1*
X1115382D2*
X1401080D1*
X1486318D2*
X1867699D1*
X1964402D2*
X3507016D1*
X3576858D2*
X3639339D1*
X448080Y4119324D2*
X610551D1*
X1090514D2*
X1892568D1*
X1989270D2*
X3336529D1*
X3576858D2*
X3639339D1*
X448080Y4094455D2*
X610551D1*
X850862D2*
X1917436D1*
X2014138D2*
X2723269D1*
X3576858D2*
X3639339D1*
X448080Y4069587D2*
X610551D1*
X680394D2*
X1942303D1*
X2039005D2*
X2698402D1*
X3576858D2*
X3639339D1*
X448080Y4044718D2*
X610551D1*
X680394D2*
X1403017D1*
X1484379D2*
X1967171D1*
X2063873D2*
X2203020D1*
X2284382D2*
X2673533D1*
X3576858D2*
X3639339D1*
X448080Y4019849D2*
X610551D1*
X850862D2*
X1383084D1*
X1504312D2*
X1992038D1*
X2745367D2*
X2927217D1*
X3014517D2*
X3336529D1*
X3576858D2*
X3639339D1*
X448080Y3994980D2*
X610551D1*
X850862D2*
X1377486D1*
X1509911D2*
X2016907D1*
X2720500D2*
X2919627D1*
X3022106D2*
X3507016D1*
X3576858D2*
X3639339D1*
X448080Y3970112D2*
X610551D1*
X850862D2*
X1382008D1*
X1505390D2*
X2041793D1*
X2695614D2*
X2925692D1*
X3042811D2*
X3336529D1*
X3576858D2*
X3639339D1*
X448080Y3945243D2*
X610551D1*
X850862D2*
X1399824D1*
X1487573D2*
X2199825D1*
X2287575D2*
X2962957D1*
X3576858D2*
X3639339D1*
X448080Y3920374D2*
X610551D1*
X680394D2*
X1073224D1*
X1159861D2*
X1383335D1*
X1504062D2*
X2183337D1*
X2304064D2*
X2640304D1*
X2736055D2*
X2995845D1*
X3576858D2*
X3639339D1*
X448080Y3895505D2*
X610551D1*
X680394D2*
X1065311D1*
X1167755D2*
X1377504D1*
X1509892D2*
X2177507D1*
X2309895D2*
X2630669D1*
X2745690D2*
X3022310D1*
X3576858D2*
X3639339D1*
X448080Y3870636D2*
X610551D1*
X680394D2*
X1045127D1*
X1161996D2*
X1381793D1*
X1505605D2*
X2181794D1*
X2305606D2*
X2633181D1*
X2743178D2*
X3336529D1*
X3576858D2*
X3639339D1*
X448080Y3845768D2*
X610551D1*
X680394D2*
X1020259D1*
X1127978D2*
X1399214D1*
X1488182D2*
X1549282D1*
X1988122D2*
X2199217D1*
X2288185D2*
X2650335D1*
X2726026D2*
X3507016D1*
X3576858D2*
X3639339D1*
X448080Y3820899D2*
X610551D1*
X680394D2*
X995391D1*
X1092075D2*
X1383568D1*
X1503828D2*
X1542446D1*
X1994958D2*
X2183571D1*
X2303831D2*
X3507016D1*
X3576858D2*
X3639339D1*
X448080Y3796030D2*
X610551D1*
X680394D2*
X970505D1*
X1067207D2*
X1377522D1*
X1509875D2*
X1549245D1*
X1988157D2*
X2177524D1*
X2309877D2*
X3507016D1*
X3576858D2*
X3639339D1*
X448080Y3771161D2*
X610551D1*
X850862D2*
X945638D1*
X1042340D2*
X1381594D1*
X1505802D2*
X2181597D1*
X2305804D2*
X3507016D1*
X3576858D2*
X3639339D1*
X448080Y3746293D2*
X610551D1*
X1017472D2*
X1398622D1*
X1488776D2*
X2198623D1*
X2288777D2*
X3507016D1*
X3576858D2*
X3639339D1*
X448080Y3721424D2*
X610551D1*
X992605D2*
X1383820D1*
X1503577D2*
X2183822D1*
X2303579D2*
X2928257D1*
X3013476D2*
X3336529D1*
X3576858D2*
X3639339D1*
X448080Y3696555D2*
X610551D1*
X957976D2*
X1377539D1*
X1509857D2*
X1852772D1*
X1934618D2*
X2177542D1*
X2309860D2*
X2919698D1*
X3022034D2*
X3336529D1*
X3576858D2*
X3639339D1*
X448080Y3671686D2*
X610551D1*
X680394D2*
X1373341D1*
X1506000D2*
X1842706D1*
X1944684D2*
X2181399D1*
X2306001D2*
X2924866D1*
X3041232D2*
X3336529D1*
X3576858D2*
X3639339D1*
X448080Y3646818D2*
X610551D1*
X680394D2*
X1348474D1*
X1489349D2*
X1846600D1*
X2110415D2*
X2198050D1*
X2289352D2*
X2954972D1*
X3066100D2*
X3336529D1*
X3576858D2*
X3639339D1*
X448080Y3621949D2*
X610551D1*
X850862D2*
X1074282D1*
X1158783D2*
X1323606D1*
X2136252D2*
X2184091D1*
X2303310D2*
X2994266D1*
X3090969D2*
X3336529D1*
X3576858D2*
X3639339D1*
X448080Y3597080D2*
X610551D1*
X850862D2*
X1065402D1*
X1167684D2*
X1298720D1*
X2150892D2*
X2177577D1*
X2309823D2*
X3019134D1*
X3115836D2*
X3507016D1*
X3576858D2*
X3639339D1*
X448080Y3572211D2*
X610551D1*
X850862D2*
X1070264D1*
X1162803D2*
X1273853D1*
X2151072D2*
X2181220D1*
X2306181D2*
X3044001D1*
X3140703D2*
X3507016D1*
X3576858D2*
X3639339D1*
X448080Y3547343D2*
X610551D1*
X850862D2*
X1098917D1*
X1134150D2*
X1248984D1*
X2151072D2*
X2197475D1*
X2289925D2*
X3068869D1*
X3576858D2*
X3639339D1*
X448080Y3522474D2*
X610551D1*
X680394D2*
X1224117D1*
X2151072D2*
X2184343D1*
X2303059D2*
X3093738D1*
X3576858D2*
X3639339D1*
X448080Y3497605D2*
X610551D1*
X680394D2*
X1206929D1*
X2151072D2*
X2177596D1*
X2309806D2*
X3118605D1*
X3576858D2*
X3639339D1*
X448080Y3472736D2*
X610551D1*
X680394D2*
X1206282D1*
X2151072D2*
X2181022D1*
X2306378D2*
X3336529D1*
X3576858D2*
X3639339D1*
X448080Y3447867D2*
X610551D1*
X680394D2*
X1206282D1*
X2151072D2*
X2196937D1*
X2290463D2*
X3507016D1*
X3576858D2*
X3639339D1*
X448080Y3422999D2*
X610551D1*
X680394D2*
X1206282D1*
X2151072D2*
X2184612D1*
X2302790D2*
X2642278D1*
X2734100D2*
X2929387D1*
X3012346D2*
X3258283D1*
X3334030D2*
X3507016D1*
X3576858D2*
X3639339D1*
X448080Y3398130D2*
X610551D1*
X680394D2*
X1206282D1*
X2151072D2*
X2177631D1*
X2309769D2*
X2631064D1*
X2745295D2*
X2919806D1*
X3021927D2*
X3247949D1*
X3344365D2*
X3507016D1*
X3576858D2*
X3639339D1*
X448080Y3373261D2*
X610551D1*
X850862D2*
X1206282D1*
X2151072D2*
X2180844D1*
X2306558D2*
X2624587D1*
X2744004D2*
X2924094D1*
X3017639D2*
X3252525D1*
X3339789D2*
X3507016D1*
X3576858D2*
X3639339D1*
X448080Y3348392D2*
X610551D1*
X894982D2*
X1206282D1*
X2151072D2*
X2196399D1*
X2291001D2*
X2599719D1*
X2728987D2*
X2950344D1*
X2991390D2*
X3261244D1*
X3331087D2*
X3507016D1*
X3576858D2*
X3639339D1*
X448080Y3323524D2*
X610551D1*
X903808D2*
X1075467D1*
X1157618D2*
X1206282D1*
X2151072D2*
X2184898D1*
X2302503D2*
X2574852D1*
X2671554D2*
X3261244D1*
X3331087D2*
X3507016D1*
X3576858D2*
X3639339D1*
X448080Y3298655D2*
X610551D1*
X897906D2*
X1065528D1*
X1167539D2*
X1206282D1*
X2151072D2*
X2177668D1*
X2309734D2*
X2549984D1*
X2646686D2*
X3261244D1*
X3576858D2*
X3639339D1*
X448080Y3273786D2*
X610551D1*
X850862D2*
X1048266D1*
X1163539D2*
X1206282D1*
X2151072D2*
X2180664D1*
X2311958D2*
X2525117D1*
X2621819D2*
X3261244D1*
X3576858D2*
X3639339D1*
X448080Y3248917D2*
X610551D1*
X680394D2*
X1023399D1*
X1138331D2*
X1206282D1*
X1491538D2*
X1640140D1*
X2151072D2*
X2195879D1*
X2336825D2*
X2500248D1*
X2596950D2*
X3261244D1*
X3576858D2*
X3639339D1*
X448080Y3224049D2*
X610551D1*
X850862D2*
X998531D1*
X1095234D2*
X1206282D1*
X1577445D2*
X1658782D1*
X2151072D2*
X2185168D1*
X2361711D2*
X2475381D1*
X2572083D2*
X3261244D1*
X3576858D2*
X3639339D1*
X448080Y3199180D2*
X610551D1*
X850862D2*
X973664D1*
X1070365D2*
X1206282D1*
X1588570D2*
X1658782D1*
X2151072D2*
X2177722D1*
X2379726D2*
X2459197D1*
X2547215D2*
X3261244D1*
X3331087D2*
X3507016D1*
X3576858D2*
X3639339D1*
X448080Y3174311D2*
X610551D1*
X850862D2*
X948795D1*
X1045497D2*
X1206282D1*
X1584604D2*
X1658782D1*
X2151072D2*
X2180503D1*
X2380587D2*
X2458785D1*
X2528627D2*
X3261244D1*
X3331087D2*
X3507016D1*
X3576858D2*
X3639339D1*
X448080Y3149442D2*
X610551D1*
X850862D2*
X923928D1*
X1020630D2*
X1206282D1*
X1575399D2*
X1658782D1*
X2151072D2*
X2195358D1*
X2292042D2*
X2310744D1*
X2380587D2*
X2458785D1*
X2528627D2*
X3261244D1*
X3576858D2*
X3639339D1*
X448080Y3124573D2*
X610551D1*
X850862D2*
X899060D1*
X995762D2*
X1206282D1*
X1575399D2*
X1658782D1*
X2151072D2*
X2185454D1*
X2380587D2*
X2458785D1*
X2528627D2*
X2930626D1*
X3011108D2*
X3262841D1*
X3576858D2*
X3639339D1*
X448080Y3099705D2*
X610551D1*
X680394D2*
X874193D1*
X970895D2*
X1206282D1*
X1575399D2*
X1658782D1*
X2151072D2*
X2177757D1*
X2380587D2*
X2458785D1*
X2528627D2*
X2655466D1*
X2731946D2*
X2919986D1*
X3021748D2*
X3282739D1*
X3576858D2*
X3639339D1*
X448080Y3074836D2*
X610551D1*
X680394D2*
X860126D1*
X946026D2*
X1206282D1*
X1575399D2*
X1658782D1*
X2151072D2*
X2180341D1*
X2380587D2*
X2458785D1*
X2528627D2*
X2643157D1*
X2744255D2*
X2923395D1*
X3038075D2*
X3336529D1*
X3576858D2*
X3639339D1*
X448080Y3049967D2*
X610551D1*
X680394D2*
X860000D1*
X929843D2*
X1206282D1*
X1635325D2*
X1658782D1*
X2151072D2*
X2194856D1*
X2292545D2*
X2310744D1*
X2380587D2*
X2458785D1*
X2528627D2*
X2645346D1*
X2742066D2*
X2946810D1*
X3062942D2*
X3507016D1*
X3576858D2*
X3639339D1*
X448080Y3025098D2*
X610551D1*
X680394D2*
X860000D1*
X929843D2*
X1076723D1*
X1156344D2*
X1206282D1*
X1644782D2*
X1658782D1*
X2151072D2*
X2185760D1*
X2380587D2*
X2458785D1*
X2528627D2*
X2665495D1*
X2721899D2*
X2991126D1*
X3087810D2*
X3507016D1*
X3576858D2*
X3639339D1*
X448080Y3000230D2*
X610551D1*
X680394D2*
X860000D1*
X929843D2*
X1065706D1*
X1167361D2*
X1206282D1*
X1640386D2*
X1658782D1*
X2151072D2*
X2177811D1*
X2380587D2*
X2458785D1*
X2528627D2*
X3015993D1*
X3112696D2*
X3507016D1*
X3576858D2*
X3639339D1*
X448080Y2975361D2*
X610551D1*
X680394D2*
X860000D1*
X929843D2*
X1049845D1*
X1164220D2*
X1206282D1*
X1613724D2*
X1658782D1*
X2151072D2*
X2180180D1*
X2380587D2*
X2458785D1*
X2528627D2*
X3040862D1*
X3137564D2*
X3507016D1*
X3576858D2*
X3639339D1*
X448080Y2950492D2*
X610551D1*
X929843D2*
X1024978D1*
X1141631D2*
X1206282D1*
X1575399D2*
X1658782D1*
X2151072D2*
X2194371D1*
X2293029D2*
X2310744D1*
X2380587D2*
X2458785D1*
X2528627D2*
X3065730D1*
X3162432D2*
X3507016D1*
X3576858D2*
X3639339D1*
X448080Y2925623D2*
X610551D1*
X926596D2*
X1000110D1*
X1096812D2*
X1206282D1*
X1575399D2*
X1658782D1*
X2151072D2*
X2186046D1*
X2380587D2*
X2458785D1*
X2528627D2*
X3090597D1*
X3187299D2*
X3507016D1*
X3576858D2*
X3639339D1*
X448080Y2900755D2*
X610551D1*
X904257D2*
X975243D1*
X1071945D2*
X1206282D1*
X1575399D2*
X1658782D1*
X2151072D2*
X2177865D1*
X2380587D2*
X2458785D1*
X2528627D2*
X3115465D1*
X3211593D2*
X3336529D1*
X3576858D2*
X3639339D1*
X448080Y2875886D2*
X610551D1*
X850862D2*
X950374D1*
X1047076D2*
X1206282D1*
X1575399D2*
X1658782D1*
X2151072D2*
X2180018D1*
X2380587D2*
X2458785D1*
X2528627D2*
X3140332D1*
X3217765D2*
X3336529D1*
X3576858D2*
X3639339D1*
X448080Y2851017D2*
X610551D1*
X680394D2*
X925507D1*
X1022209D2*
X1206282D1*
X1575399D2*
X1658782D1*
X2151072D2*
X2193887D1*
X2293514D2*
X2310744D1*
X2380587D2*
X2458785D1*
X2528627D2*
X3147923D1*
X3217765D2*
X3336529D1*
X3576858D2*
X3639339D1*
X448080Y2826148D2*
X610551D1*
X680394D2*
X900639D1*
X997341D2*
X1206282D1*
X1575399D2*
X1658782D1*
X2151072D2*
X2310744D1*
X2380587D2*
X2458785D1*
X2528627D2*
X2931971D1*
X3009762D2*
X3147923D1*
X3217765D2*
X3336529D1*
X3576858D2*
X3639339D1*
X448080Y2801280D2*
X610551D1*
X850862D2*
X886142D1*
X972474D2*
X1206282D1*
X1575399D2*
X1658782D1*
X2151072D2*
X2310744D1*
X2380587D2*
X2458785D1*
X2528627D2*
X2920201D1*
X3021533D2*
X3147923D1*
X3217765D2*
X3336529D1*
X3576858D2*
X3639339D1*
X448080Y2776411D2*
X610551D1*
X850862D2*
X885980D1*
X955823D2*
X1206282D1*
X1575399D2*
X1658782D1*
X2151072D2*
X2310744D1*
X2380587D2*
X2458785D1*
X2528627D2*
X2922766D1*
X3036514D2*
X3147923D1*
X3217765D2*
X3507016D1*
X3576858D2*
X3639339D1*
X448080Y2751542D2*
X610551D1*
X850862D2*
X885980D1*
X955823D2*
X1206282D1*
X1575399D2*
X1658782D1*
X2151072D2*
X2310744D1*
X2380587D2*
X2458785D1*
X2528627D2*
X2943866D1*
X3061382D2*
X3147923D1*
X3217765D2*
X3336529D1*
X3576858D2*
X3639339D1*
X448080Y2726673D2*
X610551D1*
X850862D2*
X885980D1*
X955823D2*
X976391D1*
X1045319D2*
X1078122D1*
X1154962D2*
X1206282D1*
X1575399D2*
X1658782D1*
X2157602D2*
X2310744D1*
X2380587D2*
X2458785D1*
X2528627D2*
X2989547D1*
X3074640D2*
X3147940D1*
X3576858D2*
X3639339D1*
X448080Y2701804D2*
X610551D1*
X680394D2*
X885980D1*
X1167109D2*
X1206282D1*
X1575399D2*
X1658782D1*
X2182470D2*
X2310744D1*
X2380587D2*
X2458785D1*
X2528627D2*
X3004852D1*
X3074694D2*
X3159853D1*
X3576858D2*
X3639339D1*
X448080Y2676936D2*
X610551D1*
X680394D2*
X885980D1*
X1164831D2*
X1206282D1*
X1575399D2*
X1658782D1*
X2207339D2*
X2310744D1*
X2380587D2*
X2458785D1*
X2528627D2*
X3004852D1*
X3074694D2*
X3184811D1*
X3576858D2*
X3639339D1*
X448080Y2652067D2*
X610551D1*
X680394D2*
X885980D1*
X955823D2*
X975942D1*
X1045785D2*
X1088655D1*
X1144412D2*
X1206282D1*
X1575399D2*
X1658782D1*
X2232206D2*
X2310744D1*
X2380587D2*
X2458785D1*
X2528627D2*
X3004852D1*
X3074694D2*
X3336529D1*
X3576858D2*
X3639339D1*
X448080Y2627198D2*
X610551D1*
X680394D2*
X885980D1*
X955823D2*
X975942D1*
X1045785D2*
X1206282D1*
X1575399D2*
X1658782D1*
X2257073D2*
X2310744D1*
X2380587D2*
X2458785D1*
X2528627D2*
X3004852D1*
X3074694D2*
X3507016D1*
X3576858D2*
X3639339D1*
X448080Y2602329D2*
X610551D1*
X680394D2*
X885980D1*
X955823D2*
X975942D1*
X1045785D2*
X1206282D1*
X1575399D2*
X1658782D1*
X2281941D2*
X2310744D1*
X2380587D2*
X2458785D1*
X2528627D2*
X3004852D1*
X3074694D2*
X3507016D1*
X3576858D2*
X3639339D1*
X448080Y2577461D2*
X610551D1*
X680394D2*
X885980D1*
X955823D2*
X975942D1*
X1045785D2*
X1206282D1*
X1575399D2*
X1658782D1*
X2380587D2*
X2458785D1*
X2528627D2*
X3004852D1*
X3074694D2*
X3507016D1*
X3576858D2*
X3639339D1*
X448080Y2552592D2*
X610551D1*
X850862D2*
X885980D1*
X955823D2*
X975942D1*
X1045785D2*
X1206282D1*
X1575399D2*
X1658782D1*
X2380587D2*
X2458785D1*
X2528627D2*
X3004852D1*
X3074694D2*
X3507016D1*
X3576858D2*
X3639339D1*
X448080Y2527723D2*
X610551D1*
X955500D2*
X975942D1*
X1045785D2*
X1206282D1*
X1575399D2*
X1658782D1*
X2380587D2*
X2458785D1*
X2528627D2*
X3004852D1*
X3074694D2*
X3507016D1*
X3576858D2*
X3639339D1*
X448080Y2502854D2*
X610551D1*
X939837D2*
X975942D1*
X1045785D2*
X1206282D1*
X1575399D2*
X1658782D1*
X2380587D2*
X2458785D1*
X2528627D2*
X2833667D1*
X2903743D2*
X3004852D1*
X3074694D2*
X3507016D1*
X3576858D2*
X3639339D1*
X448080Y2477986D2*
X610551D1*
X913228D2*
X975942D1*
X1045785D2*
X1206282D1*
X1575399D2*
X1658782D1*
X2380587D2*
X2458785D1*
X2528627D2*
X2818810D1*
X2918598D2*
X3004852D1*
X3074694D2*
X3336529D1*
X3576858D2*
X3639339D1*
X448080Y2453117D2*
X610551D1*
X850862D2*
X975942D1*
X1045785D2*
X1206282D1*
X1575399D2*
X1658782D1*
X2380587D2*
X2458785D1*
X2528627D2*
X2654622D1*
X2732772D2*
X2819331D1*
X2918079D2*
X3004852D1*
X3074694D2*
X3336529D1*
X3580860D2*
X3639339D1*
X448080Y2428248D2*
X610551D1*
X680394D2*
X975942D1*
X1045785D2*
X1079630D1*
X1153437D2*
X1206282D1*
X1575399D2*
X1658782D1*
X2380587D2*
X2458785D1*
X2528627D2*
X2642996D1*
X2744399D2*
X2836017D1*
X2901392D2*
X3004852D1*
X3074694D2*
X3336529D1*
X3605744D2*
X3639339D1*
X448080Y2403379D2*
X610551D1*
X850862D2*
X975942D1*
X1045785D2*
X1066244D1*
X1166822D2*
X1206282D1*
X1575399D2*
X1658782D1*
X2380587D2*
X2458785D1*
X2528627D2*
X2645688D1*
X2741726D2*
X3004852D1*
X3074694D2*
X3336529D1*
X448080Y2378510D2*
X610551D1*
X850862D2*
X975942D1*
X1045785D2*
X1067698D1*
X1165369D2*
X1206282D1*
X1643741D2*
X1658782D1*
X2380587D2*
X2458785D1*
X2528627D2*
X2658785D1*
X2728627D2*
X3004852D1*
X3074694D2*
X3558778D1*
X448080Y2353642D2*
X610551D1*
X850862D2*
X975942D1*
X1045785D2*
X1086232D1*
X1146835D2*
X1206282D1*
X2380587D2*
X2433970D1*
X2553423D2*
X2658785D1*
X2728627D2*
X3004852D1*
X3074694D2*
X3566063D1*
X448080Y2328773D2*
X610551D1*
X850862D2*
X975942D1*
X1045785D2*
X1206282D1*
X2380587D2*
X2433970D1*
X2553423D2*
X2658785D1*
X2728627D2*
X3004852D1*
X3079037D2*
X3336529D1*
X3550860D2*
X3566063D1*
X448080Y2303904D2*
X610551D1*
X850862D2*
X975942D1*
X1045785D2*
X1206282D1*
X1639650D2*
X1658782D1*
X2380587D2*
X2433970D1*
X2553423D2*
X2658785D1*
X2728627D2*
X3008942D1*
X3550860D2*
X3566063D1*
X448080Y2279035D2*
X610551D1*
X680394D2*
X975942D1*
X1045785D2*
X1206282D1*
X1643346D2*
X1658782D1*
X2380587D2*
X2433970D1*
X2553423D2*
X2658785D1*
X2728627D2*
X3032070D1*
X3550860D2*
X3566063D1*
X448080Y2254167D2*
X610551D1*
X680394D2*
X975942D1*
X1045785D2*
X1206282D1*
X2380587D2*
X2433970D1*
X2553423D2*
X2658785D1*
X2728627D2*
X3336529D1*
X3550860D2*
X3566063D1*
X448080Y2229298D2*
X610551D1*
X680394D2*
X975942D1*
X1045785D2*
X1206282D1*
X2380587D2*
X2658785D1*
X2728627D2*
X3566063D1*
X448080Y2204429D2*
X610551D1*
X680394D2*
X975942D1*
X1045785D2*
X1206282D1*
X1640135D2*
X1658782D1*
X2380587D2*
X2658785D1*
X2728627D2*
X3566063D1*
X448080Y2179560D2*
X610551D1*
X680394D2*
X975942D1*
X1045785D2*
X1206282D1*
X1642951D2*
X1658782D1*
X2380587D2*
X2658785D1*
X2728627D2*
X3566063D1*
X448080Y2154692D2*
X610551D1*
X680394D2*
X975942D1*
X1045785D2*
X1206282D1*
X2380587D2*
X2658785D1*
X2728627D2*
X3566063D1*
X448080Y2129823D2*
X610551D1*
X1045785D2*
X1081280D1*
X1151786D2*
X1206282D1*
X2380587D2*
X2658785D1*
X2728627D2*
X3566063D1*
X448080Y2104954D2*
X610551D1*
X1038984D2*
X1066585D1*
X1166482D2*
X1206282D1*
X1640601D2*
X1658782D1*
X2380587D2*
X2658785D1*
X2728627D2*
X3087386D1*
X3100029D2*
X3523647D1*
X448080Y2080085D2*
X610551D1*
X1014493D2*
X1067214D1*
X1165853D2*
X1206282D1*
X1642556D2*
X1658782D1*
X2380587D2*
X2658785D1*
X2728627D2*
X3020982D1*
X3166415D2*
X3488894D1*
X448080Y2055217D2*
X610551D1*
X850862D2*
X1084097D1*
X1148970D2*
X1206282D1*
X2380587D2*
X2658785D1*
X2728627D2*
X2998429D1*
X3188986D2*
X3405517D1*
X448080Y2030348D2*
X610551D1*
X680394D2*
X1206282D1*
X2380587D2*
X2658785D1*
X2728627D2*
X2986084D1*
X3201312D2*
X3384004D1*
X448080Y2005479D2*
X610551D1*
X680394D2*
X1206282D1*
X1641050D2*
X1658782D1*
X2380587D2*
X2648827D1*
X2728627D2*
X2980504D1*
X3206892D2*
X3381438D1*
X3452483D2*
X3490222D1*
X448080Y1980610D2*
X610551D1*
X850862D2*
X1206282D1*
X1575399D2*
X1658782D1*
X2380587D2*
X2623959D1*
X2720554D2*
X2980648D1*
X3206748D2*
X3381438D1*
X3451281D2*
X3532260D1*
X448080Y1955741D2*
X604038D1*
X850862D2*
X1206282D1*
X1575399D2*
X1658782D1*
X2380587D2*
X2599092D1*
X2695794D2*
X2986551D1*
X3200845D2*
X3381438D1*
X3451281D2*
X3566063D1*
X448080Y1930873D2*
X585576D1*
X850862D2*
X1206282D1*
X1575399D2*
X1658782D1*
X2380587D2*
X2453993D1*
X2533417D2*
X2574223D1*
X2670925D2*
X2999308D1*
X3188089D2*
X3381438D1*
X3451281D2*
X3566063D1*
X448080Y1906004D2*
X584571D1*
X850862D2*
X1206282D1*
X1575399D2*
X1658782D1*
X2380587D2*
X2437092D1*
X2646058D2*
X3022633D1*
X3164764D2*
X3381438D1*
X3451281D2*
X3566063D1*
X448080Y1881135D2*
X584571D1*
X654413D2*
X1206282D1*
X1575399D2*
X1658782D1*
X2380587D2*
X2434329D1*
X2621190D2*
X3381438D1*
X3451281D2*
X3566063D1*
X448080Y1856266D2*
X584571D1*
X654413D2*
X1206282D1*
X1575399D2*
X1658782D1*
X2380587D2*
X2443193D1*
X2596304D2*
X2832661D1*
X2904730D2*
X3381438D1*
X3451281D2*
X3566063D1*
X448080Y1831398D2*
X584571D1*
X654413D2*
X1083110D1*
X1149957D2*
X1206282D1*
X1575399D2*
X1658782D1*
X2380587D2*
X2474735D1*
X2571437D2*
X2818594D1*
X2918814D2*
X3381438D1*
X3451281D2*
X3566063D1*
X448080Y1806529D2*
X584571D1*
X654413D2*
X1066999D1*
X1166087D2*
X1206282D1*
X1575399D2*
X1658782D1*
X2380587D2*
X2453724D1*
X2546570D2*
X2819600D1*
X2917808D2*
X3381438D1*
X3451281D2*
X3566063D1*
X448080Y1781660D2*
X584571D1*
X654413D2*
X1066783D1*
X1176924D2*
X1206282D1*
X1575399D2*
X1658782D1*
X2380587D2*
X2451500D1*
X2521701D2*
X2837219D1*
X2900190D2*
X3381438D1*
X3451281D2*
X3566063D1*
X448080Y1756791D2*
X584571D1*
X654413D2*
X1082177D1*
X1193323D2*
X1206282D1*
X1575399D2*
X1658782D1*
X2380587D2*
X2451500D1*
X2555146D2*
X2632266D1*
X2655136D2*
X2732257D1*
X2755146D2*
X2832266D1*
X2855138D2*
X2932259D1*
X2955147D2*
X3032268D1*
X3055138D2*
X3132259D1*
X3155147D2*
X3381438D1*
X3451281D2*
X3532260D1*
X448080Y1731923D2*
X584571D1*
X850862D2*
X897356D1*
X945364D2*
X1123946D1*
X1575399D2*
X1658782D1*
X2380587D2*
X2451500D1*
X3197185D2*
X3381438D1*
X3451281D2*
X3490222D1*
X448080Y1707054D2*
X584571D1*
X967001D2*
X1123946D1*
X1575399D2*
X1658782D1*
X2380587D2*
X2451500D1*
X3208507D2*
X3381438D1*
X3451281D2*
X3478900D1*
X448080Y1682185D2*
X584571D1*
X968849D2*
X1123946D1*
X1575399D2*
X1658782D1*
X2380587D2*
X2451500D1*
X3208866D2*
X3381438D1*
X3451281D2*
X3478524D1*
X448080Y1657316D2*
X584571D1*
X850862D2*
X888008D1*
X954693D2*
X1123946D1*
X1575399D2*
X1658782D1*
X2380587D2*
X2451500D1*
X3198513D2*
X3381438D1*
X3451281D2*
X3488894D1*
X448080Y1632448D2*
X584571D1*
X654413D2*
X1123946D1*
X1575399D2*
X1658782D1*
X2380587D2*
X2451500D1*
X2563757D2*
X2623636D1*
X2663766D2*
X2723646D1*
X2763759D2*
X2823636D1*
X2863768D2*
X2923646D1*
X2963759D2*
X3023638D1*
X3063768D2*
X3123647D1*
X3163759D2*
X3381438D1*
X3451281D2*
X3523647D1*
X448080Y1607579D2*
X584571D1*
X654413D2*
X1123946D1*
X1575399D2*
X1658782D1*
X2380587D2*
X2451500D1*
X2521343D2*
X3381438D1*
X3451281D2*
X3566063D1*
X448080Y1582710D2*
X584571D1*
X850862D2*
X1123946D1*
X1575399D2*
X1658782D1*
X2380587D2*
X2451500D1*
X2521343D2*
X3381438D1*
X3451281D2*
X3566063D1*
X448080Y1557841D2*
X585988D1*
X873774D2*
X1123946D1*
X1575399D2*
X1658782D1*
X2380587D2*
X2451500D1*
X2521343D2*
X3381438D1*
X3451281D2*
X3566063D1*
X448080Y1532972D2*
X599606D1*
X897636D2*
X1123946D1*
X1575399D2*
X1658782D1*
X2380587D2*
X2451500D1*
X2521343D2*
X3381438D1*
X3451281D2*
X3566063D1*
X448080Y1508104D2*
X574596D1*
X1023088D2*
X1123946D1*
X1575399D2*
X1658782D1*
X2380587D2*
X2451500D1*
X2521343D2*
X3381438D1*
X3451281D2*
X3566063D1*
X448080Y1483235D2*
X571635D1*
X1034822D2*
X1123946D1*
X1575668D2*
X1658782D1*
X2380587D2*
X2451500D1*
X2521343D2*
X3381438D1*
X3451281D2*
X3566063D1*
X448080Y1458366D2*
X584159D1*
X1031323D2*
X1123946D1*
X1193789D2*
X1209172D1*
X1588299D2*
X1658782D1*
X2380587D2*
X2451500D1*
X2527388D2*
X3381438D1*
X3451281D2*
X3566063D1*
X448080Y1433497D2*
X584571D1*
X876860D2*
X969518D1*
X1004142D2*
X1123946D1*
X1193789D2*
X1231079D1*
X1585448D2*
X1658782D1*
X2380587D2*
X2456613D1*
X3095974D2*
X3381438D1*
X3451281D2*
X3566063D1*
X448080Y1408629D2*
X584571D1*
X876860D2*
X1123946D1*
X1193789D2*
X1255946D1*
X1560723D2*
X1658782D1*
X2380587D2*
X2479256D1*
X3108156D2*
X3381438D1*
X3451281D2*
X3566063D1*
X448080Y1383760D2*
X584571D1*
X876860D2*
X1123946D1*
X1193789D2*
X1280814D1*
X1535909D2*
X1658782D1*
X2380587D2*
X2478269D1*
X3109143D2*
X3381438D1*
X3451281D2*
X3566063D1*
X448080Y1358891D2*
X584571D1*
X876860D2*
X1124144D1*
X1210852D2*
X1298433D1*
X1535909D2*
X1658782D1*
X2380587D2*
X2487832D1*
X3099580D2*
X3381438D1*
X3451281D2*
X3566063D1*
X448080Y1334022D2*
X584571D1*
X876860D2*
X1139018D1*
X1235719D2*
X1311459D1*
X1535909D2*
X1658782D1*
X2380587D2*
X2501881D1*
X2585521D2*
X2618864D1*
X2668539D2*
X2718873D1*
X2768530D2*
X2818864D1*
X2868539D2*
X2918874D1*
X2968531D2*
X3018865D1*
X3068541D2*
X3381438D1*
X3451281D2*
X3566063D1*
X448080Y1309154D2*
X584571D1*
X876860D2*
X1163886D1*
X1260588D2*
X1350752D1*
X1535909D2*
X1658782D1*
X2380587D2*
X2495297D1*
X2592106D2*
X3381438D1*
X3451281D2*
X3566063D1*
X448080Y1284285D2*
X585432D1*
X885615D2*
X1188753D1*
X1285455D2*
X1350752D1*
X1535909D2*
X1658782D1*
X2380587D2*
X2503353D1*
X2584050D2*
X3381438D1*
X3451281D2*
X3566063D1*
X448080Y1259416D2*
X614391D1*
X896848D2*
X1213621D1*
X1310323D2*
X1350752D1*
X1551339D2*
X1658782D1*
X2433193D2*
X2508770D1*
X2578614D2*
X3381438D1*
X3451281D2*
X3566063D1*
X448080Y1234547D2*
X827005D1*
X896848D2*
X1238488D1*
X1327098D2*
X1350752D1*
X1576207D2*
X1658782D1*
X2442075D2*
X2508770D1*
X2578614D2*
X3381438D1*
X3451281D2*
X3499839D1*
X448080Y1209678D2*
X827005D1*
X896848D2*
X1257794D1*
X1327636D2*
X1350752D1*
X1601075D2*
X1658782D1*
X2436226D2*
X2508770D1*
X2578614D2*
X3381438D1*
X3451281D2*
X3485306D1*
X448080Y1184810D2*
X636531D1*
X896848D2*
X1257794D1*
X1327636D2*
X1350752D1*
X1625942D2*
X1658782D1*
X2428618D2*
X2508770D1*
X2578614D2*
X2837811D1*
X2895256D2*
X3381438D1*
X3451281D2*
X3483762D1*
X448080Y1159941D2*
X636531D1*
X896848D2*
X1257794D1*
X1327636D2*
X1350752D1*
X2428618D2*
X2508770D1*
X2578614D2*
X2818056D1*
X2915010D2*
X3381438D1*
X3451281D2*
X3493882D1*
X448080Y1135072D2*
X636531D1*
X916942D2*
X1103259D1*
X1327636D2*
X1350752D1*
X2428618D2*
X2508770D1*
X2578614D2*
X2816047D1*
X2917020D2*
X3381438D1*
X3451281D2*
X3566063D1*
X448080Y1110203D2*
X636531D1*
X941810D2*
X1103259D1*
X1327636D2*
X1350752D1*
X2428618D2*
X2508770D1*
X2578614D2*
X2828606D1*
X2904461D2*
X3381438D1*
X3451281D2*
X3566063D1*
X448080Y1085335D2*
X869976D1*
X966678D2*
X1103259D1*
X1327636D2*
X1350752D1*
X2428618D2*
X2508770D1*
X2578614D2*
X2848092D1*
X3239314D2*
X3381438D1*
X3451281D2*
X3566063D1*
X448080Y1060466D2*
X894844D1*
X991546D2*
X1103259D1*
X1327636D2*
X1350752D1*
X2428618D2*
X2508770D1*
X2578614D2*
X2833667D1*
X3253739D2*
X3381438D1*
X3451281D2*
X3562115D1*
X448080Y1035597D2*
X478371D1*
X609021D2*
X919711D1*
X1016413D2*
X1257794D1*
X1327636D2*
X1350752D1*
X2428618D2*
X2508770D1*
X2578614D2*
X2831819D1*
X3255587D2*
X3381438D1*
X3451281D2*
X3483080D1*
X635072Y1010728D2*
X944579D1*
X1041281D2*
X1257794D1*
X1327636D2*
X1350752D1*
X2428618D2*
X2508770D1*
X2578614D2*
X2841167D1*
X3246239D2*
X3381438D1*
X3451281D2*
X3483080D1*
X3609081D2*
X3639339D1*
X649228Y985860D2*
X969448D1*
X1066150D2*
X1257794D1*
X1327636D2*
X1352206D1*
X2428618D2*
X2508770D1*
X2578614D2*
X2875525D1*
X2911870D2*
X2975517D1*
X3011879D2*
X3075526D1*
X3111870D2*
X3175517D1*
X3211879D2*
X3381438D1*
X3451281D2*
X3483080D1*
X3604327D2*
X3639339D1*
X656172Y960991D2*
X994333D1*
X1091017D2*
X1257794D1*
X1327636D2*
X1371781D1*
X2428618D2*
X2508770D1*
X2578614D2*
X3381438D1*
X3451281D2*
X3483080D1*
X3604327D2*
X3639339D1*
X657266Y936122D2*
X1019201D1*
X1115903D2*
X1257794D1*
X1327636D2*
X1396648D1*
X2428618D2*
X2508770D1*
X2631256D2*
X3381438D1*
X3451281D2*
X3483080D1*
X3604327D2*
X3639339D1*
X652692Y911253D2*
X1044068D1*
X1140770D2*
X1257794D1*
X1327636D2*
X1421516D1*
X2428618D2*
X2508770D1*
X3450169D2*
X3639339D1*
X641621Y886385D2*
X1068936D1*
X1165638D2*
X1257794D1*
X1327636D2*
X1446383D1*
X2428618D2*
X2508770D1*
X3431420D2*
X3502207D1*
X3585201D2*
X3639339D1*
X448080Y861516D2*
X466118D1*
X621293D2*
X1093803D1*
X1190505D2*
X1257794D1*
X1327636D2*
X1471252D1*
X2428618D2*
X2508770D1*
X3396791D2*
X3486202D1*
X3601205D2*
X3639339D1*
X448080Y836647D2*
X510685D1*
X576724D2*
X812471D1*
X874940D2*
X1118672D1*
X1215374D2*
X1257794D1*
X1327636D2*
X1496119D1*
X2428618D2*
X2508770D1*
X2578614D2*
X3483816D1*
X3603592D2*
X3639339D1*
X448080Y811778D2*
X792789D1*
X894605D2*
X1143539D1*
X1240241D2*
X1257794D1*
X1327636D2*
X1508786D1*
X2428618D2*
X2508770D1*
X2578614D2*
X3493003D1*
X3594406D2*
X3639339D1*
X448080Y786909D2*
X789972D1*
X897421D2*
X1168407D1*
X1327636D2*
X1508786D1*
X2428618D2*
X2508770D1*
X2578614D2*
X2849671D1*
X2937724D2*
X3049671D1*
X3137726D2*
X3502781D1*
X3584609D2*
X3639339D1*
X448080Y762041D2*
X800361D1*
X887033D2*
X1193274D1*
X1327636D2*
X1508786D1*
X2428618D2*
X2508770D1*
X2580049D2*
X2834151D1*
X2953244D2*
X3034151D1*
X3153245D2*
X3486364D1*
X3601026D2*
X3639339D1*
X448080Y737172D2*
X813261D1*
X874133D2*
X1035743D1*
X1151661D2*
X1185757D1*
X1327636D2*
X1508786D1*
X2428618D2*
X2511445D1*
X2623218D2*
X2831621D1*
X2955774D2*
X3031622D1*
X3155776D2*
X3483762D1*
X3603646D2*
X3639339D1*
X448080Y712303D2*
X792987D1*
X894407D2*
X1035743D1*
X1151661D2*
X1185757D1*
X1327636D2*
X1508786D1*
X1653627D2*
X1676743D1*
X2429138D2*
X2533083D1*
X2640461D2*
X2840161D1*
X2947252D2*
X3040161D1*
X3147252D2*
X3492661D1*
X3594747D2*
X3639339D1*
X448080Y687434D2*
X789900D1*
X897493D2*
X1035743D1*
X1151661D2*
X1185757D1*
X1327636D2*
X1508786D1*
X1653627D2*
X1701610D1*
X2441572D2*
X2547042D1*
X2640370D2*
X2870573D1*
X2916822D2*
X3070573D1*
X3116823D2*
X3527917D1*
X3559490D2*
X3639339D1*
X448080Y662566D2*
X799966D1*
X887446D2*
X1035743D1*
X1151661D2*
X1185757D1*
X1327636D2*
X1508786D1*
X1653627D2*
X1726478D1*
X2438558D2*
X2564660D1*
X2622751D2*
X3639339D1*
X448080Y637697D2*
X1035743D1*
X1151661D2*
X1185757D1*
X1327636D2*
X1508786D1*
X1653627D2*
X1751345D1*
X2848050D2*
X3639339D1*
X448080Y612828D2*
X1035743D1*
X1151661D2*
X1185757D1*
X1327636D2*
X1508786D1*
X1653627D2*
X1760155D1*
X2872917D2*
X3639339D1*
X448080Y587959D2*
X1035743D1*
X1151661D2*
X1185757D1*
X1327636D2*
X1383388D1*
X1683392D2*
X1760155D1*
X2933400D2*
X2954004D1*
X3033392D2*
X3053995D1*
X3133402D2*
X3154004D1*
X3233392D2*
X3253996D1*
X3333402D2*
X3483386D1*
X3604022D2*
X3639339D1*
X448080Y563091D2*
X1035743D1*
X1327636D2*
X1383388D1*
X1700671D2*
X1760155D1*
X3350661D2*
X3483386D1*
X3604022D2*
X3639339D1*
X448080Y538222D2*
X1059606D1*
X1326812D2*
X1383388D1*
X1703757D2*
X1760155D1*
X3353748D2*
X3483386D1*
X3604022D2*
X3639339D1*
X448080Y513353D2*
X1086789D1*
X1299630D2*
X1383388D1*
X1695415D2*
X1760531D1*
X3345406D2*
X3483386D1*
X3604022D2*
X3639339D1*
X448080Y488484D2*
X1383388D1*
X1504008D2*
X1524055D1*
X1563343D2*
X1624064D1*
X1663333D2*
X1776554D1*
X2513340D2*
X2574062D1*
X2613332D2*
X2674071D1*
X2713341D2*
X2774063D1*
X2813332D2*
X2874054D1*
X2913341D2*
X2974063D1*
X3013332D2*
X3074055D1*
X3113343D2*
X3174064D1*
X3213333D2*
X3274055D1*
X3313343D2*
X3483386D1*
X3604022D2*
X3639339D1*
X448080Y463615D2*
X1803503D1*
X2459891D2*
X3639339D1*
X2771559Y4379604D2*
X2769119Y4370769D1*
X2765140Y4362512D1*
X2759752Y4355098D1*
X2753127Y4348766D1*
X2745478Y4343718D1*
X2737049Y4340117D1*
X2728113Y4338080D1*
X2718957Y4337671D1*
X2709875Y4338902D1*
X2701159Y4341735D1*
X2693089Y4346080D1*
X2685925Y4351795D1*
X2679896Y4358698D1*
X2675197Y4366567D1*
X2671978Y4375148D1*
X2670343Y4384167D1*
X2670344Y4393332D1*
X2671983Y4402349D1*
X2675205Y4410929D1*
X2679907Y4418797D1*
X2685938Y4425697D1*
X2693104Y4431411D1*
X2701176Y4435752D1*
X2709892Y4438583D1*
X2718975Y4439811D1*
X2728131Y4439399D1*
X2737066Y4437357D1*
X2745493Y4433753D1*
X2753140Y4428703D1*
X2759764Y4422369D1*
X2765150Y4414953D1*
X2769125Y4406694D1*
X2771562Y4397860D1*
X2772382Y4388740D1*
X2771559Y4379604D1*
X1083948Y4571049D2*
X1075600Y4574829D1*
X1066535Y4576122D1*
X848366Y4576125D1*
X848375Y4591831D1*
X3033828Y4591827D1*
X3032801Y4591215D1*
X3025314Y4585867D1*
X3018294Y4579920D1*
X3011790Y4573413D1*
X3005844Y4566392D1*
X3000499Y4558903D1*
X2995791Y4550999D1*
X2991751Y4542732D1*
X2988408Y4534161D1*
X2985783Y4525343D1*
X2983898Y4516337D1*
X2982761Y4507207D1*
X2982382Y4498014D1*
X2982764Y4488822D1*
X2983903Y4479693D1*
X2985793Y4470688D1*
X2988419Y4461870D1*
X2991765Y4453299D1*
X2995807Y4445035D1*
X3000517Y4437131D1*
X3005865Y4429644D1*
X3011812Y4422625D1*
X3018319Y4416121D1*
X3025340Y4410175D1*
X3032829Y4404829D1*
X3040734Y4400122D1*
X3049000Y4396081D1*
X3057571Y4392739D1*
X3066390Y4390114D1*
X3075395Y4388228D1*
X3084525Y4387092D1*
X3093718Y4386713D1*
X3102911Y4387094D1*
X3112039Y4388234D1*
X3121045Y4390123D1*
X3129862Y4392749D1*
X3138433Y4396096D1*
X3146697Y4400138D1*
X3154601Y4404848D1*
X3162088Y4410196D1*
X3169108Y4416143D1*
X3175612Y4422650D1*
X3181558Y4429671D1*
X3186903Y4437160D1*
X3191610Y4445064D1*
X3195651Y4453331D1*
X3198993Y4461902D1*
X3201618Y4470720D1*
X3203504Y4479726D1*
X3204640Y4488856D1*
X3205020Y4498049D1*
X3204638Y4507241D1*
X3203499Y4516370D1*
X3201609Y4525375D1*
X3198983Y4534193D1*
X3195636Y4542764D1*
X3191594Y4551028D1*
X3186885Y4558932D1*
X3181537Y4566419D1*
X3175589Y4573438D1*
X3169083Y4579942D1*
X3162062Y4585888D1*
X3154572Y4591234D1*
X3153647Y4591831D1*
X3641831Y4591825D1*
X3641827Y445571D1*
X445571Y445576D1*
X445573Y891180D1*
X445807Y890705D1*
X450517Y882801D1*
X455865Y875314D1*
X461812Y868294D1*
X468319Y861790D1*
X475340Y855844D1*
X482829Y850499D1*
X490734Y845791D1*
X499000Y841751D1*
X507571Y838408D1*
X516390Y835783D1*
X525395Y833898D1*
X534525Y832761D1*
X543718Y832382D1*
X552911Y832764D1*
X562039Y833903D1*
X571045Y835793D1*
X579862Y838419D1*
X588433Y841765D1*
X596697Y845807D1*
X604601Y850517D1*
X612088Y855865D1*
X619108Y861812D1*
X625612Y868319D1*
X631558Y875340D1*
X636903Y882829D1*
X641610Y890734D1*
X645651Y899000D1*
X648993Y907571D1*
X651618Y916390D1*
X653504Y925395D1*
X654640Y934525D1*
X655020Y943718D1*
X654638Y952911D1*
X653499Y962039D1*
X651609Y971045D1*
X648983Y979862D1*
X645636Y988433D1*
X641594Y996697D1*
X636885Y1004601D1*
X631537Y1012088D1*
X625589Y1019108D1*
X619083Y1025612D1*
X612062Y1031558D1*
X604572Y1036903D1*
X596668Y1041610D1*
X588402Y1045651D1*
X579831Y1048993D1*
X571012Y1051618D1*
X562007Y1053504D1*
X552877Y1054640D1*
X543684Y1055020D1*
X534491Y1054638D1*
X525362Y1053499D1*
X516357Y1051609D1*
X507539Y1048983D1*
X498969Y1045636D1*
X490705Y1041594D1*
X482801Y1036885D1*
X475314Y1031537D1*
X468294Y1025589D1*
X461790Y1019083D1*
X455844Y1012062D1*
X450499Y1004572D1*
X445791Y996668D1*
X445571Y996255D1*
X445575Y4591831D1*
X639035Y4591836D1*
Y4488248D1*
X848366D1*
X848371Y4511280D1*
X1053112Y4511274D1*
X1067991Y4496402D1*
X1068005Y4488969D1*
X1069778Y4479870D1*
X1073240Y4471272D1*
X1078268Y4463483D1*
X1084678Y4456787D1*
X1092240Y4451425D1*
X1100680Y4447591D1*
X1109693Y4445424D1*
X1118953Y4445001D1*
X1128126Y4446339D1*
X1136879Y4449388D1*
X1144898Y4454039D1*
X1151892Y4460123D1*
X1157608Y4467421D1*
X1161839Y4475669D1*
X1164433Y4484568D1*
X1165295Y4493798D1*
X1164395Y4503025D1*
X1161766Y4511913D1*
X1157503Y4520144D1*
X1151757Y4527420D1*
X1144739Y4533476D1*
X1136702Y4538094D1*
X1127936Y4541109D1*
X1118759Y4542409D1*
X1113921Y4542169D1*
X1089479Y4566608D1*
X1083948Y4571049D1*
X3495072Y601516D2*
X3601516D1*
Y485886D1*
X3485886D1*
Y601516D1*
X3495072D1*
X3600787Y734552D2*
X3598654Y725735D1*
X3595167Y717360D1*
X3590412Y709634D1*
X3584508Y702745D1*
X3577598Y696866D1*
X3569854Y692140D1*
X3561467Y688684D1*
X3552642Y686581D1*
X3543596Y685886D1*
X3534552Y686614D1*
X3525735Y688748D1*
X3517360Y692235D1*
X3509634Y696990D1*
X3502745Y702894D1*
X3496866Y709803D1*
X3492140Y717547D1*
X3488684Y725934D1*
X3486581Y734760D1*
X3485886Y743806D1*
X3486614Y752849D1*
X3488748Y761667D1*
X3492235Y770042D1*
X3496990Y777768D1*
X3502894Y784656D1*
X3509803Y790535D1*
X3514832Y793605D1*
X3509634Y796990D1*
X3502745Y802894D1*
X3496866Y809803D1*
X3492140Y817547D1*
X3488684Y825934D1*
X3486581Y834760D1*
X3485886Y843806D1*
X3486614Y852849D1*
X3488748Y861667D1*
X3492235Y870042D1*
X3496990Y877768D1*
X3502894Y884656D1*
X3509803Y890535D1*
X3517547Y895261D1*
X3525934Y898718D1*
X3534760Y900820D1*
X3543806Y901516D1*
X3552849Y900787D1*
X3561667Y898654D1*
X3570042Y895167D1*
X3577768Y890412D1*
X3584656Y884508D1*
X3590535Y877598D1*
X3595261Y869854D1*
X3598718Y861467D1*
X3600820Y852642D1*
X3601516Y843701D1*
X3600787Y834552D1*
X3598654Y825735D1*
X3595167Y817360D1*
X3590412Y809634D1*
X3584508Y802745D1*
X3577598Y796866D1*
X3572570Y793797D1*
X3577768Y790412D1*
X3584656Y784508D1*
X3590535Y777598D1*
X3595261Y769854D1*
X3598718Y761467D1*
X3600820Y752642D1*
X3601516Y743701D1*
X3600787Y734552D1*
X2742875Y3879352D2*
X2740623Y3870474D1*
X2736942Y3862088D1*
X2731930Y3854423D1*
X2725726Y3847686D1*
X2718496Y3842063D1*
X2710440Y3837707D1*
X2701777Y3834736D1*
X2692743Y3833231D1*
X2683584Y3833234D1*
X2674551Y3834744D1*
X2665890Y3837720D1*
X2657837Y3842083D1*
X2650612Y3847710D1*
X2644411Y3854450D1*
X2639404Y3862119D1*
X2635727Y3870507D1*
X2633482Y3879386D1*
X2632728Y3888513D1*
X2633487Y3897640D1*
X2635739Y3906518D1*
X2639420Y3914904D1*
X2644432Y3922570D1*
X2650636Y3929306D1*
X2657866Y3934929D1*
X2665923Y3939285D1*
X2674585Y3942256D1*
X2683619Y3943761D1*
X2692778Y3943759D1*
X2701811Y3942248D1*
X2710472Y3939272D1*
X2718525Y3934909D1*
X2725751Y3929282D1*
X2731951Y3922542D1*
X2736958Y3914873D1*
X2740635Y3906486D1*
X2742881Y3897606D1*
X2743634Y3888496D1*
X2742875Y3879352D1*
X3348222Y3979075D2*
X3509513D1*
X3509512Y4018177D1*
X3410571Y4018169D1*
X3339035D1*
Y4041198D1*
X2981878Y4041201D1*
X2983762Y4040724D1*
X2985525Y4040205D1*
X2987266Y4039619D1*
X2988984Y4038970D1*
X2990677Y4038255D1*
X2992341Y4037476D1*
X2993975Y4036636D1*
X2995576Y4035735D1*
X3003085Y4030299D1*
X3009429Y4023541D1*
X3014379Y4015703D1*
X3017757Y4007071D1*
X3019440Y3997955D1*
X3019626Y3993701D1*
X3019374Y3991034D1*
X3054369Y3956049D1*
X3339029Y3956043D1*
X3339035Y3979075D1*
X3348222D1*
X2741598Y3057403D2*
X2739004Y3048504D1*
X2734773Y3040256D1*
X2729058Y3032958D1*
X2722063Y3026874D1*
X2714045Y3022223D1*
X2705291Y3019173D1*
X2696118Y3017836D1*
X2686858Y3018259D1*
X2677845Y3020425D1*
X2669406Y3024260D1*
X2661844Y3029622D1*
X2655433Y3036318D1*
X2650406Y3044106D1*
X2646944Y3052705D1*
X2645171Y3061803D1*
X2645152Y3071073D1*
X2646888Y3080178D1*
X2650316Y3088791D1*
X2655312Y3096600D1*
X2661697Y3103322D1*
X2669236Y3108714D1*
X2677661Y3112581D1*
X2686665Y3114785D1*
X2695924Y3115244D1*
X2705101Y3113944D1*
X2713867Y3110929D1*
X2721904Y3106311D1*
X2728923Y3100255D1*
X2734668Y3092979D1*
X2738932Y3084748D1*
X2741560Y3075860D1*
X2742461Y3066535D1*
X2741598Y3057403D1*
X1164433Y3584568D2*
X1161839Y3575669D1*
X1157608Y3567421D1*
X1151892Y3560123D1*
X1144898Y3554039D1*
X1136879Y3549388D1*
X1128126Y3546339D1*
X1118953Y3545001D1*
X1109693Y3545424D1*
X1100680Y3547591D1*
X1092240Y3551425D1*
X1084678Y3556787D1*
X1078268Y3563483D1*
X1073240Y3571272D1*
X1069778Y3579870D1*
X1068005Y3588969D1*
X1067987Y3598239D1*
X1069723Y3607344D1*
X1073151Y3615957D1*
X1078147Y3623765D1*
X1084531Y3630487D1*
X1092071Y3635879D1*
X1100496Y3639747D1*
X1109500Y3641950D1*
X1118759Y3642409D1*
X1127936Y3641109D1*
X1136702Y3638094D1*
X1144739Y3633476D1*
X1151757Y3627420D1*
X1157503Y3620144D1*
X1161766Y3611913D1*
X1164395Y3603025D1*
X1165295Y3593701D1*
X1164433Y3584568D1*
Y2684568D2*
X1161839Y2675669D1*
X1157608Y2667421D1*
X1151892Y2660123D1*
X1144898Y2654039D1*
X1136879Y2649388D1*
X1128126Y2646339D1*
X1118953Y2645001D1*
X1109693Y2645424D1*
X1100680Y2647591D1*
X1092240Y2651425D1*
X1084678Y2656787D1*
X1078268Y2663483D1*
X1073240Y2671272D1*
X1069778Y2679870D1*
X1068005Y2688969D1*
X1067987Y2698239D1*
X1069723Y2707344D1*
X1073151Y2715957D1*
X1078147Y2723765D1*
X1084531Y2730487D1*
X1092071Y2735879D1*
X1100496Y2739747D1*
X1109500Y2741950D1*
X1118759Y2742409D1*
X1127936Y2741109D1*
X1136702Y2738094D1*
X1144739Y2733476D1*
X1151757Y2727420D1*
X1157503Y2720144D1*
X1161766Y2711913D1*
X1164395Y2703025D1*
X1165295Y2693701D1*
X1164433Y2684568D1*
Y2384568D2*
X1161839Y2375669D1*
X1157608Y2367421D1*
X1151892Y2360123D1*
X1144898Y2354039D1*
X1136879Y2349388D1*
X1128126Y2346339D1*
X1118953Y2345001D1*
X1109693Y2345424D1*
X1100680Y2347591D1*
X1092240Y2351425D1*
X1084678Y2356787D1*
X1078268Y2363483D1*
X1073240Y2371272D1*
X1069778Y2379870D1*
X1068005Y2388969D1*
X1067987Y2398239D1*
X1069723Y2407344D1*
X1073151Y2415957D1*
X1078147Y2423765D1*
X1084531Y2430487D1*
X1092071Y2435879D1*
X1100496Y2439747D1*
X1109500Y2441950D1*
X1118759Y2442409D1*
X1127936Y2441109D1*
X1136702Y2438094D1*
X1144739Y2433476D1*
X1151757Y2427420D1*
X1157503Y2420144D1*
X1161766Y2411913D1*
X1164395Y2403025D1*
X1165295Y2393701D1*
X1164433Y2384568D1*
Y2084568D2*
X1161839Y2075669D1*
X1157608Y2067421D1*
X1151892Y2060123D1*
X1144898Y2054039D1*
X1136879Y2049388D1*
X1128126Y2046339D1*
X1118953Y2045001D1*
X1109693Y2045424D1*
X1100680Y2047591D1*
X1092240Y2051425D1*
X1084678Y2056787D1*
X1078268Y2063483D1*
X1073240Y2071272D1*
X1069778Y2079870D1*
X1068005Y2088969D1*
X1067987Y2098239D1*
X1069723Y2107344D1*
X1073151Y2115957D1*
X1078147Y2123765D1*
X1084531Y2130487D1*
X1092071Y2135879D1*
X1100496Y2139747D1*
X1109500Y2141950D1*
X1118759Y2142409D1*
X1127936Y2141109D1*
X1136702Y2138094D1*
X1144739Y2133476D1*
X1151757Y2127420D1*
X1157503Y2120144D1*
X1161766Y2111913D1*
X1164395Y2103025D1*
X1165295Y2093701D1*
X1164433Y2084568D1*
X3018764Y3384568D2*
X3016169Y3375669D1*
X3011938Y3367421D1*
X3006223Y3360123D1*
X2999228Y3354039D1*
X2991210Y3349388D1*
X2982457Y3346339D1*
X2973283Y3345001D1*
X2964024Y3345424D1*
X2955010Y3347591D1*
X2946571Y3351425D1*
X2939009Y3356787D1*
X2932598Y3363483D1*
X2927571Y3371272D1*
X2924109Y3379870D1*
X2922336Y3388969D1*
X2922318Y3398239D1*
X2924054Y3407344D1*
X2927482Y3415957D1*
X2932478Y3423765D1*
X2938862Y3430487D1*
X2946402Y3435879D1*
X2954827Y3439747D1*
X2963831Y3441950D1*
X2973089Y3442409D1*
X2982266Y3441109D1*
X2991033Y3438094D1*
X2999070Y3433476D1*
X3006088Y3427420D1*
X3011833Y3420144D1*
X3016097Y3411913D1*
X3018726Y3403025D1*
X3019626Y3393701D1*
X3018764Y3384568D1*
X1991598Y4457403D2*
X1989004Y4448504D1*
X1984773Y4440256D1*
X1979058Y4432958D1*
X1972063Y4426874D1*
X1964045Y4422223D1*
X1955291Y4419173D1*
X1946118Y4417836D1*
X1936858Y4418259D1*
X1927845Y4420425D1*
X1919406Y4424260D1*
X1911844Y4429622D1*
X1905433Y4436318D1*
X1900406Y4444106D1*
X1896944Y4452705D1*
X1895171Y4461803D1*
X1895152Y4471073D1*
X1896888Y4480178D1*
X1900316Y4488791D1*
X1905312Y4496600D1*
X1911697Y4503322D1*
X1919236Y4508714D1*
X1927661Y4512581D1*
X1936665Y4514785D1*
X1945924Y4515244D1*
X1955101Y4513944D1*
X1963867Y4510929D1*
X1971904Y4506311D1*
X1978923Y4500255D1*
X1984668Y4492979D1*
X1988932Y4484748D1*
X1991560Y4475860D1*
X1992461Y4466535D1*
X1991598Y4457403D1*
Y3811734D2*
X1989004Y3802835D1*
X1984773Y3794587D1*
X1979058Y3787289D1*
X1972063Y3781205D1*
X1964045Y3776554D1*
X1955291Y3773504D1*
X1946118Y3772167D1*
X1936858Y3772589D1*
X1927845Y3774756D1*
X1919406Y3778591D1*
X1911844Y3783953D1*
X1907543Y3788445D1*
X1773520D1*
X1772722Y3787664D1*
X1765388Y3781957D1*
X1757056Y3777843D1*
X1748067Y3775490D1*
X1738787Y3774993D1*
X1729598Y3776377D1*
X1720877Y3779581D1*
X1712978Y3784475D1*
X1708777Y3788446D1*
X1630118Y3788445D1*
X1629058Y3787289D1*
X1622063Y3781205D1*
X1614045Y3776554D1*
X1605291Y3773504D1*
X1596118Y3772167D1*
X1586858Y3772589D1*
X1577845Y3774756D1*
X1569406Y3778591D1*
X1561844Y3783953D1*
X1555433Y3790648D1*
X1550406Y3798437D1*
X1546944Y3807035D1*
X1545171Y3816134D1*
X1545152Y3825404D1*
X1546888Y3834509D1*
X1550316Y3843122D1*
X1555312Y3850930D1*
X1561697Y3857652D1*
X1569236Y3863045D1*
X1577661Y3866912D1*
X1586665Y3869115D1*
X1595924Y3869575D1*
X1605101Y3868274D1*
X1613867Y3865260D1*
X1621904Y3860642D1*
X1628923Y3854585D1*
X1629949Y3853285D1*
X1708469Y3853287D1*
X1712785Y3857108D1*
X1720657Y3862045D1*
X1729364Y3865294D1*
X1738545Y3866726D1*
X1747825Y3866280D1*
X1756828Y3863975D1*
X1765181Y3859904D1*
X1772545Y3854236D1*
X1773369Y3853281D1*
X1907281Y3853287D1*
X1911697Y3857652D1*
X1919236Y3863045D1*
X1927661Y3866912D1*
X1936665Y3869115D1*
X1945924Y3869575D1*
X1955101Y3868274D1*
X1963867Y3865260D1*
X1971904Y3860642D1*
X1978923Y3854585D1*
X1984668Y3847310D1*
X1988932Y3839079D1*
X1991560Y3830190D1*
X1992461Y3820866D1*
X1991598Y3811734D1*
X2916598Y1811734D2*
X2914004Y1802835D1*
X2909773Y1794587D1*
X2904058Y1787289D1*
X2897063Y1781205D1*
X2889045Y1776554D1*
X2880291Y1773504D1*
X2871118Y1772167D1*
X2861858Y1772589D1*
X2852845Y1774756D1*
X2844406Y1778591D1*
X2836844Y1783953D1*
X2830433Y1790648D1*
X2825406Y1798437D1*
X2821944Y1807035D1*
X2820171Y1816134D1*
X2820152Y1825404D1*
X2821888Y1834509D1*
X2825316Y1843122D1*
X2830312Y1850930D1*
X2836697Y1857652D1*
X2844236Y1863045D1*
X2852661Y1866912D1*
X2861665Y1869115D1*
X2870924Y1869575D1*
X2880101Y1868274D1*
X2888867Y1865260D1*
X2896904Y1860642D1*
X2903923Y1854585D1*
X2909668Y1847310D1*
X2913932Y1839079D1*
X2916560Y1830190D1*
X2917461Y1820866D1*
X2916598Y1811734D1*
Y2457403D2*
X2914004Y2448504D1*
X2909773Y2440256D1*
X2904058Y2432958D1*
X2897063Y2426874D1*
X2889045Y2422223D1*
X2880291Y2419173D1*
X2871118Y2417836D1*
X2861858Y2418259D1*
X2852845Y2420425D1*
X2844406Y2424260D1*
X2836844Y2429622D1*
X2830433Y2436318D1*
X2825406Y2444106D1*
X2821944Y2452705D1*
X2820171Y2461803D1*
X2820152Y2471073D1*
X2821888Y2480178D1*
X2825316Y2488791D1*
X2830312Y2496600D1*
X2836697Y2503322D1*
X2844236Y2508714D1*
X2852661Y2512581D1*
X2861665Y2514785D1*
X2870924Y2515244D1*
X2880101Y2513944D1*
X2888867Y2510929D1*
X2896904Y2506311D1*
X2903923Y2500255D1*
X2909668Y2492979D1*
X2913932Y2484748D1*
X2916560Y2475860D1*
X2917461Y2466535D1*
X2916598Y2457403D1*
X894559Y784563D2*
X892110Y775629D1*
X888106Y767274D1*
X882673Y759770D1*
X875988Y753357D1*
X868266Y748240D1*
X859755Y744584D1*
X856360Y743803D1*
X859583Y742873D1*
X868108Y739247D1*
X875848Y734156D1*
X882555Y727766D1*
X888013Y720281D1*
X892047Y711942D1*
X894528Y703016D1*
X895374Y693701D1*
X894559Y684563D1*
X892110Y675629D1*
X888106Y667274D1*
X882673Y659770D1*
X875988Y653357D1*
X868266Y648240D1*
X859755Y644584D1*
X850726Y642508D1*
X841472Y642076D1*
X832290Y643303D1*
X823475Y646151D1*
X815310Y650526D1*
X808056Y656290D1*
X801949Y663256D1*
X797184Y671199D1*
X793913Y679867D1*
X792244Y688979D1*
X792227Y698243D1*
X793866Y707361D1*
X797106Y716039D1*
X801844Y724001D1*
X807927Y730988D1*
X815159Y736776D1*
X823310Y741180D1*
X830867Y743651D1*
X823475Y746151D1*
X815310Y750526D1*
X808056Y756290D1*
X801949Y763256D1*
X797184Y771199D1*
X793913Y779867D1*
X792244Y788979D1*
X792227Y798243D1*
X793866Y807361D1*
X797106Y816039D1*
X801844Y824001D1*
X807927Y830988D1*
X815159Y836776D1*
X823310Y841180D1*
X832114Y844058D1*
X841293Y845318D1*
X850547Y844919D1*
X859583Y842873D1*
X868108Y839247D1*
X875848Y834156D1*
X882555Y827766D1*
X888013Y820281D1*
X892047Y811942D1*
X894528Y803016D1*
X895374Y793701D1*
X894559Y784563D1*
X3152927Y734550D2*
X3150835Y725617D1*
X3147406Y717108D1*
X3142717Y709222D1*
X3136878Y702143D1*
X3130029Y696039D1*
X3122327Y691052D1*
X3113955Y687299D1*
X3105108Y684869D1*
X3095993Y683816D1*
X3086825Y684169D1*
X3077819Y685916D1*
X3069184Y689017D1*
X3061123Y693400D1*
X3053827Y698963D1*
X3047466Y705573D1*
X3042188Y713079D1*
X3038117Y721301D1*
X3035349Y730049D1*
X3033949Y739115D1*
Y748291D1*
X3035350Y757358D1*
X3038118Y766105D1*
X3042190Y774327D1*
X3047469Y781831D1*
X3053831Y788442D1*
X3061129Y794004D1*
X3069189Y798386D1*
X3077823Y801487D1*
X3086831Y803234D1*
X3095999Y803584D1*
X3105113Y802531D1*
X3113959Y800101D1*
X3122332Y796346D1*
X3130033Y791360D1*
X3136882Y785255D1*
X3142719Y778176D1*
X3147407Y770290D1*
X3150836Y761780D1*
X3152927Y752846D1*
X3153629Y743701D1*
X3152927Y734550D1*
X3252927Y1034550D2*
X3250835Y1025617D1*
X3247406Y1017108D1*
X3242717Y1009222D1*
X3236878Y1002143D1*
X3230029Y996039D1*
X3222327Y991052D1*
X3213955Y987299D1*
X3205108Y984869D1*
X3195993Y983816D1*
X3186825Y984169D1*
X3177819Y985916D1*
X3169184Y989017D1*
X3161123Y993400D1*
X3153827Y998963D1*
X3147466Y1005573D1*
X3143790Y1010799D1*
X3142717Y1009222D1*
X3136878Y1002143D1*
X3130029Y996039D1*
X3122327Y991052D1*
X3113955Y987299D1*
X3105108Y984869D1*
X3095993Y983816D1*
X3086825Y984169D1*
X3077819Y985916D1*
X3069184Y989017D1*
X3061123Y993400D1*
X3053827Y998963D1*
X3047466Y1005573D1*
X3043790Y1010799D1*
X3042717Y1009222D1*
X3036878Y1002143D1*
X3030029Y996039D1*
X3022327Y991052D1*
X3013955Y987299D1*
X3005108Y984869D1*
X2995993Y983816D1*
X2986825Y984169D1*
X2977819Y985916D1*
X2969184Y989017D1*
X2961123Y993400D1*
X2953827Y998963D1*
X2947466Y1005573D1*
X2943790Y1010799D1*
X2942717Y1009222D1*
X2936878Y1002143D1*
X2930029Y996039D1*
X2922327Y991052D1*
X2913955Y987299D1*
X2905108Y984869D1*
X2895993Y983816D1*
X2886825Y984169D1*
X2877819Y985916D1*
X2869184Y989017D1*
X2861123Y993400D1*
X2853827Y998963D1*
X2847466Y1005573D1*
X2842188Y1013079D1*
X2838117Y1021301D1*
X2835349Y1030049D1*
X2833949Y1039115D1*
Y1048291D1*
X2835350Y1057358D1*
X2838118Y1066105D1*
X2842190Y1074327D1*
X2847469Y1081831D1*
X2853831Y1088442D1*
X2861129Y1094004D1*
X2863072Y1095060D1*
X2859693Y1095424D1*
X2850680Y1097591D1*
X2842240Y1101425D1*
X2834678Y1106787D1*
X2828268Y1113483D1*
X2823240Y1121272D1*
X2819778Y1129870D1*
X2818005Y1138969D1*
X2817987Y1148239D1*
X2819723Y1157344D1*
X2823151Y1165957D1*
X2828147Y1173765D1*
X2834531Y1180487D1*
X2842071Y1185879D1*
X2850496Y1189747D1*
X2859500Y1191950D1*
X2868759Y1192409D1*
X2877936Y1191109D1*
X2886702Y1188094D1*
X2894739Y1183476D1*
X2901757Y1177420D1*
X2907503Y1170144D1*
X2911766Y1161913D1*
X2914395Y1153025D1*
X2915295Y1143701D1*
X2914433Y1134568D1*
X2911839Y1125669D1*
X2907608Y1117421D1*
X2901892Y1110123D1*
X2894898Y1104039D1*
X2894185Y1103626D1*
X2895999Y1103584D1*
X2905113Y1102531D1*
X2913959Y1100101D1*
X2922332Y1096346D1*
X2930033Y1091360D1*
X2936882Y1085255D1*
X2942719Y1078176D1*
X2943639Y1076629D1*
X2946328Y1080404D1*
X2952486Y1087206D1*
X2959610Y1092987D1*
X2967533Y1097613D1*
X2976070Y1100976D1*
X2985018Y1102996D1*
X2994172Y1103627D1*
X3003314Y1102853D1*
X3012231Y1100692D1*
X3020714Y1097196D1*
X3028563Y1092445D1*
X3035594Y1086552D1*
X3041646Y1079655D1*
X3043604Y1076579D1*
X3046328Y1080404D1*
X3052486Y1087206D1*
X3059610Y1092987D1*
X3067533Y1097613D1*
X3076070Y1100976D1*
X3085018Y1102996D1*
X3094172Y1103627D1*
X3103314Y1102853D1*
X3112231Y1100692D1*
X3120714Y1097196D1*
X3128563Y1092445D1*
X3135594Y1086552D1*
X3141646Y1079655D1*
X3143604Y1076579D1*
X3146328Y1080404D1*
X3152486Y1087206D1*
X3159610Y1092987D1*
X3167533Y1097613D1*
X3176070Y1100976D1*
X3185018Y1102996D1*
X3194172Y1103627D1*
X3203314Y1102853D1*
X3212231Y1100692D1*
X3220714Y1097196D1*
X3228563Y1092445D1*
X3235594Y1086552D1*
X3241646Y1079655D1*
X3246572Y1071915D1*
X3250259Y1063513D1*
X3252621Y1054647D1*
X3253601Y1045525D1*
X3253629Y1043701D1*
X3252927Y1034550D1*
X2952927Y734550D2*
X2950835Y725617D1*
X2947406Y717108D1*
X2942717Y709222D1*
X2936878Y702143D1*
X2930029Y696039D1*
X2922327Y691052D1*
X2913955Y687299D1*
X2905108Y684869D1*
X2895993Y683816D1*
X2886825Y684169D1*
X2877819Y685916D1*
X2869184Y689017D1*
X2861123Y693400D1*
X2853827Y698963D1*
X2847466Y705573D1*
X2842188Y713079D1*
X2838117Y721301D1*
X2835349Y730049D1*
X2833949Y739115D1*
Y748291D1*
X2835350Y757358D1*
X2838118Y766105D1*
X2842190Y774327D1*
X2847469Y781831D1*
X2853831Y788442D1*
X2861129Y794004D1*
X2869189Y798386D1*
X2877823Y801487D1*
X2886831Y803234D1*
X2895999Y803584D1*
X2905113Y802531D1*
X2913959Y800101D1*
X2922332Y796346D1*
X2930033Y791360D1*
X2936882Y785255D1*
X2942719Y778176D1*
X2947407Y770290D1*
X2950836Y761780D1*
X2952927Y752846D1*
X2953629Y743701D1*
X2952927Y734550D1*
X3204640Y1984525D2*
X3203504Y1975395D1*
X3201618Y1966390D1*
X3198993Y1957571D1*
X3195651Y1949000D1*
X3191610Y1940734D1*
X3186903Y1932829D1*
X3181558Y1925340D1*
X3175612Y1918319D1*
X3169108Y1911812D1*
X3162088Y1905865D1*
X3154601Y1900517D1*
X3146697Y1895807D1*
X3138433Y1891765D1*
X3129862Y1888419D1*
X3121045Y1885793D1*
X3112039Y1883903D1*
X3102911Y1882764D1*
X3093718Y1882382D1*
X3084525Y1882761D1*
X3075395Y1883898D1*
X3066390Y1885783D1*
X3057571Y1888408D1*
X3049000Y1891751D1*
X3040734Y1895791D1*
X3032829Y1900499D1*
X3025340Y1905844D1*
X3018319Y1911790D1*
X3011812Y1918294D1*
X3005865Y1925314D1*
X3000517Y1932801D1*
X2995807Y1940705D1*
X2991765Y1948969D1*
X2988419Y1957539D1*
X2985793Y1966357D1*
X2983903Y1975362D1*
X2982764Y1984491D1*
X2982382Y1993684D1*
X2982761Y2002877D1*
X2983898Y2012007D1*
X2985783Y2021012D1*
X2988408Y2029831D1*
X2991751Y2038402D1*
X2995791Y2046668D1*
X3000499Y2054572D1*
X3005844Y2062062D1*
X3011790Y2069083D1*
X3018294Y2075589D1*
X3025314Y2081537D1*
X3032801Y2086885D1*
X3040705Y2091594D1*
X3048969Y2095636D1*
X3057539Y2098983D1*
X3066357Y2101609D1*
X3075362Y2103499D1*
X3084491Y2104638D1*
X3093684Y2105020D1*
X3102877Y2104640D1*
X3112007Y2103504D1*
X3121012Y2101618D1*
X3129831Y2098993D1*
X3138402Y2095651D1*
X3146668Y2091610D1*
X3154572Y2086903D1*
X3162062Y2081558D1*
X3169083Y2075612D1*
X3175589Y2069108D1*
X3181537Y2062088D1*
X3186885Y2054601D1*
X3191594Y2046697D1*
X3195636Y2038433D1*
X3198983Y2029862D1*
X3201609Y2021045D1*
X3203499Y2012039D1*
X3204638Y2002911D1*
X3205020Y1993701D1*
X3204640Y1984525D1*
X3007349Y2319713D2*
X3007354Y2711362D1*
X2973669Y2745056D1*
X2973283Y2745001D1*
X2964024Y2745424D1*
X2955010Y2747591D1*
X2946571Y2751425D1*
X2939009Y2756787D1*
X2932598Y2763483D1*
X2927571Y2771272D1*
X2924109Y2779870D1*
X2922336Y2788969D1*
X2922318Y2798239D1*
X2924054Y2807344D1*
X2927482Y2815957D1*
X2932478Y2823765D1*
X2938862Y2830487D1*
X2946402Y2835879D1*
X2954827Y2839747D1*
X2963831Y2841950D1*
X2973089Y2842409D1*
X2982266Y2841109D1*
X2991033Y2838094D1*
X2999070Y2833476D1*
X3006088Y2827420D1*
X3011833Y2820144D1*
X3016097Y2811913D1*
X3018726Y2803025D1*
X3019626Y2793701D1*
X3019374Y2791034D1*
X3062682Y2747736D1*
X3066684Y2742875D1*
X3070664Y2734630D1*
X3072181Y2725601D1*
X3072192Y2697217D1*
Y2333109D1*
X3079182Y2326123D1*
X3339035Y2326119D1*
Y2349154D1*
X3548366D1*
Y2238248D1*
X3339035D1*
Y2261277D1*
X3065755Y2261280D1*
X3056690Y2262572D1*
X3048343Y2266353D1*
X3042810Y2270794D1*
X3016845Y2296760D1*
X3011350Y2304083D1*
X3008121Y2312659D1*
X3007349Y2319713D1*
X2461886Y3200253D2*
X2464902Y3208908D1*
X2470214Y3216365D1*
X2490249Y3236415D1*
X2633462Y3379627D1*
X2632728Y3388513D1*
X2633487Y3397640D1*
X2635739Y3406518D1*
X2639420Y3414904D1*
X2644432Y3422570D1*
X2650636Y3429306D1*
X2657866Y3434929D1*
X2665923Y3439285D1*
X2674585Y3442256D1*
X2683619Y3443761D1*
X2692778Y3443759D1*
X2701811Y3442248D1*
X2710472Y3439272D1*
X2718525Y3434909D1*
X2725751Y3429282D1*
X2731951Y3422542D1*
X2736958Y3414873D1*
X2740635Y3406486D1*
X2742881Y3397606D1*
X2743634Y3388496D1*
X2742875Y3379352D1*
X2740623Y3370474D1*
X2736942Y3362088D1*
X2731930Y3354423D1*
X2725726Y3347686D1*
X2718496Y3342063D1*
X2710440Y3337707D1*
X2701777Y3334736D1*
X2692743Y3333231D1*
X2683584Y3333234D1*
X2679465Y3333923D1*
X2526125Y3180589D1*
Y2357224D1*
X2550925D1*
Y2242776D1*
X2436476D1*
Y2357224D1*
X2461281D1*
X2461280Y3193995D1*
X2461886Y3200253D1*
X631747Y4423072D2*
X624076Y4418059D1*
X618119Y4411106D1*
X614344Y4402765D1*
X613051Y4393701D1*
X613050Y1962247D1*
X596581Y1945780D1*
X592135Y1940240D1*
X588360Y1931899D1*
X587067Y1922835D1*
Y1567349D1*
X587840Y1560289D1*
X591068Y1551720D1*
X596564Y1544396D1*
X606545Y1534406D1*
X599157Y1531647D1*
X591285Y1526710D1*
X584567Y1520290D1*
X579278Y1512650D1*
X575636Y1504101D1*
X573790Y1494993D1*
X573815Y1485701D1*
X575710Y1476604D1*
X579396Y1468075D1*
X584726Y1460462D1*
X587067Y1458248D1*
X587071Y1291759D1*
X587455Y1286756D1*
X590123Y1277999D1*
X595134Y1270336D1*
X602087Y1264379D1*
X610428Y1260604D1*
X619492Y1259311D1*
X639035Y1259308D1*
Y1236280D1*
X829512Y1236283D1*
X829518Y1197185D1*
X639035D1*
Y1086280D1*
X848366D1*
X848367Y1109311D1*
X848501Y1109314D1*
X1209446Y748366D1*
X1188248D1*
X1188251Y577894D1*
X1149154Y577890D1*
Y748366D1*
X1038248D1*
Y539035D1*
X1061928D1*
X1062807Y535639D1*
X1066787Y527394D1*
X1072915Y520591D1*
X1080699Y515772D1*
X1089530Y513322D1*
X1093719Y513051D1*
X1293525Y513062D1*
X1302554Y514579D1*
X1310799Y518559D1*
X1317602Y524686D1*
X1322421Y532471D1*
X1324871Y541302D1*
X1325142Y545496D1*
X1325131Y1229474D1*
X1323614Y1238503D1*
X1319627Y1246755D1*
X1315633Y1251608D1*
X1191283Y1375962D1*
X1191273Y1752178D1*
X1189756Y1761207D1*
X1185769Y1769459D1*
X1181774Y1774312D1*
X1165043Y1791034D1*
X1165295Y1793798D1*
X1164395Y1803025D1*
X1161766Y1811913D1*
X1157503Y1820144D1*
X1151757Y1827420D1*
X1144739Y1833476D1*
X1136702Y1838094D1*
X1127936Y1841109D1*
X1118759Y1842409D1*
X1109500Y1841950D1*
X1100496Y1839747D1*
X1092071Y1835879D1*
X1084531Y1830487D1*
X1078147Y1823765D1*
X1073151Y1815957D1*
X1069723Y1807344D1*
X1067987Y1798239D1*
X1068005Y1788969D1*
X1069778Y1779870D1*
X1073240Y1771272D1*
X1078268Y1763483D1*
X1084678Y1756787D1*
X1092240Y1751425D1*
X1100680Y1747591D1*
X1109693Y1745424D1*
X1118953Y1745001D1*
X1119339Y1745056D1*
X1126441Y1737940D1*
Y1362555D1*
X1127213Y1355493D1*
X1130442Y1346925D1*
X1135937Y1339602D1*
X1260299Y1215234D1*
X1260293Y1133811D1*
X1253190Y1137900D1*
X1244462Y1140909D1*
X1235322Y1142211D1*
X1226100Y1141761D1*
X1217131Y1139573D1*
X1208738Y1135727D1*
X1202894Y1131740D1*
Y1142264D1*
X1105768D1*
Y1045138D1*
X1202894D1*
X1202895Y1055837D1*
X1208841Y1051614D1*
X1217244Y1047789D1*
X1226219Y1045623D1*
X1235441Y1045196D1*
X1244579Y1046521D1*
X1253299Y1049551D1*
X1260298Y1053604D1*
X1260304Y789211D1*
X894354Y1155159D1*
X894344Y1260419D1*
X892827Y1269448D1*
X888840Y1277699D1*
X884845Y1282554D1*
X874354Y1293039D1*
X874356Y1437556D1*
X881348Y1444547D1*
X954612Y1444549D1*
X958812Y1440577D1*
X966711Y1435684D1*
X975433Y1432479D1*
X984622Y1431096D1*
X993902Y1431592D1*
X1002891Y1433945D1*
X1011223Y1438059D1*
X1018556Y1443766D1*
X1024591Y1450833D1*
X1029077Y1458970D1*
X1031836Y1467844D1*
X1032752Y1477091D1*
X1031787Y1486332D1*
X1028982Y1495192D1*
X1024450Y1503304D1*
X1018379Y1510339D1*
X1011016Y1516007D1*
X1002663Y1520077D1*
X993660Y1522382D1*
X984379Y1522828D1*
X975198Y1521396D1*
X966492Y1518147D1*
X958619Y1513210D1*
X954623Y1509392D1*
X900339Y1509385D1*
X900328Y1516159D1*
X898811Y1525188D1*
X894824Y1533440D1*
X890823Y1538299D1*
X864282Y1564825D1*
X856825Y1570138D1*
X848366Y1573117D1*
Y1596791D1*
X651909Y1596794D1*
Y1635886D1*
X848366D1*
X848374Y1658920D1*
X889139Y1658923D1*
X893340Y1654951D1*
X901239Y1650058D1*
X909961Y1646853D1*
X919150Y1645470D1*
X928429Y1645966D1*
X937419Y1648319D1*
X945751Y1652433D1*
X953084Y1658140D1*
X959118Y1665207D1*
X963605Y1673344D1*
X966364Y1682218D1*
X967280Y1691465D1*
X966315Y1700706D1*
X963509Y1709566D1*
X958978Y1717678D1*
X952907Y1724713D1*
X945543Y1730381D1*
X937190Y1734451D1*
X928188Y1736756D1*
X918907Y1737202D1*
X909726Y1735770D1*
X901020Y1732521D1*
X893147Y1727584D1*
X888825Y1723762D1*
X848366D1*
Y1746791D1*
X651909Y1746789D1*
Y1893366D1*
X848366D1*
Y2004272D1*
X677894Y2004278D1*
X677890Y2043366D1*
X848366D1*
X848362Y2066398D1*
X985678Y2066408D1*
X994707Y2067925D1*
X1002959Y2071912D1*
X1007819Y2075913D1*
X1034345Y2102454D1*
X1039657Y2109911D1*
X1042672Y2118566D1*
X1043280Y2124828D1*
X1043277Y2661306D1*
X1048622Y2667566D1*
X1053109Y2675702D1*
X1055867Y2684576D1*
X1056783Y2693823D1*
X1055819Y2703064D1*
X1053013Y2711924D1*
X1048482Y2720037D1*
X1042411Y2727071D1*
X1035047Y2732739D1*
X1026694Y2736810D1*
X1017692Y2739114D1*
X1008411Y2739560D1*
X999230Y2738129D1*
X990524Y2734879D1*
X982651Y2729942D1*
X975933Y2723522D1*
X970644Y2715882D1*
X967003Y2707333D1*
X965156Y2698226D1*
X965181Y2688933D1*
X967076Y2679836D1*
X970762Y2671307D1*
X976092Y2663694D1*
X978437Y2661180D1*
X978436Y2138231D1*
X971449Y2131240D1*
X848366Y2131243D1*
Y2154272D1*
X677894Y2154273D1*
X677890Y2300846D1*
X848366D1*
Y2411752D1*
X677894Y2411744D1*
X677890Y2450846D1*
X848366D1*
X848361Y2473878D1*
X894824D1*
X901959Y2474650D1*
X910528Y2477879D1*
X917852Y2483375D1*
X944396Y2509934D1*
X949709Y2517392D1*
X952724Y2526046D1*
X953331Y2532310D1*
X953337Y2784651D1*
X1113916Y2945231D1*
X1118953Y2945001D1*
X1128126Y2946339D1*
X1136879Y2949388D1*
X1144898Y2954039D1*
X1151892Y2960123D1*
X1157608Y2967421D1*
X1161839Y2975669D1*
X1164433Y2984568D1*
X1165295Y2993798D1*
X1164395Y3003025D1*
X1161766Y3011913D1*
X1157503Y3020144D1*
X1151757Y3027420D1*
X1144739Y3033476D1*
X1136702Y3038094D1*
X1127936Y3041109D1*
X1118759Y3042409D1*
X1109500Y3041950D1*
X1100496Y3039747D1*
X1092071Y3035879D1*
X1084531Y3030487D1*
X1078147Y3023765D1*
X1073151Y3015957D1*
X1069723Y3007344D1*
X1067987Y2998239D1*
X1068001Y2991024D1*
X923992Y2847008D1*
X898003Y2821020D1*
X893556Y2815480D1*
X889781Y2807139D1*
X888488Y2798075D1*
X888487Y2545711D1*
X881501Y2538720D1*
X848366Y2538723D1*
Y2561752D1*
X677894Y2561757D1*
X677890Y2708327D1*
X848366D1*
Y2819232D1*
X677894Y2819224D1*
X677890Y2858327D1*
X848366D1*
X848374Y2881358D1*
X869741Y2881369D1*
X878770Y2882886D1*
X887022Y2886873D1*
X891873Y2890865D1*
X918412Y2917419D1*
X923724Y2924875D1*
X926740Y2933530D1*
X927346Y2939791D1*
X927344Y3058659D1*
X1113916Y3245231D1*
X1118953Y3245001D1*
X1128126Y3246339D1*
X1136879Y3249388D1*
X1144898Y3254039D1*
X1151892Y3260123D1*
X1157608Y3267421D1*
X1161839Y3275669D1*
X1164433Y3284568D1*
X1165295Y3293798D1*
X1164395Y3303025D1*
X1161766Y3311913D1*
X1157503Y3320144D1*
X1151757Y3327420D1*
X1144739Y3333476D1*
X1136702Y3338094D1*
X1127936Y3341109D1*
X1118759Y3342409D1*
X1109500Y3341950D1*
X1100496Y3339747D1*
X1092071Y3335879D1*
X1084531Y3330487D1*
X1078147Y3323765D1*
X1073151Y3315957D1*
X1069723Y3307344D1*
X1067987Y3298239D1*
X1068001Y3291024D1*
X923988Y3147004D1*
X872018Y3095035D1*
X867572Y3089496D1*
X863797Y3081155D1*
X862504Y3072091D1*
X862500Y2953193D1*
X855499Y2946201D1*
X848366Y2946203D1*
Y2969232D1*
X677894Y2969238D1*
X677890Y3115807D1*
X848366D1*
Y3226713D1*
X677894Y3226705D1*
X677890Y3265807D1*
X848366D1*
X848360Y3276121D1*
X853232Y3275387D1*
X862512Y3275883D1*
X871501Y3278236D1*
X879833Y3282350D1*
X887167Y3288058D1*
X893201Y3295125D1*
X897688Y3303261D1*
X900446Y3312135D1*
X901362Y3321382D1*
X900398Y3330623D1*
X897592Y3339483D1*
X893060Y3347596D1*
X886990Y3354630D1*
X879626Y3360298D1*
X871273Y3364369D1*
X862270Y3366673D1*
X852990Y3367119D1*
X848366Y3366638D1*
Y3376713D1*
X677894Y3376718D1*
X677890Y3523287D1*
X848366D1*
Y3634193D1*
X677894Y3634185D1*
X677890Y3673287D1*
X848366D1*
X848367Y3696319D1*
X952379Y3696329D1*
X961408Y3697846D1*
X969660Y3701833D1*
X974513Y3705828D1*
X1113916Y3845231D1*
X1118953Y3845001D1*
X1128126Y3846339D1*
X1136879Y3849388D1*
X1144898Y3854039D1*
X1151892Y3860123D1*
X1157608Y3867421D1*
X1161839Y3875669D1*
X1164433Y3884568D1*
X1165295Y3893798D1*
X1164395Y3903025D1*
X1161766Y3911913D1*
X1157503Y3920144D1*
X1151757Y3927420D1*
X1144739Y3933476D1*
X1136702Y3938094D1*
X1127936Y3941109D1*
X1118759Y3942409D1*
X1109500Y3941950D1*
X1100496Y3939747D1*
X1092071Y3935879D1*
X1084531Y3930487D1*
X1078147Y3923765D1*
X1073151Y3915957D1*
X1069723Y3907344D1*
X1067987Y3898239D1*
X1067858Y3890874D1*
X938143Y3761161D1*
X848366Y3761164D1*
Y3784193D1*
X677894Y3784198D1*
X677890Y3930768D1*
X848366D1*
Y4041673D1*
X677894Y4041665D1*
X677890Y4080768D1*
X848366D1*
X848371Y4103799D1*
X1059860Y4103810D1*
X1068888Y4105327D1*
X1077140Y4109314D1*
X1081999Y4113314D1*
X1113916Y4145231D1*
X1118953Y4145001D1*
X1128126Y4146339D1*
X1136879Y4149388D1*
X1144898Y4154039D1*
X1151892Y4160123D1*
X1157608Y4167421D1*
X1161839Y4175669D1*
X1164433Y4184568D1*
X1165295Y4193798D1*
X1164395Y4203025D1*
X1161766Y4211913D1*
X1157503Y4220144D1*
X1151757Y4227420D1*
X1144739Y4233476D1*
X1136702Y4238094D1*
X1127936Y4241109D1*
X1118759Y4242409D1*
X1109500Y4241950D1*
X1100496Y4239747D1*
X1092071Y4235879D1*
X1084531Y4230487D1*
X1078147Y4223765D1*
X1073151Y4215957D1*
X1069723Y4207344D1*
X1067987Y4198239D1*
X1068001Y4191024D1*
X1045621Y4168642D1*
X848366Y4168644D1*
Y4191673D1*
X677894Y4191678D1*
X677890Y4338248D1*
X848366D1*
X848367Y4361280D1*
X1295907Y4361290D1*
X1304936Y4362807D1*
X1313188Y4366794D1*
X1318043Y4370791D1*
X1381366Y4434114D1*
X1394562Y4434110D1*
X1390143Y4428224D1*
X1385774Y4420251D1*
X1382587Y4411736D1*
X1380642Y4402856D1*
X1379980Y4393787D1*
X1380617Y4384719D1*
X1382537Y4375832D1*
X1385702Y4367310D1*
X1390049Y4359324D1*
X1395487Y4352038D1*
X1401907Y4345601D1*
X1404308Y4343609D1*
X1402038Y4341915D1*
X1395601Y4335495D1*
X1390143Y4328224D1*
X1385774Y4320251D1*
X1382587Y4311736D1*
X1380642Y4302856D1*
X1379980Y4293787D1*
X1380617Y4284719D1*
X1382537Y4275832D1*
X1385702Y4267310D1*
X1390049Y4259324D1*
X1395487Y4252038D1*
X1401907Y4245601D1*
X1404308Y4243609D1*
X1402038Y4241915D1*
X1395601Y4235495D1*
X1390143Y4228224D1*
X1385774Y4220251D1*
X1382587Y4211736D1*
X1380642Y4202856D1*
X1379980Y4193787D1*
X1380617Y4184719D1*
X1382537Y4175832D1*
X1385702Y4167310D1*
X1390049Y4159324D1*
X1395487Y4152038D1*
X1401907Y4145601D1*
X1409177Y4140143D1*
X1417151Y4135774D1*
X1425665Y4132587D1*
X1434546Y4130642D1*
X1443614Y4129980D1*
X1452682Y4130617D1*
X1461570Y4132537D1*
X1470092Y4135702D1*
X1478077Y4140049D1*
X1485364Y4145487D1*
X1491801Y4151907D1*
X1497259Y4159177D1*
X1501627Y4167151D1*
X1504815Y4175665D1*
X1506760Y4184546D1*
X1507421Y4193701D1*
X1506785Y4202682D1*
X1504865Y4211570D1*
X1501699Y4220092D1*
X1497353Y4228077D1*
X1491915Y4235364D1*
X1485495Y4241801D1*
X1483093Y4243793D1*
X1485364Y4245487D1*
X1491801Y4251907D1*
X1497259Y4259177D1*
X1501627Y4267151D1*
X1504815Y4275665D1*
X1506760Y4284546D1*
X1507421Y4293701D1*
X1506785Y4302682D1*
X1504865Y4311570D1*
X1501699Y4320092D1*
X1497353Y4328077D1*
X1491915Y4335364D1*
X1485495Y4341801D1*
X1483093Y4343793D1*
X1485364Y4345487D1*
X1491801Y4351907D1*
X1497259Y4359177D1*
X1501627Y4367151D1*
X1504815Y4375665D1*
X1506760Y4384546D1*
X1507421Y4393701D1*
X1506785Y4402682D1*
X1504865Y4411570D1*
X1501699Y4420092D1*
X1497353Y4428077D1*
X1492966Y4434114D1*
X1557543D1*
X1561844Y4429622D1*
X1569406Y4424260D1*
X1577845Y4420425D1*
X1586858Y4418259D1*
X1596118Y4417836D1*
X1596504Y4417891D1*
X1640980Y4373404D1*
X2044186Y3970214D1*
X2051643Y3964902D1*
X2060298Y3961886D1*
X2066555Y3961280D1*
X2188983Y3961282D1*
X2190049Y3959324D1*
X2195487Y3952038D1*
X2201907Y3945601D1*
X2204314Y3943794D1*
X2204308Y3943609D1*
X2202038Y3941915D1*
X2195601Y3935495D1*
X2190143Y3928224D1*
X2185774Y3920251D1*
X2182587Y3911736D1*
X2180642Y3902856D1*
X2179980Y3893787D1*
X2180617Y3884719D1*
X2182537Y3875832D1*
X2185702Y3867310D1*
X2190049Y3859324D1*
X2195487Y3852038D1*
X2201907Y3845601D1*
X2204314Y3843794D1*
X2204308Y3843609D1*
X2202038Y3841915D1*
X2195601Y3835495D1*
X2190143Y3828224D1*
X2185774Y3820251D1*
X2182587Y3811736D1*
X2180642Y3802856D1*
X2179980Y3793787D1*
X2180617Y3784719D1*
X2182537Y3775832D1*
X2185702Y3767310D1*
X2190049Y3759324D1*
X2195487Y3752038D1*
X2201907Y3745601D1*
X2204314Y3743794D1*
X2204308Y3743609D1*
X2202038Y3741915D1*
X2195601Y3735495D1*
X2190143Y3728224D1*
X2185774Y3720251D1*
X2182587Y3711736D1*
X2180642Y3702856D1*
X2179980Y3693787D1*
X2180617Y3684719D1*
X2182537Y3675832D1*
X2185702Y3667310D1*
X2190049Y3659324D1*
X2195487Y3652038D1*
X2201907Y3645601D1*
X2204314Y3643794D1*
X2204308Y3643609D1*
X2202038Y3641915D1*
X2195601Y3635495D1*
X2190143Y3628224D1*
X2185774Y3620251D1*
X2182587Y3611736D1*
X2180642Y3602856D1*
X2179980Y3593787D1*
X2180617Y3584719D1*
X2182537Y3575832D1*
X2185702Y3567310D1*
X2190049Y3559324D1*
X2195487Y3552038D1*
X2201907Y3545601D1*
X2204314Y3543794D1*
X2204308Y3543609D1*
X2202038Y3541915D1*
X2195601Y3535495D1*
X2190143Y3528224D1*
X2185774Y3520251D1*
X2182587Y3511736D1*
X2180642Y3502856D1*
X2179980Y3493787D1*
X2180617Y3484719D1*
X2182537Y3475832D1*
X2185702Y3467310D1*
X2190049Y3459324D1*
X2195487Y3452038D1*
X2201907Y3445601D1*
X2204314Y3443794D1*
X2204308Y3443609D1*
X2202038Y3441915D1*
X2195601Y3435495D1*
X2190143Y3428224D1*
X2185774Y3420251D1*
X2182587Y3411736D1*
X2180642Y3402856D1*
X2179980Y3393787D1*
X2180617Y3384719D1*
X2182537Y3375832D1*
X2185702Y3367310D1*
X2190049Y3359324D1*
X2195487Y3352038D1*
X2201907Y3345601D1*
X2204314Y3343794D1*
X2204308Y3343609D1*
X2202038Y3341915D1*
X2195601Y3335495D1*
X2190143Y3328224D1*
X2185774Y3320251D1*
X2182587Y3311736D1*
X2180642Y3302856D1*
X2179980Y3293787D1*
X2180617Y3284719D1*
X2182537Y3275832D1*
X2185702Y3267310D1*
X2190049Y3259324D1*
X2195487Y3252038D1*
X2201907Y3245601D1*
X2204314Y3243794D1*
X2204308Y3243609D1*
X2202038Y3241915D1*
X2195601Y3235495D1*
X2190143Y3228224D1*
X2185774Y3220251D1*
X2182587Y3211736D1*
X2180642Y3202856D1*
X2179980Y3193787D1*
X2180617Y3184719D1*
X2182537Y3175832D1*
X2185702Y3167310D1*
X2190049Y3159324D1*
X2195487Y3152038D1*
X2201907Y3145601D1*
X2204308Y3143609D1*
X2202038Y3141915D1*
X2195601Y3135495D1*
X2190143Y3128224D1*
X2185774Y3120251D1*
X2182587Y3111736D1*
X2180642Y3102856D1*
X2179980Y3093787D1*
X2180617Y3084719D1*
X2182537Y3075832D1*
X2185702Y3067310D1*
X2190049Y3059324D1*
X2195487Y3052038D1*
X2201907Y3045601D1*
X2204308Y3043609D1*
X2202038Y3041915D1*
X2195601Y3035495D1*
X2190143Y3028224D1*
X2185774Y3020251D1*
X2182587Y3011736D1*
X2180642Y3002856D1*
X2179980Y2993787D1*
X2180617Y2984719D1*
X2182537Y2975832D1*
X2185702Y2967310D1*
X2190049Y2959324D1*
X2195487Y2952038D1*
X2201907Y2945601D1*
X2204308Y2943609D1*
X2202038Y2941915D1*
X2195601Y2935495D1*
X2190143Y2928224D1*
X2185774Y2920251D1*
X2182587Y2911736D1*
X2180642Y2902856D1*
X2179980Y2893787D1*
X2180617Y2884719D1*
X2182537Y2875832D1*
X2185702Y2867310D1*
X2190049Y2859324D1*
X2195487Y2852038D1*
X2201907Y2845601D1*
X2209177Y2840143D1*
X2217151Y2835774D1*
X2225665Y2832587D1*
X2234546Y2830642D1*
X2243614Y2829980D1*
X2252682Y2830617D1*
X2261570Y2832537D1*
X2270092Y2835702D1*
X2278077Y2840049D1*
X2285364Y2845487D1*
X2291801Y2851907D1*
X2297259Y2859177D1*
X2301627Y2867151D1*
X2304815Y2875665D1*
X2306760Y2884546D1*
X2307421Y2893701D1*
X2306785Y2902682D1*
X2304865Y2911570D1*
X2301699Y2920092D1*
X2297353Y2928077D1*
X2291915Y2935364D1*
X2285495Y2941801D1*
X2283093Y2943793D1*
X2285364Y2945487D1*
X2291801Y2951907D1*
X2297259Y2959177D1*
X2301627Y2967151D1*
X2304815Y2975665D1*
X2306760Y2984546D1*
X2307421Y2993701D1*
X2306785Y3002682D1*
X2304865Y3011570D1*
X2301699Y3020092D1*
X2297353Y3028077D1*
X2291915Y3035364D1*
X2285495Y3041801D1*
X2283093Y3043793D1*
X2285364Y3045487D1*
X2291801Y3051907D1*
X2297259Y3059177D1*
X2301627Y3067151D1*
X2304815Y3075665D1*
X2306760Y3084546D1*
X2307421Y3093701D1*
X2306785Y3102682D1*
X2304865Y3111570D1*
X2301699Y3120092D1*
X2297353Y3128077D1*
X2291915Y3135364D1*
X2285495Y3141801D1*
X2283093Y3143793D1*
X2285364Y3145487D1*
X2291801Y3151907D1*
X2297259Y3159177D1*
X2301627Y3167151D1*
X2304815Y3175665D1*
X2306760Y3184546D1*
X2306786Y3184765D1*
X2313248Y3178312D1*
Y2568524D1*
X2148567Y2733201D1*
X2148556Y3594505D1*
X2147039Y3603534D1*
X2143052Y3611786D1*
X2139052Y3616646D1*
X2112513Y3643172D1*
X2105055Y3648483D1*
X2096402Y3651499D1*
X2090144Y3652106D1*
X1940055Y3652110D1*
X1941598Y3657403D1*
X1942461Y3666633D1*
X1941560Y3675860D1*
X1938932Y3684748D1*
X1934668Y3692979D1*
X1928923Y3700255D1*
X1921904Y3706311D1*
X1913867Y3710929D1*
X1905101Y3713944D1*
X1895924Y3715244D1*
X1886665Y3714785D1*
X1877661Y3712581D1*
X1869236Y3708714D1*
X1861697Y3703322D1*
X1855312Y3696600D1*
X1850316Y3688791D1*
X1846888Y3680178D1*
X1845152Y3671073D1*
X1845171Y3661803D1*
X1846944Y3652705D1*
X1850406Y3644106D1*
X1855433Y3636318D1*
X1859860Y3631694D1*
X1854293Y3626122D1*
X1498419Y3626119D1*
X1497353Y3628077D1*
X1491915Y3635364D1*
X1485495Y3641801D1*
X1483088Y3643608D1*
X1483093Y3643793D1*
X1485364Y3645487D1*
X1491801Y3651907D1*
X1497259Y3659177D1*
X1501627Y3667151D1*
X1504815Y3675665D1*
X1506760Y3684546D1*
X1507421Y3693701D1*
X1506785Y3702682D1*
X1504865Y3711570D1*
X1501699Y3720092D1*
X1497353Y3728077D1*
X1491915Y3735364D1*
X1485495Y3741801D1*
X1483093Y3743793D1*
X1485364Y3745487D1*
X1491801Y3751907D1*
X1497259Y3759177D1*
X1501627Y3767151D1*
X1504815Y3775665D1*
X1506760Y3784546D1*
X1507421Y3793701D1*
X1506785Y3802682D1*
X1504865Y3811570D1*
X1501699Y3820092D1*
X1497353Y3828077D1*
X1491915Y3835364D1*
X1485495Y3841801D1*
X1483093Y3843793D1*
X1485364Y3845487D1*
X1491801Y3851907D1*
X1497259Y3859177D1*
X1501627Y3867151D1*
X1504815Y3875665D1*
X1506760Y3884546D1*
X1507421Y3893701D1*
X1506785Y3902682D1*
X1504865Y3911570D1*
X1501699Y3920092D1*
X1497353Y3928077D1*
X1491915Y3935364D1*
X1485495Y3941801D1*
X1483093Y3943793D1*
X1485364Y3945487D1*
X1491801Y3951907D1*
X1497259Y3959177D1*
X1501627Y3967151D1*
X1504815Y3975665D1*
X1506760Y3984546D1*
X1507421Y3993701D1*
X1506785Y4002682D1*
X1504865Y4011570D1*
X1501699Y4020092D1*
X1497353Y4028077D1*
X1491915Y4035364D1*
X1485495Y4041801D1*
X1478224Y4047259D1*
X1470251Y4051627D1*
X1461736Y4054815D1*
X1452856Y4056760D1*
X1443787Y4057421D1*
X1434719Y4056785D1*
X1425832Y4054865D1*
X1417310Y4051699D1*
X1409324Y4047353D1*
X1402038Y4041915D1*
X1395601Y4035495D1*
X1390143Y4028224D1*
X1385774Y4020251D1*
X1382587Y4011736D1*
X1380642Y4002856D1*
X1379980Y3993787D1*
X1380617Y3984719D1*
X1382537Y3975832D1*
X1385702Y3967310D1*
X1390049Y3959324D1*
X1395487Y3952038D1*
X1401907Y3945601D1*
X1404308Y3943609D1*
X1402038Y3941915D1*
X1395601Y3935495D1*
X1390143Y3928224D1*
X1385774Y3920251D1*
X1382587Y3911736D1*
X1380642Y3902856D1*
X1379980Y3893787D1*
X1380617Y3884719D1*
X1382537Y3875832D1*
X1385702Y3867310D1*
X1390049Y3859324D1*
X1395487Y3852038D1*
X1401907Y3845601D1*
X1404308Y3843609D1*
X1402038Y3841915D1*
X1395601Y3835495D1*
X1390143Y3828224D1*
X1385774Y3820251D1*
X1382587Y3811736D1*
X1380642Y3802856D1*
X1379980Y3793787D1*
X1380617Y3784719D1*
X1382537Y3775832D1*
X1385702Y3767310D1*
X1390049Y3759324D1*
X1395487Y3752038D1*
X1401907Y3745601D1*
X1404308Y3743609D1*
X1402038Y3741915D1*
X1395601Y3735495D1*
X1390143Y3728224D1*
X1385774Y3720251D1*
X1382587Y3711736D1*
X1380642Y3702856D1*
X1379980Y3693787D1*
X1380617Y3684719D1*
X1382081Y3677941D1*
X1354530Y3650381D1*
X1217726Y3513562D1*
X1212413Y3506104D1*
X1209398Y3497450D1*
X1208791Y3491190D1*
X1208802Y1470904D1*
X1210319Y1461875D1*
X1214306Y1453623D1*
X1218302Y1448769D1*
X1300500Y1366566D1*
X1300512Y1361965D1*
X1302407Y1352867D1*
X1306093Y1344339D1*
X1311423Y1336726D1*
X1318175Y1330341D1*
X1326073Y1325448D1*
X1334795Y1322243D1*
X1343984Y1320860D1*
X1353256Y1321358D1*
X1353266Y994640D1*
X1354783Y985612D1*
X1358770Y977360D1*
X1362765Y972505D1*
X1511280Y823993D1*
X1511277Y591436D1*
X1509803Y590535D1*
X1502894Y584656D1*
X1501516Y583241D1*
Y601516D1*
X1385886D1*
Y485886D1*
X1501516D1*
X1501510Y504344D1*
X1502745Y502894D1*
X1509634Y496990D1*
X1517360Y492235D1*
X1525735Y488748D1*
X1534552Y486614D1*
X1543596Y485886D1*
X1552642Y486581D1*
X1561467Y488684D1*
X1569854Y492140D1*
X1577598Y496866D1*
X1584508Y502745D1*
X1590412Y509634D1*
X1593612Y514832D1*
X1593797D1*
X1596866Y509803D1*
X1602745Y502894D1*
X1609634Y496990D1*
X1617360Y492235D1*
X1625735Y488748D1*
X1634552Y486614D1*
X1643596Y485886D1*
X1652642Y486581D1*
X1661467Y488684D1*
X1669854Y492140D1*
X1677598Y496866D1*
X1684508Y502745D1*
X1690412Y509634D1*
X1695167Y517360D1*
X1698654Y525735D1*
X1700787Y534552D1*
X1701516Y543701D1*
X1700820Y552642D1*
X1698718Y561467D1*
X1695261Y569854D1*
X1690535Y577598D1*
X1684656Y584508D1*
X1677768Y590412D1*
X1670042Y595167D1*
X1661667Y598654D1*
X1652849Y600787D1*
X1651126Y600927D1*
X1651122Y748783D1*
X1651112Y1144505D1*
X1649594Y1153534D1*
X1645608Y1161786D1*
X1641612Y1166640D1*
X1533406Y1274843D1*
X1533413Y1405843D1*
X1538268Y1405112D1*
X1547547Y1405608D1*
X1556537Y1407961D1*
X1564869Y1412075D1*
X1572202Y1417782D1*
X1578236Y1424849D1*
X1582723Y1432986D1*
X1585482Y1441860D1*
X1586398Y1451106D1*
X1585433Y1460348D1*
X1582627Y1469207D1*
X1578096Y1477320D1*
X1572894Y1483520D1*
X1572896Y1988739D1*
X1575558Y1987639D1*
X1584551Y1985492D1*
X1593770Y1984777D1*
X1602987Y1985513D1*
X1611975Y1987682D1*
X1620513Y1991231D1*
X1628391Y1996071D1*
X1635415Y2002084D1*
X1641412Y2009122D1*
X1646234Y2017012D1*
X1649762Y2025558D1*
X1651909Y2034551D1*
X1652625Y2043770D1*
X1651888Y2052987D1*
X1649719Y2061975D1*
X1646171Y2070513D1*
X1641331Y2078391D1*
X1635318Y2085415D1*
X1628280Y2091412D1*
X1624706Y2093807D1*
X1628391Y2096071D1*
X1635415Y2102084D1*
X1641412Y2109122D1*
X1646234Y2117012D1*
X1649762Y2125558D1*
X1651909Y2134551D1*
X1652625Y2143770D1*
X1651888Y2152987D1*
X1649719Y2161975D1*
X1646171Y2170513D1*
X1641331Y2178391D1*
X1635318Y2185415D1*
X1628280Y2191412D1*
X1624706Y2193807D1*
X1628391Y2196071D1*
X1635415Y2202084D1*
X1641412Y2209122D1*
X1646234Y2217012D1*
X1649762Y2225558D1*
X1651909Y2234551D1*
X1652625Y2243770D1*
X1651888Y2252987D1*
X1649719Y2261975D1*
X1646171Y2270513D1*
X1641331Y2278391D1*
X1635318Y2285415D1*
X1628280Y2291412D1*
X1624706Y2293807D1*
X1628391Y2296071D1*
X1635415Y2302084D1*
X1641412Y2309122D1*
X1646234Y2317012D1*
X1649762Y2325558D1*
X1651909Y2334551D1*
X1652625Y2343770D1*
X1651888Y2352987D1*
X1649719Y2361975D1*
X1646171Y2370513D1*
X1641331Y2378391D1*
X1635318Y2385415D1*
X1628280Y2391412D1*
X1620390Y2396234D1*
X1611844Y2399762D1*
X1602850Y2401909D1*
X1593631Y2402625D1*
X1584415Y2401888D1*
X1575427Y2399719D1*
X1572894Y2398836D1*
X1572891Y2977007D1*
X1577845Y2974756D1*
X1586858Y2972589D1*
X1596118Y2972167D1*
X1605291Y2973504D1*
X1614045Y2976554D1*
X1622063Y2981205D1*
X1629058Y2987289D1*
X1634773Y2994587D1*
X1639004Y3002835D1*
X1641598Y3011734D1*
X1642461Y3020963D1*
X1641560Y3030190D1*
X1638932Y3039079D1*
X1634668Y3047310D1*
X1628923Y3054585D1*
X1621904Y3060642D1*
X1613867Y3065260D1*
X1605101Y3068274D1*
X1595924Y3069575D1*
X1586665Y3069115D1*
X1577661Y3066912D1*
X1572898Y3064726D1*
X1572891Y3161306D1*
X1578236Y3167566D1*
X1582723Y3175702D1*
X1585482Y3184576D1*
X1586398Y3193701D1*
X1585991Y3199804D1*
X1583829Y3208841D1*
X1579895Y3217260D1*
X1574345Y3224713D1*
X1567409Y3230896D1*
X1559370Y3235558D1*
X1550558Y3238505D1*
X1541332Y3239618D1*
X1532071Y3238852D1*
X1523155Y3236236D1*
X1514948Y3231879D1*
X1507785Y3225959D1*
X1502117Y3218969D1*
X1501699Y3220092D1*
X1497353Y3228077D1*
X1491915Y3235364D1*
X1485495Y3241801D1*
X1483088Y3243608D1*
X1483093Y3243793D1*
X1485364Y3245487D1*
X1491801Y3251907D1*
X1497259Y3259177D1*
X1498407Y3261272D1*
X1551933Y3261280D1*
X1630277Y3261274D1*
X1661280Y3230273D1*
Y743728D1*
X1662052Y736667D1*
X1665281Y728098D1*
X1670776Y720776D1*
X1762657Y628888D1*
Y518333D1*
X1763429Y511273D1*
X1766659Y502705D1*
X1772155Y495381D1*
X1798118Y469416D1*
X1803657Y464970D1*
X1811999Y461194D1*
X1821063Y459902D1*
X2442297D1*
X2449357Y460673D1*
X2457925Y463903D1*
X2465248Y469398D1*
X2482874Y487021D1*
X2484552Y486614D1*
X2493596Y485886D1*
X2502642Y486581D1*
X2511467Y488684D1*
X2519854Y492140D1*
X2527598Y496866D1*
X2534508Y502745D1*
X2540412Y509634D1*
X2543612Y514832D1*
X2543797D1*
X2546866Y509803D1*
X2552745Y502894D1*
X2559634Y496990D1*
X2567360Y492235D1*
X2575735Y488748D1*
X2584552Y486614D1*
X2593596Y485886D1*
X2602642Y486581D1*
X2611467Y488684D1*
X2619854Y492140D1*
X2627598Y496866D1*
X2634508Y502745D1*
X2640412Y509634D1*
X2643612Y514832D1*
X2643797D1*
X2646866Y509803D1*
X2652745Y502894D1*
X2659634Y496990D1*
X2667360Y492235D1*
X2675735Y488748D1*
X2684552Y486614D1*
X2693596Y485886D1*
X2702642Y486581D1*
X2711467Y488684D1*
X2719854Y492140D1*
X2727598Y496866D1*
X2734508Y502745D1*
X2740412Y509634D1*
X2743612Y514832D1*
X2743797D1*
X2746866Y509803D1*
X2752745Y502894D1*
X2759634Y496990D1*
X2767360Y492235D1*
X2775735Y488748D1*
X2784552Y486614D1*
X2793596Y485886D1*
X2802642Y486581D1*
X2811467Y488684D1*
X2819854Y492140D1*
X2827598Y496866D1*
X2834508Y502745D1*
X2840412Y509634D1*
X2843612Y514832D1*
X2843797D1*
X2846866Y509803D1*
X2852745Y502894D1*
X2859634Y496990D1*
X2867360Y492235D1*
X2875735Y488748D1*
X2884552Y486614D1*
X2893596Y485886D1*
X2902642Y486581D1*
X2911467Y488684D1*
X2919854Y492140D1*
X2927598Y496866D1*
X2934508Y502745D1*
X2940412Y509634D1*
X2943612Y514832D1*
X2943797D1*
X2946866Y509803D1*
X2952745Y502894D1*
X2959634Y496990D1*
X2967360Y492235D1*
X2975735Y488748D1*
X2984552Y486614D1*
X2993596Y485886D1*
X3002642Y486581D1*
X3011467Y488684D1*
X3019854Y492140D1*
X3027598Y496866D1*
X3034508Y502745D1*
X3040412Y509634D1*
X3043797Y514832D1*
X3046866Y509803D1*
X3052745Y502894D1*
X3059634Y496990D1*
X3067360Y492235D1*
X3075735Y488748D1*
X3084552Y486614D1*
X3093596Y485886D1*
X3102642Y486581D1*
X3111467Y488684D1*
X3119854Y492140D1*
X3127598Y496866D1*
X3134508Y502745D1*
X3140412Y509634D1*
X3143797Y514832D1*
X3146866Y509803D1*
X3152745Y502894D1*
X3159634Y496990D1*
X3167360Y492235D1*
X3175735Y488748D1*
X3184552Y486614D1*
X3193596Y485886D1*
X3202642Y486581D1*
X3211467Y488684D1*
X3219854Y492140D1*
X3227598Y496866D1*
X3234508Y502745D1*
X3240412Y509634D1*
X3243797Y514832D1*
X3246866Y509803D1*
X3252745Y502894D1*
X3259634Y496990D1*
X3267360Y492235D1*
X3275735Y488748D1*
X3284552Y486614D1*
X3293596Y485886D1*
X3302642Y486581D1*
X3311467Y488684D1*
X3319854Y492140D1*
X3327598Y496866D1*
X3334508Y502745D1*
X3340412Y509634D1*
X3345167Y517360D1*
X3348654Y525735D1*
X3350787Y534552D1*
X3351516Y543701D1*
X3350820Y552642D1*
X3348718Y561467D1*
X3345261Y569854D1*
X3340535Y577598D1*
X3334656Y584508D1*
X3327768Y590412D1*
X3320042Y595167D1*
X3311667Y598654D1*
X3302849Y600787D1*
X3293806Y601516D1*
X3284760Y600820D1*
X3275934Y598718D1*
X3267547Y595261D1*
X3259803Y590535D1*
X3252894Y584656D1*
X3246990Y577768D1*
X3243605Y572570D1*
X3240535Y577598D1*
X3234656Y584508D1*
X3227768Y590412D1*
X3220042Y595167D1*
X3211667Y598654D1*
X3202849Y600787D1*
X3193806Y601516D1*
X3184760Y600820D1*
X3175934Y598718D1*
X3167547Y595261D1*
X3159803Y590535D1*
X3152894Y584656D1*
X3146990Y577768D1*
X3143605Y572570D1*
X3140535Y577598D1*
X3134656Y584508D1*
X3127768Y590412D1*
X3120042Y595167D1*
X3111667Y598654D1*
X3102849Y600787D1*
X3093806Y601516D1*
X3084760Y600820D1*
X3075934Y598718D1*
X3067547Y595261D1*
X3059803Y590535D1*
X3052894Y584656D1*
X3046990Y577768D1*
X3043605Y572570D1*
X3040535Y577598D1*
X3034656Y584508D1*
X3027768Y590412D1*
X3020042Y595167D1*
X3011667Y598654D1*
X3002849Y600787D1*
X2993806Y601516D1*
X2984760Y600820D1*
X2975934Y598718D1*
X2967547Y595261D1*
X2959803Y590535D1*
X2952894Y584656D1*
X2946990Y577768D1*
X2943605Y572570D1*
X2940535Y577598D1*
X2934656Y584508D1*
X2927768Y590412D1*
X2920042Y595167D1*
X2911667Y598654D1*
X2902849Y600787D1*
X2893806Y601516D1*
X2884760Y600820D1*
X2882873Y600370D1*
X2839264Y643988D1*
X2838688Y644550D1*
X2831231Y649862D1*
X2822576Y652877D1*
X2816320Y653484D1*
X2430892Y653491D1*
X2431465Y654160D1*
X2435951Y662297D1*
X2438710Y671171D1*
X2439626Y680417D1*
X2438661Y689659D1*
X2435856Y698518D1*
X2431324Y706631D1*
X2426125Y712656D1*
X2426119Y1199810D1*
X2431465Y1206070D1*
X2435951Y1214206D1*
X2438710Y1223080D1*
X2439626Y1232327D1*
X2438661Y1241568D1*
X2435856Y1250428D1*
X2431324Y1258541D1*
X2425253Y1265575D1*
X2417890Y1271243D1*
X2409537Y1275314D1*
X2400534Y1277618D1*
X2391253Y1278064D1*
X2382072Y1276633D1*
X2378084Y1275144D1*
X2378091Y1345308D1*
X2378080Y3192537D1*
X2376563Y3201566D1*
X2372576Y3209818D1*
X2368581Y3214671D1*
X2305315Y3277946D1*
X2306760Y3284546D1*
X2307421Y3293701D1*
X2306785Y3302682D1*
X2304865Y3311570D1*
X2301699Y3320092D1*
X2297353Y3328077D1*
X2291915Y3335364D1*
X2285495Y3341801D1*
X2283093Y3343793D1*
X2285364Y3345487D1*
X2291801Y3351907D1*
X2297259Y3359177D1*
X2301627Y3367151D1*
X2304815Y3375665D1*
X2306760Y3384546D1*
X2307421Y3393701D1*
X2306785Y3402682D1*
X2304865Y3411570D1*
X2301699Y3420092D1*
X2297353Y3428077D1*
X2291915Y3435364D1*
X2285495Y3441801D1*
X2283093Y3443793D1*
X2285364Y3445487D1*
X2291801Y3451907D1*
X2297259Y3459177D1*
X2301627Y3467151D1*
X2304815Y3475665D1*
X2306760Y3484546D1*
X2307421Y3493701D1*
X2306785Y3502682D1*
X2304865Y3511570D1*
X2301699Y3520092D1*
X2297353Y3528077D1*
X2291915Y3535364D1*
X2285495Y3541801D1*
X2283093Y3543793D1*
X2285364Y3545487D1*
X2291801Y3551907D1*
X2297259Y3559177D1*
X2301627Y3567151D1*
X2304815Y3575665D1*
X2306760Y3584546D1*
X2307421Y3593701D1*
X2306785Y3602682D1*
X2304865Y3611570D1*
X2301699Y3620092D1*
X2297353Y3628077D1*
X2291915Y3635364D1*
X2285495Y3641801D1*
X2283093Y3643793D1*
X2285364Y3645487D1*
X2291801Y3651907D1*
X2297259Y3659177D1*
X2301627Y3667151D1*
X2304815Y3675665D1*
X2306760Y3684546D1*
X2307421Y3693701D1*
X2306785Y3702682D1*
X2304865Y3711570D1*
X2301699Y3720092D1*
X2297353Y3728077D1*
X2291915Y3735364D1*
X2285495Y3741801D1*
X2283093Y3743793D1*
X2285364Y3745487D1*
X2291801Y3751907D1*
X2297259Y3759177D1*
X2301627Y3767151D1*
X2304815Y3775665D1*
X2306760Y3784546D1*
X2307421Y3793701D1*
X2306785Y3802682D1*
X2304865Y3811570D1*
X2301699Y3820092D1*
X2297353Y3828077D1*
X2291915Y3835364D1*
X2285495Y3841801D1*
X2283093Y3843793D1*
X2285364Y3845487D1*
X2291801Y3851907D1*
X2297259Y3859177D1*
X2301627Y3867151D1*
X2304815Y3875665D1*
X2306760Y3884546D1*
X2307421Y3893701D1*
X2306785Y3902682D1*
X2304865Y3911570D1*
X2301699Y3920092D1*
X2297353Y3928077D1*
X2291915Y3935364D1*
X2285495Y3941801D1*
X2283093Y3943793D1*
X2285364Y3945487D1*
X2291801Y3951907D1*
X2297259Y3959177D1*
X2298407Y3961272D1*
X2340449Y3961280D1*
X2671675Y3961290D1*
X2680703Y3962807D1*
X2688955Y3966794D1*
X2693811Y3970791D1*
X2764222Y4041201D1*
X2959874D1*
X2958339Y4040824D1*
X2956572Y4040319D1*
X2954827Y4039747D1*
X2946402Y4035879D1*
X2938862Y4030487D1*
X2932478Y4023765D1*
X2927482Y4015957D1*
X2924054Y4007344D1*
X2922318Y3998239D1*
X2922336Y3988969D1*
X2924109Y3979870D1*
X2927571Y3971272D1*
X2932598Y3963483D1*
X2939009Y3956787D1*
X2946571Y3951425D1*
X2955010Y3947591D1*
X2964024Y3945424D1*
X2973283Y3945001D1*
X2973669Y3945056D1*
X3018003Y3900714D1*
X3023539Y3896269D1*
X3031881Y3892493D1*
X3040945Y3891201D1*
X3339035Y3891198D1*
Y3868169D1*
X3509512Y3868164D1*
Y3721594D1*
X3339035D1*
Y3610689D1*
X3509512Y3610697D1*
Y3571594D1*
X3339035D1*
X3339038Y3548563D1*
X3161860Y3548558D1*
X3019374Y3691034D1*
X3019626Y3693798D1*
X3018726Y3703025D1*
X3016097Y3711913D1*
X3011833Y3720144D1*
X3006088Y3727420D1*
X2999070Y3733476D1*
X2991033Y3738094D1*
X2982266Y3741109D1*
X2973089Y3742409D1*
X2963831Y3741950D1*
X2954827Y3739747D1*
X2946402Y3735879D1*
X2938862Y3730487D1*
X2932478Y3723765D1*
X2927482Y3715957D1*
X2924054Y3707344D1*
X2922318Y3698239D1*
X2922336Y3688969D1*
X2924109Y3679870D1*
X2927571Y3671272D1*
X2932598Y3663483D1*
X2939009Y3656787D1*
X2946571Y3651425D1*
X2955010Y3647591D1*
X2964024Y3645424D1*
X2973283Y3645001D1*
X2973669Y3645056D1*
X3002235Y3616480D1*
X3126076Y3492655D1*
X3133534Y3487343D1*
X3142188Y3484327D1*
X3148526Y3483720D1*
X3339035Y3483718D1*
Y3460689D1*
X3509512Y3460684D1*
Y3314114D1*
X3339035D1*
Y3203209D1*
X3509512Y3203217D1*
Y3164114D1*
X3339035D1*
X3339037Y3141083D1*
X3335570Y3141084D1*
X3328579Y3148071D1*
X3328576Y3361306D1*
X3333921Y3367566D1*
X3338408Y3375702D1*
X3341167Y3384576D1*
X3342083Y3393823D1*
X3341118Y3403064D1*
X3338312Y3411924D1*
X3333781Y3420037D1*
X3327710Y3427071D1*
X3320346Y3432739D1*
X3311993Y3436810D1*
X3302991Y3439114D1*
X3293710Y3439560D1*
X3284529Y3438129D1*
X3275823Y3434879D1*
X3267950Y3429942D1*
X3261232Y3423522D1*
X3255944Y3415882D1*
X3252302Y3407333D1*
X3250455Y3398226D1*
X3250480Y3388933D1*
X3252375Y3379836D1*
X3256062Y3371307D1*
X3261391Y3363694D1*
X3263732Y3361480D1*
X3263736Y3134673D1*
X3264508Y3127612D1*
X3267738Y3119043D1*
X3273234Y3111719D1*
X3299197Y3085755D1*
X3304736Y3081308D1*
X3313077Y3077533D1*
X3322142Y3076240D1*
X3339035Y3076238D1*
Y3053209D1*
X3509512Y3053203D1*
Y2906634D1*
X3339035D1*
Y2795728D1*
X3509512Y2795736D1*
Y2756634D1*
X3339035D1*
X3339042Y2733602D1*
X3222264Y2733605D1*
X3215273Y2740600D1*
X3215262Y2882520D1*
X3213745Y2891549D1*
X3209759Y2899801D1*
X3205764Y2904654D1*
X3019374Y3091034D1*
X3019626Y3093798D1*
X3018726Y3103025D1*
X3016097Y3111913D1*
X3011833Y3120144D1*
X3006088Y3127420D1*
X2999070Y3133476D1*
X2991033Y3138094D1*
X2982266Y3141109D1*
X2973089Y3142409D1*
X2963831Y3141950D1*
X2954827Y3139747D1*
X2946402Y3135879D1*
X2938862Y3130487D1*
X2932478Y3123765D1*
X2927482Y3115957D1*
X2924054Y3107344D1*
X2922318Y3098239D1*
X2922336Y3088969D1*
X2924109Y3079870D1*
X2927571Y3071272D1*
X2932598Y3063483D1*
X2939009Y3056787D1*
X2946571Y3051425D1*
X2955010Y3047591D1*
X2964024Y3045424D1*
X2973283Y3045001D1*
X2973669Y3045056D1*
X3010785Y3007930D1*
X3150430Y2868281D1*
Y2727190D1*
X3151203Y2720130D1*
X3154432Y2711563D1*
X3159928Y2704238D1*
X3185894Y2678274D1*
X3191432Y2673828D1*
X3199773Y2670052D1*
X3208837Y2668760D1*
X3339035Y2668757D1*
Y2645728D1*
X3509512Y2645723D1*
Y2499154D1*
X3339035D1*
Y2388248D1*
X3548366D1*
X3548364Y2391420D1*
X3568567Y2371214D1*
X3568562Y2102259D1*
X3561735Y2104816D1*
X3552854Y2106760D1*
X3543787Y2107421D1*
X3534718Y2106785D1*
X3525831Y2104865D1*
X3517308Y2101699D1*
X3509323Y2097353D1*
X3502038Y2091915D1*
X3495600Y2085495D1*
X3490142Y2078224D1*
X3488995Y2076130D1*
X3469165Y2076122D1*
X3441542Y2076113D1*
X3432513Y2074594D1*
X3424261Y2070608D1*
X3419350Y2066555D1*
X3393455Y2040661D1*
X3389008Y2035122D1*
X3385232Y2026781D1*
X3383940Y2017717D1*
X3383938Y933113D1*
X3376950Y926122D1*
X2640490Y926125D1*
X2639786Y927058D1*
X2633033Y933222D1*
X2625261Y938041D1*
X2616738Y941348D1*
X2607751Y943034D1*
X2598608Y943039D1*
X2589619Y941365D1*
X2581092Y938067D1*
X2576122Y935231D1*
X2576119Y1277900D1*
X2581465Y1284160D1*
X2585951Y1292297D1*
X2588710Y1301171D1*
X2589626Y1310417D1*
X2588661Y1319659D1*
X2585856Y1328518D1*
X2581324Y1336631D1*
X2578454Y1340331D1*
X2585364Y1345487D1*
X2591801Y1351907D1*
X2593608Y1354314D1*
X2593793Y1354308D1*
X2595487Y1352038D1*
X2601907Y1345601D1*
X2609177Y1340143D1*
X2617151Y1335774D1*
X2625665Y1332587D1*
X2634546Y1330642D1*
X2643614Y1329980D1*
X2652682Y1330617D1*
X2661570Y1332537D1*
X2670092Y1335702D1*
X2678077Y1340049D1*
X2685364Y1345487D1*
X2691801Y1351907D1*
X2693793Y1354308D1*
X2695487Y1352038D1*
X2701907Y1345601D1*
X2709177Y1340143D1*
X2717151Y1335774D1*
X2725665Y1332587D1*
X2734546Y1330642D1*
X2743614Y1329980D1*
X2752682Y1330617D1*
X2761570Y1332537D1*
X2770092Y1335702D1*
X2778077Y1340049D1*
X2785364Y1345487D1*
X2791801Y1351907D1*
X2793793Y1354308D1*
X2795487Y1352038D1*
X2801907Y1345601D1*
X2809177Y1340143D1*
X2817151Y1335774D1*
X2825665Y1332587D1*
X2834546Y1330642D1*
X2843614Y1329980D1*
X2852682Y1330617D1*
X2861570Y1332537D1*
X2870092Y1335702D1*
X2878077Y1340049D1*
X2885364Y1345487D1*
X2891801Y1351907D1*
X2893793Y1354308D1*
X2895487Y1352038D1*
X2901907Y1345601D1*
X2909177Y1340143D1*
X2917151Y1335774D1*
X2925665Y1332587D1*
X2934546Y1330642D1*
X2943614Y1329980D1*
X2952682Y1330617D1*
X2961570Y1332537D1*
X2970092Y1335702D1*
X2978077Y1340049D1*
X2985364Y1345487D1*
X2991801Y1351907D1*
X2993793Y1354308D1*
X2995487Y1352038D1*
X3001907Y1345601D1*
X3009177Y1340143D1*
X3017151Y1335774D1*
X3025665Y1332587D1*
X3034546Y1330642D1*
X3043614Y1329980D1*
X3052682Y1330617D1*
X3061570Y1332537D1*
X3070092Y1335702D1*
X3078077Y1340049D1*
X3085364Y1345487D1*
X3091801Y1351907D1*
X3097259Y1359177D1*
X3101627Y1367151D1*
X3104815Y1375665D1*
X3106760Y1384546D1*
X3107421Y1393701D1*
X3106785Y1402682D1*
X3104865Y1411570D1*
X3101699Y1420092D1*
X3097353Y1428077D1*
X3091915Y1435364D1*
X3085495Y1441801D1*
X3078224Y1447259D1*
X3070251Y1451627D1*
X3061736Y1454815D1*
X3052856Y1456760D1*
X3043787Y1457421D1*
X3034719Y1456785D1*
X3025832Y1454865D1*
X3017310Y1451699D1*
X3009324Y1447353D1*
X3002038Y1441915D1*
X2995601Y1435495D1*
X2993609Y1433093D1*
X2991915Y1435364D1*
X2985495Y1441801D1*
X2978224Y1447259D1*
X2970251Y1451627D1*
X2961736Y1454815D1*
X2952856Y1456760D1*
X2943787Y1457421D1*
X2934719Y1456785D1*
X2925832Y1454865D1*
X2917310Y1451699D1*
X2909324Y1447353D1*
X2902038Y1441915D1*
X2895601Y1435495D1*
X2893609Y1433093D1*
X2891915Y1435364D1*
X2885495Y1441801D1*
X2878224Y1447259D1*
X2870251Y1451627D1*
X2861736Y1454815D1*
X2852856Y1456760D1*
X2843787Y1457421D1*
X2834719Y1456785D1*
X2825832Y1454865D1*
X2817310Y1451699D1*
X2809324Y1447353D1*
X2802038Y1441915D1*
X2795601Y1435495D1*
X2793609Y1433093D1*
X2791915Y1435364D1*
X2785495Y1441801D1*
X2778224Y1447259D1*
X2770251Y1451627D1*
X2761736Y1454815D1*
X2752856Y1456760D1*
X2743787Y1457421D1*
X2734719Y1456785D1*
X2725832Y1454865D1*
X2717310Y1451699D1*
X2709324Y1447353D1*
X2702038Y1441915D1*
X2695601Y1435495D1*
X2693609Y1433093D1*
X2691915Y1435364D1*
X2685495Y1441801D1*
X2678224Y1447259D1*
X2670251Y1451627D1*
X2661736Y1454815D1*
X2652856Y1456760D1*
X2643787Y1457421D1*
X2634719Y1456785D1*
X2625832Y1454865D1*
X2617310Y1451699D1*
X2609324Y1447353D1*
X2602038Y1441915D1*
X2595601Y1435495D1*
X2593609Y1433093D1*
X2591915Y1435364D1*
X2585495Y1441801D1*
X2578224Y1447259D1*
X2570251Y1451627D1*
X2561736Y1454815D1*
X2552856Y1456760D1*
X2543787Y1457421D1*
X2534719Y1456785D1*
X2527941Y1455320D1*
X2518839Y1464412D1*
Y1635143D1*
X2525665Y1632587D1*
X2534546Y1630642D1*
X2543614Y1629980D1*
X2552682Y1630617D1*
X2561570Y1632537D1*
X2570092Y1635702D1*
X2578077Y1640049D1*
X2585364Y1645487D1*
X2591801Y1651907D1*
X2593608Y1654314D1*
X2593793Y1654308D1*
X2595487Y1652038D1*
X2601907Y1645601D1*
X2609177Y1640143D1*
X2617151Y1635774D1*
X2625665Y1632587D1*
X2634546Y1630642D1*
X2643614Y1629980D1*
X2652682Y1630617D1*
X2661570Y1632537D1*
X2670092Y1635702D1*
X2678077Y1640049D1*
X2685364Y1645487D1*
X2691801Y1651907D1*
X2693793Y1654308D1*
X2695487Y1652038D1*
X2701907Y1645601D1*
X2709177Y1640143D1*
X2717151Y1635774D1*
X2725665Y1632587D1*
X2734546Y1630642D1*
X2743614Y1629980D1*
X2752682Y1630617D1*
X2761570Y1632537D1*
X2770092Y1635702D1*
X2778077Y1640049D1*
X2785364Y1645487D1*
X2791801Y1651907D1*
X2793793Y1654308D1*
X2795487Y1652038D1*
X2801907Y1645601D1*
X2809177Y1640143D1*
X2817151Y1635774D1*
X2825665Y1632587D1*
X2834546Y1630642D1*
X2843614Y1629980D1*
X2852682Y1630617D1*
X2861570Y1632537D1*
X2870092Y1635702D1*
X2878077Y1640049D1*
X2885364Y1645487D1*
X2891801Y1651907D1*
X2893793Y1654308D1*
X2895487Y1652038D1*
X2901907Y1645601D1*
X2909177Y1640143D1*
X2917151Y1635774D1*
X2925665Y1632587D1*
X2934546Y1630642D1*
X2943614Y1629980D1*
X2952682Y1630617D1*
X2961570Y1632537D1*
X2970092Y1635702D1*
X2978077Y1640049D1*
X2985364Y1645487D1*
X2991801Y1651907D1*
X2993793Y1654308D1*
X2995487Y1652038D1*
X3001907Y1645601D1*
X3009177Y1640143D1*
X3017151Y1635774D1*
X3025665Y1632587D1*
X3034546Y1630642D1*
X3043614Y1629980D1*
X3052682Y1630617D1*
X3061570Y1632537D1*
X3070092Y1635702D1*
X3078077Y1640049D1*
X3085364Y1645487D1*
X3091801Y1651907D1*
X3093793Y1654308D1*
X3095487Y1652038D1*
X3101907Y1645601D1*
X3109177Y1640143D1*
X3117151Y1635774D1*
X3125665Y1632587D1*
X3134546Y1630642D1*
X3143614Y1629980D1*
X3152682Y1630617D1*
X3161570Y1632537D1*
X3170092Y1635702D1*
X3178077Y1640049D1*
X3185364Y1645487D1*
X3191801Y1651907D1*
X3197259Y1659177D1*
X3201627Y1667151D1*
X3204815Y1675665D1*
X3206760Y1684546D1*
X3207421Y1693701D1*
X3206785Y1702682D1*
X3204865Y1711570D1*
X3201699Y1720092D1*
X3197353Y1728077D1*
X3191915Y1735364D1*
X3185495Y1741801D1*
X3178224Y1747259D1*
X3170251Y1751627D1*
X3161736Y1754815D1*
X3152856Y1756760D1*
X3143787Y1757421D1*
X3134719Y1756785D1*
X3125832Y1754865D1*
X3117310Y1751699D1*
X3109324Y1747353D1*
X3102038Y1741915D1*
X3095601Y1735495D1*
X3093609Y1733093D1*
X3091915Y1735364D1*
X3085495Y1741801D1*
X3078224Y1747259D1*
X3070251Y1751627D1*
X3061736Y1754815D1*
X3052856Y1756760D1*
X3043787Y1757421D1*
X3034719Y1756785D1*
X3025832Y1754865D1*
X3017310Y1751699D1*
X3009324Y1747353D1*
X3002038Y1741915D1*
X2995601Y1735495D1*
X2993609Y1733093D1*
X2991915Y1735364D1*
X2985495Y1741801D1*
X2978224Y1747259D1*
X2970251Y1751627D1*
X2961736Y1754815D1*
X2952856Y1756760D1*
X2943787Y1757421D1*
X2934719Y1756785D1*
X2925832Y1754865D1*
X2917310Y1751699D1*
X2909324Y1747353D1*
X2902038Y1741915D1*
X2895601Y1735495D1*
X2893609Y1733093D1*
X2891915Y1735364D1*
X2885495Y1741801D1*
X2878224Y1747259D1*
X2870251Y1751627D1*
X2861736Y1754815D1*
X2852856Y1756760D1*
X2843787Y1757421D1*
X2834719Y1756785D1*
X2825832Y1754865D1*
X2817310Y1751699D1*
X2809324Y1747353D1*
X2802038Y1741915D1*
X2795601Y1735495D1*
X2793609Y1733093D1*
X2791915Y1735364D1*
X2785495Y1741801D1*
X2778224Y1747259D1*
X2770251Y1751627D1*
X2761736Y1754815D1*
X2752856Y1756760D1*
X2743787Y1757421D1*
X2734719Y1756785D1*
X2725832Y1754865D1*
X2717310Y1751699D1*
X2709324Y1747353D1*
X2702038Y1741915D1*
X2695601Y1735495D1*
X2693609Y1733093D1*
X2691915Y1735364D1*
X2685495Y1741801D1*
X2678224Y1747259D1*
X2670251Y1751627D1*
X2661736Y1754815D1*
X2652856Y1756760D1*
X2643787Y1757421D1*
X2634719Y1756785D1*
X2625832Y1754865D1*
X2617310Y1751699D1*
X2609324Y1747353D1*
X2602038Y1741915D1*
X2595601Y1735495D1*
X2593609Y1733093D1*
X2591915Y1735364D1*
X2585495Y1741801D1*
X2578224Y1747259D1*
X2570251Y1751627D1*
X2561736Y1754815D1*
X2552856Y1756760D1*
X2543787Y1757421D1*
X2534719Y1756785D1*
X2525832Y1754865D1*
X2518833Y1752265D1*
X2518836Y1781289D1*
X2717189Y1979656D1*
X2722500Y1987114D1*
X2725516Y1995768D1*
X2726122Y2002021D1*
X2726127Y2384740D1*
X2729058Y2387289D1*
X2734773Y2394587D1*
X2739004Y2402835D1*
X2741598Y2411734D1*
X2742461Y2420963D1*
X2741560Y2430190D1*
X2738932Y2439079D1*
X2734668Y2447310D1*
X2728923Y2454585D1*
X2721904Y2460642D1*
X2713867Y2465260D1*
X2705101Y2468274D1*
X2695924Y2469575D1*
X2686665Y2469115D1*
X2677661Y2466912D1*
X2669236Y2463045D1*
X2661697Y2457652D1*
X2655312Y2450930D1*
X2650316Y2443122D1*
X2646888Y2434509D1*
X2645152Y2425404D1*
X2645171Y2416134D1*
X2646944Y2407035D1*
X2650406Y2398437D1*
X2655433Y2390648D1*
X2661280Y2384441D1*
X2661282Y2015437D1*
X2548650Y1902803D1*
X2547970Y1905554D1*
X2544356Y1914024D1*
X2539429Y1921804D1*
X2533318Y1928694D1*
X2526181Y1934514D1*
X2518202Y1939115D1*
X2509591Y1942375D1*
X2500566Y1944213D1*
X2491364Y1944579D1*
X2482222Y1943463D1*
X2473378Y1940895D1*
X2465060Y1936942D1*
X2457484Y1931707D1*
X2450846Y1925324D1*
X2445318Y1917958D1*
X2441042Y1909802D1*
X2438131Y1901064D1*
X2436659Y1891974D1*
X2436664Y1882764D1*
X2438147Y1873675D1*
X2441068Y1864941D1*
X2445353Y1856789D1*
X2450890Y1849430D1*
X2457535Y1843054D1*
X2465117Y1837827D1*
X2473440Y1833885D1*
X2478322Y1832474D1*
X2463510Y1817665D1*
X2459064Y1812126D1*
X2455289Y1803785D1*
X2453996Y1794720D1*
Y1451010D1*
X2454768Y1443950D1*
X2457997Y1435382D1*
X2463492Y1428059D1*
X2482087Y1409455D1*
X2480642Y1402856D1*
X2479980Y1393787D1*
X2480617Y1384719D1*
X2482537Y1375832D1*
X2485702Y1367310D1*
X2490049Y1359324D1*
X2495487Y1352038D1*
X2501907Y1345601D1*
X2508944Y1340319D1*
X2508953Y1340286D1*
X2508776Y1340117D1*
X2503487Y1332476D1*
X2499845Y1323928D1*
X2497999Y1314820D1*
X2498024Y1305528D1*
X2499919Y1296430D1*
X2503605Y1287902D1*
X2508934Y1280289D1*
X2511276Y1278075D1*
X2511280Y1043853D1*
Y750066D1*
X2512051Y743005D1*
X2515281Y734437D1*
X2520776Y727114D1*
X2548012Y699873D1*
X2548024Y695272D1*
X2549919Y686175D1*
X2553605Y677646D1*
X2558934Y670033D1*
X2565686Y663648D1*
X2573585Y658755D1*
X2582307Y655550D1*
X2591496Y654167D1*
X2600776Y654663D1*
X2609765Y657016D1*
X2618097Y661130D1*
X2625430Y666837D1*
X2631465Y673904D1*
X2635951Y682041D1*
X2638710Y690915D1*
X2639626Y700161D1*
X2638661Y709403D1*
X2635856Y718262D1*
X2631324Y726375D1*
X2625253Y733409D1*
X2617890Y739077D1*
X2609537Y743148D1*
X2600534Y745453D1*
X2593626Y745965D1*
X2576122Y763471D1*
X2576127Y852406D1*
X2581038Y849361D1*
X2589562Y846054D1*
X2598549Y844367D1*
X2607692Y844362D1*
X2616680Y846037D1*
X2625207Y849335D1*
X2632984Y854143D1*
X2639745Y860299D1*
X2640483Y861274D1*
X2802483Y861280D1*
X3391181Y861290D1*
X3400210Y862807D1*
X3408462Y866794D1*
X3413322Y870795D1*
X3439848Y897336D1*
X3445160Y904793D1*
X3448175Y913448D1*
X3448782Y919709D1*
X3448783Y2004289D1*
X3455780Y2011280D1*
X3488983Y2011282D1*
X3490047Y2009324D1*
X3495486Y2002039D1*
X3501906Y1995601D1*
X3509177Y1990143D1*
X3517150Y1985776D1*
X3525664Y1982587D1*
X3534546Y1980642D1*
X3543613Y1979980D1*
X3552682Y1980617D1*
X3561568Y1982537D1*
X3568567Y1985029D1*
X3568563Y1752259D1*
X3561736Y1754815D1*
X3552856Y1756760D1*
X3543787Y1757421D1*
X3534719Y1756785D1*
X3525832Y1754865D1*
X3517310Y1751699D1*
X3509324Y1747353D1*
X3502038Y1741915D1*
X3495601Y1735495D1*
X3490143Y1728224D1*
X3485774Y1720251D1*
X3482587Y1711736D1*
X3480642Y1702856D1*
X3479980Y1693787D1*
X3480617Y1684719D1*
X3482537Y1675832D1*
X3485702Y1667310D1*
X3490049Y1659324D1*
X3495487Y1652038D1*
X3501907Y1645601D1*
X3509177Y1640143D1*
X3517151Y1635774D1*
X3525665Y1632587D1*
X3534546Y1630642D1*
X3543614Y1629980D1*
X3552682Y1630617D1*
X3561570Y1632537D1*
X3568567Y1635033D1*
X3568564Y1246118D1*
X3561713Y1248963D1*
X3552845Y1251101D1*
X3543753Y1251825D1*
X3534660Y1251119D1*
X3525789Y1248999D1*
X3517360Y1245516D1*
X3509577Y1240759D1*
X3502636Y1234841D1*
X3496706Y1227911D1*
X3491933Y1220139D1*
X3488434Y1211715D1*
X3486297Y1202849D1*
X3485572Y1193757D1*
X3486280Y1184663D1*
X3488400Y1175793D1*
X3491882Y1167362D1*
X3496640Y1159581D1*
X3502556Y1152639D1*
X3509487Y1146709D1*
X3517260Y1141936D1*
X3525682Y1138437D1*
X3534550Y1136299D1*
X3543642Y1135575D1*
X3552735Y1136282D1*
X3561606Y1138403D1*
X3568567Y1141159D1*
X3568568Y1064419D1*
X3555971Y1051825D1*
X3485576D1*
Y935575D1*
X3601827D1*
X3601825Y1005974D1*
X3623896Y1028046D1*
X3628341Y1033583D1*
X3632117Y1041924D1*
X3633409Y1050988D1*
Y2384619D1*
X3632638Y2391680D1*
X3629408Y2400248D1*
X3623913Y2407571D1*
X3574354Y2457125D1*
Y4481075D1*
X3573970Y4486079D1*
X3571302Y4494836D1*
X3566291Y4502499D1*
X3559339Y4508455D1*
X3550997Y4512231D1*
X3548366Y4512881D1*
Y4536555D1*
X3339035D1*
Y4425650D1*
X3509512Y4425657D1*
X3509513Y4386555D1*
X3339035D1*
X3339045Y4363524D1*
X3314239Y4363513D1*
X3305210Y4361996D1*
X3296958Y4358009D1*
X3292102Y4354013D1*
X3264209Y4326122D1*
X3007114Y4326119D1*
X3006088Y4327420D1*
X2999070Y4333476D1*
X2991033Y4338094D1*
X2982266Y4341109D1*
X2973089Y4342409D1*
X2963831Y4341950D1*
X2954827Y4339747D1*
X2946402Y4335879D1*
X2938862Y4330487D1*
X2932478Y4323765D1*
X2927482Y4315957D1*
X2924054Y4307344D1*
X2922318Y4298239D1*
X2922336Y4288969D1*
X2924109Y4279870D1*
X2927571Y4271272D1*
X2932598Y4263483D1*
X2939009Y4256787D1*
X2946571Y4251425D1*
X2955010Y4247591D1*
X2964024Y4245424D1*
X2973283Y4245001D1*
X2982457Y4246339D1*
X2991210Y4249388D1*
X2999228Y4254039D1*
X3006223Y4260123D1*
X3007133Y4261285D1*
X3103265Y4261280D1*
X3277615D1*
X3284676Y4262052D1*
X3293244Y4265281D1*
X3300567Y4270776D1*
X3328465Y4298681D1*
X3339035Y4298678D1*
Y4275650D1*
X3509512Y4275644D1*
X3509513Y4129075D1*
X3339035D1*
X3339034Y4106043D1*
X2750818D1*
X2743757Y4105272D1*
X2735189Y4102042D1*
X2727866Y4096547D1*
X2657437Y4026122D1*
X2298419Y4026119D1*
X2297353Y4028077D1*
X2291915Y4035364D1*
X2285495Y4041801D1*
X2278224Y4047259D1*
X2270251Y4051627D1*
X2261736Y4054815D1*
X2252856Y4056760D1*
X2243787Y4057421D1*
X2234719Y4056785D1*
X2225832Y4054865D1*
X2217310Y4051699D1*
X2209324Y4047353D1*
X2202038Y4041915D1*
X2195601Y4035495D1*
X2190143Y4028224D1*
X2188995Y4026130D1*
X2158071Y4026122D1*
X2079969Y4026118D1*
X1642209Y4463869D1*
X1642461Y4466633D1*
X1641560Y4475860D1*
X1638932Y4484748D1*
X1634668Y4492979D1*
X1628923Y4500255D1*
X1621904Y4506311D1*
X1613867Y4510929D1*
X1605101Y4513944D1*
X1595924Y4515244D1*
X1586665Y4514785D1*
X1577661Y4512581D1*
X1569236Y4508714D1*
X1561697Y4503322D1*
X1557551Y4498957D1*
X1367962D1*
X1360903Y4498185D1*
X1352335Y4494955D1*
X1345012Y4489461D1*
X1281671Y4426122D1*
X848366Y4426125D1*
Y4449154D1*
X639035D1*
Y4425474D1*
X631747Y4423072D1*
D16*
X2116142Y1398661D3*
X2171260Y1688740D3*
D17*
X2043701Y2001575D3*
D16*
Y2198425D3*
D17*
X1095276Y1543701D3*
D16*
X1292126D3*
D17*
X1595276D3*
D16*
X1792126D3*
X2721260Y4388740D3*
X2666142Y4098661D3*
D18*
X1454331Y1093701D3*
D19*
X1533071D3*
D20*
X1784252Y893701D3*
D21*
X2603150D3*
D18*
X1154331Y1093701D3*
D19*
X1233071D3*
D22*
X2493701Y2300000D3*
D23*
Y1887402D3*
D24*
X1443701Y543701D3*
D25*
X1543701D3*
X1643701D3*
X1743701D3*
D24*
X1893701D3*
D25*
X1993701D3*
X2093701D3*
X2193701D3*
X2293701D3*
X2393701D3*
X2493701D3*
X2593701D3*
X2693701D3*
X2793701D3*
X2893701D3*
X2993701D3*
X3093701D3*
X3193701D3*
X3293701D3*
D24*
X3543701D3*
D25*
Y643701D3*
Y743701D3*
Y843701D3*
D28*
Y993701D3*
D29*
X3543699Y1093701D3*
X3543697Y1193701D3*
D30*
X3543701Y1593701D3*
D31*
Y1693701D3*
D30*
X3543702Y1943701D3*
D31*
X3543700Y2043701D3*
D32*
X743701Y4543701D3*
D33*
X2688181Y3888496D3*
D32*
X743701Y4393701D3*
D33*
X2688181Y3388496D3*
D32*
X743701Y4136220D3*
Y3986220D3*
Y3728740D3*
Y3578740D3*
Y3321260D3*
Y3171260D3*
Y2913780D3*
Y2763780D3*
Y2506299D3*
Y2356299D3*
Y2098819D3*
Y1948819D3*
Y1691339D3*
Y1541339D3*
Y1291732D3*
Y1141732D3*
D34*
X1093701Y643701D3*
X1243701D3*
D32*
X3443701Y2293701D3*
Y2443701D3*
Y2701181D3*
Y2851181D3*
Y3108661D3*
Y3258661D3*
Y3516142D3*
Y3666142D3*
Y3923622D3*
Y4073622D3*
Y4331102D3*
Y4481102D3*
D33*
X1993701Y1143701D3*
X1793701D3*
D35*
X2693701Y3066535D3*
Y2420866D3*
X1893701Y3020866D3*
Y3666535D3*
X1116535Y4493701D3*
X470866D3*
X1116535Y4193701D3*
X470866D3*
X1116535Y3893701D3*
X470866D3*
X1116535Y3593701D3*
X470866D3*
X1116535Y3293701D3*
X470866D3*
X1116535Y2993701D3*
X470866D3*
X1116535Y2693701D3*
X470866D3*
X1116535Y2393701D3*
X470866D3*
X1116535Y2093701D3*
X470866D3*
X1116535Y1793701D3*
X470866D3*
X2970866Y2793701D3*
X3616535D3*
X2970866Y3093701D3*
X3616535D3*
X2970866Y3393701D3*
X3616535D3*
X2970866Y3693701D3*
X3616535D3*
X2970866Y3993701D3*
X3616535D3*
X2970866Y4293701D3*
X3616535D3*
X1943701Y4466535D3*
Y3820866D3*
X1593701D3*
Y4466535D3*
X2868701Y1820866D3*
Y2466535D3*
X1593701Y3020866D3*
Y3666535D3*
D37*
X843701Y793701D3*
Y593701D3*
Y693701D3*
D35*
X2220866Y1143701D3*
X2866535D3*
D30*
X1443701Y2893701D3*
D31*
Y2993701D3*
Y3093701D3*
Y3193701D3*
Y3293701D3*
Y3393701D3*
Y3493701D3*
Y3593701D3*
Y3693701D3*
Y3793701D3*
Y3893701D3*
Y3993701D3*
D30*
Y4093701D3*
D31*
Y4193701D3*
Y4293701D3*
Y4393701D3*
D38*
X2243701Y3993701D3*
D31*
Y3893701D3*
Y3793701D3*
Y3693701D3*
Y3593701D3*
Y3493701D3*
Y3393701D3*
Y3293701D3*
Y3193701D3*
Y3093701D3*
Y2993701D3*
Y2893701D3*
D38*
X2543701Y1393701D3*
X2643701D3*
X2743701D3*
X2843701D3*
X2943701D3*
X3043701D3*
X3143701D3*
X2543701Y1693701D3*
X2643701D3*
X2743701D3*
X2843701D3*
X2943701D3*
X3043701D3*
X3143701D3*
D41*
X3093701Y743701D3*
X2993701D3*
X3193701Y1043701D3*
X3093701D3*
X3193701Y743701D3*
X2893701Y1043701D3*
Y743701D3*
X2993701Y1043701D3*
D44*
X1593701Y2143701D3*
Y2243701D3*
Y2343701D3*
Y2043701D3*
X1293701Y2143701D3*
Y2043701D3*
Y2243701D3*
D45*
Y2343701D3*
M02*
