M48
INCH
T01C0.0191
T02C0.0295
T03C0.0299
T04C0.0315
T05C0.032
T06C0.0335
T07C0.0354
T08C0.0417
T09C0.0425
T10C0.0428
T11C0.044
T12C0.0504
T13C0.1181
%
T01
X+032962Y+033937
X+017385Y+034937
X+017410Y+038209
X+015405Y+031937
X+008554Y+033213
X+010109Y+026937
X+017346Y+021437
X+017346Y+014905
X+015405Y+014510
X+013462Y+013667
X+009868Y+014770
X+009214Y+016913
X+006195Y+014905
X+022295Y+016937
X+023937Y+012322
X+025437Y+013103
X+025937Y+007000
X+023937Y+006803
T02
X+014543Y+010937
X+015331Y+010937
X+012331Y+010937
X+011543Y+010937
T03
X+026937Y+030665
X+029709Y+030937
X+029709Y+027937
X+028687Y+024665
X+026937Y+024209
X+028687Y+018209
X+028665Y+011437
X+022209Y+011437
X+011165Y+017937
X+011165Y+020937
X+011165Y+023937
X+011165Y+026937
X+011165Y+029937
X+011165Y+032937
X+011165Y+035937
X+011165Y+038937
X+011165Y+041937
X+011165Y+044937
X+015937Y+044665
X+019437Y+044665
X+019437Y+038209
X+018937Y+036665
X+015937Y+036665
X+015937Y+038209
X+015937Y+030209
X+018937Y+030209
X+029709Y+033937
X+029709Y+036937
X+029709Y+039937
X+029709Y+042937
X+036165Y+042937
X+036165Y+039937
X+036165Y+036937
X+036165Y+033937
X+036165Y+030937
X+036165Y+027937
X+004709Y+026937
X+004709Y+023937
X+004709Y+020937
X+004709Y+017937
X+004709Y+029937
X+004709Y+032937
X+004709Y+035937
X+004709Y+038937
X+004709Y+041937
X+004709Y+044937
T04
X+017843Y+008937
X+026031Y+008937
X+008437Y+007937
X+008437Y+006937
X+008437Y+005937
T05
X+030937Y+007437
X+029937Y+007437
X+028937Y+007437
X+031937Y+007437
X+031937Y+010437
X+030937Y+010437
X+029937Y+010437
X+028937Y+010437
T06
X+021161Y+013987
X+021713Y+016887
X+020437Y+020016
X+020437Y+021984
X+017921Y+015437
X+015953Y+015437
X+012921Y+015437
X+010953Y+015437
X+026661Y+040987
X+027213Y+043887
T07
X+026882Y+038885
X+026882Y+033885
X+019937Y+011437
X+017937Y+011437
T08
X+024937Y+023000
X+024937Y+018874
T09
X+014437Y+005437
X+015437Y+005437
X+016437Y+005437
X+017437Y+005437
X+018937Y+005437
X+019937Y+005437
X+020937Y+005437
X+021937Y+005437
X+022937Y+005437
X+023937Y+005437
X+024937Y+005437
X+025937Y+005437
X+026937Y+005437
X+027937Y+005437
X+028937Y+005437
X+029937Y+005437
X+030937Y+005437
X+031937Y+005437
X+032937Y+005437
X+035437Y+005437
X+035437Y+006437
X+035437Y+007437
X+035437Y+008437
T10
X+035437Y+009937
X+035437Y+010937
X+035437Y+011937
T11
X+015937Y+021437
X+015937Y+022437
X+015937Y+023437
X+015937Y+020437
X+012937Y+020437
X+012937Y+021437
X+012937Y+022437
X+012937Y+023437
T12
X+035437Y+015937
X+035437Y+016937
X+035437Y+019437
X+035437Y+020437
X+031437Y+016937
X+030437Y+016937
X+029437Y+016937
X+028437Y+016937
X+027437Y+016937
X+026437Y+016937
X+025437Y+016937
X+025437Y+013937
X+026437Y+013937
X+027437Y+013937
X+028437Y+013937
X+029437Y+013937
X+030437Y+013937
X+031437Y+013937
X+022437Y+028937
X+022437Y+029937
X+022437Y+030937
X+022437Y+031937
X+022437Y+032937
X+022437Y+033937
X+022437Y+034937
X+022437Y+035937
X+022437Y+036937
X+022437Y+037937
X+022437Y+038937
X+022437Y+039937
X+014437Y+039937
X+014437Y+038937
X+014437Y+037937
X+014437Y+036937
X+014437Y+035937
X+014437Y+034937
X+014437Y+033937
X+014437Y+032937
X+014437Y+031937
X+014437Y+030937
X+014437Y+029937
X+014437Y+028937
X+014437Y+040937
X+014437Y+041937
X+014437Y+042937
X+014437Y+043937
T00
M30
